<?xml version="1.0" encoding="utf-8"?>
<!-- Generator: Adobe Illustrator 23.0.2, SVG Export Plug-In . SVG Version: 6.00 Build 0)  -->
<svg version="1.1" id="Layer_1" xmlns="http://www.w3.org/2000/svg" xmlns:xlink="http://www.w3.org/1999/xlink" x="0px" y="0px"
	 viewBox="0 0 500 500" style="enable-background:new 0 0 500 500;" xml:space="preserve">
<style type="text/css">
	.st0{fill:#0071BC;}
</style>
<g>
	<path class="st0" d="M206.9,239.6c0,32.2-21.9,60-66.7,60H93v-120h47.3C185.2,179.6,206.9,207.4,206.9,239.6z M176.4,239.6
		c0-17.8-11-32.2-38.4-32.2h-12.3v64.4H138C165.5,271.8,176.4,257.2,176.4,239.6z"/>
	<path class="st0" d="M239.4,207.4v18.3h48.5v27.8h-48.5v46.1h-32.9v-120h86.7v27.8L239.4,207.4L239.4,207.4z"/>
	<g>
		<path class="st0" d="M315.1,216c2.1,0,3.3,0,4.4,0c14.6,0,29.3-0.1,43.9,0.1c3,0,4.7-0.7,6-3.6c3.2-6.8,6.7-13.5,10.1-20.2
			c-5.7-1.5-6.4-1.2-8.9,3.7c-1.9,3.7-3.6,7.6-5.8,11.2c-0.7,1.2-2.5,2.3-3.8,2.3c-15.7,0.2-31.4,0.1-47.1,0.1
			c-2.2,0-3.5-0.7-4.6-2.6c-1.5-2.8-3.2-5.5-5.3-9c2.1,0,3.4,0,4.6,0c14.8,0,29.5-0.1,44.3,0c2.6,0,4.1-0.6,5.2-3.2
			c1.8-4.2,3.9-8.2,6.2-12.2c0.7-1.2,2.4-2.6,3.7-2.6c16.1-0.2,32.1-0.1,48.2-0.1c0.6,0,1.1,0.2,2.3,0.5
			c-9.7,19.1-30.2,61.8-30.3,60.7c-4,4.5-9.9,3.9-14.9,4.2c-12.3,0.6-24.6,0.2-36.9,0.2c-1.9,0-3.5,0-4.6,2.3
			c-5.7,11.7-11.6,23.4-17.5,35c-0.7,1.5-1.4,3-2.1,4.6c6.5,1.1,6.4,1,9.1-4.3c4.6-9.1,9.2-18.2,13.8-27.3c0.5-1,0.7-2.2,1.2-3.7
			c18,0,36.8,0,54.3,0c2,3.9,3.8,7.3,5.9,11.3c-2,0-3.3,0-4.7,0c-14.5,0-29,0.1-43.5-0.1c-3.1,0-4.6,1-5.9,3.7
			c-3.2,6.8-6.7,13.5-10.1,20.3c6.4,1.1,6.4,1.1,9.2-4.4c1.8-3.6,3.5-7.4,5.6-10.9c0.6-1.1,2.3-2.2,3.5-2.2c16-0.1,31.9-0.1,47.9,0
			c1.2,0,2.8,1,3.6,2.1c2,2.7,3.5,5.6,5.7,9.1c-2.1,0.2-3.5,0.3-4.8,0.4c-14.5,0-29,0.1-43.5-0.1c-3.2,0-4.8,1-6,3.7
			c-1.8,4-3.8,8-6,11.8c-0.6,1.1-2.2,2.4-3.4,2.4c-16.1,0.1-32.1,0.1-48.2,0.1c-0.6,0-1.1-0.2-2-0.4c0.3-0.9,0.4-1.7,0.8-2.4
			c8-15.9,16-31.9,24.1-47.8c2.2-4.4,4.7-8.7,7.2-12.9c0.5-0.9,1.8-1.8,2.8-1.8c11.3-0.1,22.5-0.1,33.8,0c4.4,0,8.9,0.2,13.3-0.1
			c1.3-0.1,3.1-1,3.7-2.1c6.7-12.7,13.1-25.6,19.6-38.4c0.2-0.4,0.3-0.9,0.4-1.3c-5.8-1.3-6.1-1.2-8.7,3.7
			c-4.8,9.4-9.6,18.8-14.3,28.2c-1.3,2.6-2.8,3.5-5.8,3.5c-15.3-0.2-30.7,0-46-0.2c-1.3,0-3.1-1-3.9-2.1
			C318.9,222.7,317.4,219.7,315.1,216z"/>
		<path class="st0" d="M293.2,179.6c2.7-0.4,34.4,0.4,49.4,0.3c2.6,0,4.3,0.6,5.4,3c1.4,2.7,3.1,5.3,4.9,8.4c-1.9,0.1-3,0.2-4.2,0.2
			c-15.1,0-30.2,0-45.2,0.1c-2.4,0-4-0.6-5.1-2.8C297.1,186.1,295.2,183,293.2,179.6z"/>
		<path class="st0" d="M419,299.5c-2.9,0-4.7,0-6.5,0c-14.3,0-28.5-0.1-42.8,0.1c-2.8,0-4.5-0.8-5.7-3.2c-1.4-2.6-3-5.1-4.8-8.2
			c2-0.1,3.2-0.2,4.5-0.2c14.9,0,29.7,0.1,44.6-0.1c2.7,0,4.5,0.7,5.7,3.2C415.2,293.6,416.9,296,419,299.5z"/>
	</g>
</g>
</svg>
