<?xml version="1.0" encoding="utf-8"?>
<!-- Generator: Adobe Illustrator 24.2.0, SVG Export Plug-In . SVG Version: 6.00 Build 0)  -->
<svg version="1.1" id="Layer_1" xmlns="http://www.w3.org/2000/svg" xmlns:xlink="http://www.w3.org/1999/xlink" x="0px" y="0px"
	 viewBox="0 0 500 500" style="enable-background:new 0 0 500 500;" xml:space="preserve">
<style type="text/css">
	.st0{opacity:0.2;fill:#D1D1D1;}
	.st1{opacity:0.2;fill:#6D6D6D;}
	.st2{opacity:0.8;}
</style>
<path class="st0" d="M250,88.7c-89.1,0-161.3,72.2-161.3,161.3S160.9,411.3,250,411.3S411.3,339.1,411.3,250S339.1,88.7,250,88.7
	L250,88.7z M250,389.3c-77,0-139.3-62.4-139.3-139.3S173,110.7,250,110.7S389.3,173,389.3,250S327,389.3,250,389.3L250,389.3z"/>
<path class="st1" d="M250,123.5c-69.7,0-126.5,56.7-126.5,126.5S180.3,376.5,250,376.5S376.5,319.7,376.5,250S319.7,123.5,250,123.5
	L250,123.5z M250,367.7c-64.9,0-117.7-52.8-117.7-117.7S185.1,132.3,250,132.3S367.7,185.1,367.7,250S314.9,367.7,250,367.7z"/>
<g class="st2">
	<path d="M202.5,231c-0.3-0.3-0.4-0.6-0.4-0.9v-5.8h-16.2c-0.3,0-0.7-0.1-0.9-0.4c-0.3-0.3-0.4-0.6-0.4-0.9v-5.3
		c0-0.5,0.2-1,0.6-1.6l15.2-20.5c0.5-0.6,1.1-0.9,1.9-0.9h8c0.4,0,0.7,0.1,1,0.4c0.3,0.2,0.4,0.6,0.4,0.9v20.2h4.6
		c0.4,0,0.8,0.1,1,0.4c0.2,0.3,0.4,0.6,0.4,0.9v5.5c0,0.3-0.1,0.7-0.4,0.9c-0.2,0.3-0.6,0.4-0.9,0.4h-4.7v5.8c0,0.4-0.1,0.7-0.4,0.9
		s-0.6,0.4-1,0.4h-6.8C203.1,231.4,202.7,231.3,202.5,231z M193.9,216.6h8.4v-11.8L193.9,216.6z"/>
	<path d="M226,228.1c-2.5-2.5-3.9-5.8-4.1-9.9c-0.1-1.9-0.1-3.6-0.1-5.1s0-3.3,0.1-5.2c0.1-2.6,0.8-4.9,2-7c1.2-2,2.9-3.7,5.1-4.8
		c2.2-1.2,4.9-1.8,8.1-1.8c3.2,0,5.9,0.6,8.1,1.8s3.9,2.8,5.1,4.8c1.2,2,1.8,4.4,2,7c0.1,1,0.1,2.7,0.1,5.2c0,2.4,0,4.1-0.1,5.1
		c-0.2,4.1-1.6,7.4-4.1,9.9s-6.2,3.8-11,3.8C232.1,231.9,228.5,230.6,226,228.1z M240.6,222.4c0.8-1.1,1.2-2.6,1.3-4.5
		c0.1-1,0.1-2.7,0.1-4.9c0-2.3,0-3.9-0.1-4.8c-0.1-1.9-0.5-3.4-1.3-4.5s-2-1.6-3.7-1.6c-3.1,0-4.8,2-5,6.1c0,0.9-0.1,2.5-0.1,4.8
		s0,3.9,0.1,4.9c0.2,4.1,1.8,6.1,5,6.1C238.6,224,239.8,223.5,240.6,222.4z"/>
	<path d="M274.3,231c-0.3-0.3-0.4-0.6-0.4-0.9v-5.8h-16.2c-0.3,0-0.7-0.1-0.9-0.4c-0.3-0.3-0.4-0.6-0.4-0.9v-5.3
		c0-0.5,0.2-1,0.6-1.6l15.2-20.5c0.5-0.6,1.1-0.9,1.9-0.9h8c0.4,0,0.7,0.1,1,0.4c0.3,0.2,0.4,0.6,0.4,0.9v20.2h4.6
		c0.4,0,0.8,0.1,1,0.4s0.4,0.6,0.4,0.9v5.5c0,0.3-0.1,0.7-0.4,0.9s-0.6,0.4-0.9,0.4h-4.7v5.8c0,0.4-0.1,0.7-0.4,0.9s-0.6,0.4-1,0.4
		h-6.8C274.9,231.4,274.6,231.3,274.3,231z M265.7,216.6h8.4v-11.8L265.7,216.6z"/>
	<path d="M292.5,235c-0.2-0.2-0.3-0.5-0.2-0.8l1.6-10.5c0.1-0.5,0.3-0.9,0.6-1.3c0.3-0.4,0.8-0.5,1.4-0.5h6.3c0.3,0,0.5,0.1,0.7,0.3
		s0.3,0.5,0.3,0.7s0,0.4-0.1,0.6l-4.1,10.4c-0.4,1-1,1.5-1.9,1.5h-3.8C293,235.3,292.7,235.2,292.5,235z"/>
	<path d="M47.6,293.8c-0.3-0.3-0.4-0.6-0.4-0.9v-34c0-0.4,0.1-0.7,0.4-1c0.2-0.3,0.6-0.4,0.9-0.4h14.8c4.5,0,8.1,1,10.7,3.1
		s3.9,5.1,3.9,9.1s-1.3,7-3.9,8.9c-2.6,2-6.1,3-10.7,3h-6v11.3c0,0.3-0.1,0.7-0.4,0.9c-0.2,0.3-0.6,0.4-0.9,0.4h-7.5
		C48.2,294.2,47.9,294.1,47.6,293.8z M63.1,274.1c1.4,0,2.6-0.4,3.4-1.1c0.8-0.8,1.2-1.9,1.2-3.3s-0.4-2.5-1.1-3.3
		c-0.8-0.8-1.9-1.3-3.5-1.3h-5.9v9L63.1,274.1L63.1,274.1z"/>
	<path d="M84.7,293.7c-1.5-0.7-2.7-1.7-3.6-3s-1.3-2.6-1.3-4.1c0-2.4,1-4.3,3-5.8s4.7-2.5,8.1-3.1l6.5-1v-0.6c0-1.3-0.3-2.2-0.8-2.8
		s-1.4-0.9-2.7-0.9c-0.7,0-1.3,0.1-1.8,0.4s-1,0.6-1.6,1.1c-0.5,0.4-0.9,0.7-1.2,0.8c-0.1,0.2-0.3,0.4-0.5,0.4h-6.1
		c-0.3,0-0.6-0.1-0.9-0.3c-0.2-0.2-0.3-0.5-0.3-0.8c0-0.9,0.5-2,1.4-3.2s2.3-2.2,4.1-3c1.8-0.8,4.1-1.3,6.9-1.3c4.3,0,7.5,1,9.6,2.9
		s3.1,4.5,3.1,7.7V293c0,0.3-0.1,0.7-0.4,0.9c-0.2,0.3-0.6,0.4-0.9,0.4h-6.4c-0.3,0-0.7-0.1-0.9-0.4s-0.4-0.6-0.4-0.9v-1.8
		c-0.8,1.1-1.8,2-3.2,2.6c-1.4,0.7-3,1-4.9,1C87.9,294.8,86.2,294.4,84.7,293.7z M96.1,287.1c1-1,1.4-2.5,1.4-4.4V282l-4.3,0.7
		c-2.9,0.6-4.4,1.6-4.4,3.1c0,0.8,0.3,1.4,1,1.9s1.5,0.7,2.5,0.7C93.9,288.6,95.2,288.1,96.1,287.1z"/>
	<path d="M118,304.1c-2.1-1.1-3.6-2.3-4.5-3.7c-0.9-1.4-1.4-2.6-1.4-3.5c0-0.3,0.1-0.6,0.4-0.9c0.3-0.2,0.6-0.4,0.9-0.4h7
		c0.3,0,0.6,0.1,0.8,0.2s0.4,0.4,0.6,0.8c0.3,0.8,0.8,1.4,1.4,1.8s1.4,0.7,2.6,0.7c1.5,0,2.6-0.4,3.4-1.1s1.1-2,1.1-3.7v-3.5
		c-1.9,1.9-4.4,2.9-7.6,2.9c-3.5,0-6.2-1-8.1-3.1c-1.9-2-2.9-5.1-3.1-9l-0.1-1.4c0-4.3,1-7.6,2.9-10s4.7-3.6,8.4-3.6
		c1.8,0,3.4,0.3,4.7,1c1.3,0.7,2.5,1.6,3.4,2.7v-1.9c0-0.4,0.1-0.7,0.4-1c0.2-0.3,0.6-0.4,0.9-0.4h6.4c0.4,0,0.7,0.1,1,0.4
		s0.4,0.6,0.4,1v25.1c0,4-1.2,7.1-3.6,9.2c-2.4,2.1-5.8,3.1-10.2,3.1C122.9,305.8,120.1,305.2,118,304.1z M129.1,285.2
		c0.7-0.9,1.2-2.1,1.3-3.5c0-0.2,0.1-0.8,0.1-1.6c0-0.8,0-1.4-0.1-1.6c-0.1-1.4-0.5-2.6-1.3-3.5c-0.7-0.9-1.9-1.3-3.4-1.3
		s-2.7,0.5-3.4,1.4c-0.7,0.9-1.1,2.2-1.2,3.8l-0.1,1.2c0,2,0.3,3.6,1,4.7s1.9,1.7,3.6,1.7C127.3,286.5,128.4,286.1,129.1,285.2z"/>
	<path d="M148.7,291.3c-2.4-2.3-3.7-5.6-3.8-10v-1.6c0.1-4.2,1.4-7.4,3.9-9.7c2.4-2.3,5.7-3.5,9.9-3.5c3,0,5.5,0.6,7.6,1.8
		c2.1,1.2,3.6,2.9,4.7,5c1,2.1,1.5,4.5,1.5,7.2v1.3c0,0.4-0.1,0.7-0.4,1s-0.6,0.4-1,0.4h-16.6v0.3c0,1.6,0.4,2.8,1.1,3.8
		c0.7,1,1.7,1.4,3,1.4c0.8,0,1.5-0.2,2-0.5s1-0.8,1.4-1.3c0.3-0.3,0.6-0.6,0.8-0.7s0.5-0.1,0.9-0.1h6.9c0.3,0,0.6,0.1,0.8,0.3
		c0.2,0.2,0.3,0.4,0.3,0.7c0,0.9-0.5,2-1.5,3.2s-2.5,2.3-4.5,3.1c-2,0.9-4.3,1.3-7,1.3C154.5,294.8,151.2,293.6,148.7,291.3z
		 M162.9,277.8v-0.1c0-1.7-0.4-3-1.1-3.9c-0.7-0.9-1.8-1.4-3.1-1.4s-2.3,0.5-3.1,1.4c-0.7,0.9-1.1,2.2-1.1,3.9v0.1H162.9z"/>
	<path d="M189.2,293.8c-0.3-0.3-0.4-0.6-0.4-0.9v-34c0-0.4,0.1-0.7,0.4-1c0.2-0.3,0.6-0.4,0.9-0.4h5.9c0.8,0,1.4,0.3,1.8,1
		l12.4,19.5v-19c0-0.4,0.1-0.7,0.4-1c0.2-0.3,0.6-0.4,0.9-0.4h6.6c0.4,0,0.7,0.1,0.9,0.4s0.4,0.6,0.4,1v33.9c0,0.4-0.1,0.7-0.4,1
		c-0.2,0.3-0.6,0.4-0.9,0.4h-5.9c-0.8,0-1.4-0.3-1.8-1l-12.3-18.7V293c0,0.4-0.1,0.7-0.4,0.9c-0.3,0.2-0.6,0.4-1,0.4h-6.6
		C189.8,294.2,189.5,294.1,189.2,293.8z"/>
	<path d="M229,291.7c-2.4-2-3.6-4.9-3.8-8.7c0-0.5-0.1-1.2-0.1-2.4s0-1.9,0.1-2.4c0.2-3.7,1.5-6.6,4-8.7c2.4-2.1,5.8-3.1,10-3.1
		c4.3,0,7.6,1,10,3.1s3.7,5,4,8.7c0.1,0.9,0.1,1.7,0.1,2.4s0,1.4-0.1,2.4c-0.2,3.8-1.5,6.7-3.8,8.7s-5.7,3.1-10.1,3.1
		C234.7,294.8,231.3,293.7,229,291.7z M242.3,286.8c0.7-0.9,1.1-2.3,1.2-4.1c0-0.3,0.1-1,0.1-2.1c0-1,0-1.7-0.1-2.1
		c-0.1-1.8-0.5-3.2-1.2-4.1s-1.8-1.4-3.2-1.4s-2.5,0.5-3.2,1.4s-1.1,2.3-1.2,4.1l-0.1,2.1l0.1,2.1c0.1,1.9,0.5,3.2,1.2,4.1
		s1.8,1.3,3.2,1.3C240.5,288.2,241.6,287.7,242.3,286.8z"/>
	<path d="M261.2,283.8v-9.7h-4.1c-0.3,0-0.7-0.1-0.9-0.4c-0.3-0.3-0.4-0.6-0.4-0.9v-4.5c0-0.4,0.1-0.7,0.4-0.9s0.6-0.4,0.9-0.4h4.1
		v-8.6c0-0.4,0.1-0.7,0.4-0.9c0.3-0.2,0.6-0.4,0.9-0.4h6.4c0.4,0,0.7,0.1,0.9,0.4c0.2,0.2,0.4,0.6,0.4,0.9v8.6h6.5
		c0.4,0,0.7,0.1,1,0.4s0.4,0.6,0.4,0.9v4.5c0,0.4-0.1,0.7-0.4,0.9c-0.3,0.2-0.6,0.4-1,0.4h-6.5v8.9c0,1.2,0.2,2.1,0.7,2.8
		c0.5,0.6,1.2,0.9,2.2,0.9h4.1c0.4,0,0.7,0.1,0.9,0.4c0.2,0.3,0.4,0.6,0.4,1v4.8c0,0.3-0.1,0.7-0.4,0.9s-0.6,0.4-0.9,0.4h-5
		C264.9,294.2,261.2,290.8,261.2,283.8z"/>
	<path d="M294.8,293.8c-0.3-0.3-0.4-0.6-0.4-0.9v-34c0-0.4,0.1-0.7,0.4-1c0.2-0.3,0.6-0.4,0.9-0.4H320c0.4,0,0.7,0.1,1,0.4
		s0.4,0.6,0.4,1v5.5c0,0.4-0.1,0.7-0.4,0.9s-0.6,0.4-1,0.4h-16v7.3h15c0.4,0,0.7,0.1,1,0.4s0.4,0.6,0.4,1v5.5c0,0.4-0.1,0.7-0.4,0.9
		c-0.3,0.2-0.6,0.4-1,0.4h-15v11.6c0,0.3-0.1,0.7-0.4,0.9c-0.2,0.3-0.6,0.4-0.9,0.4h-7C295.4,294.2,295.1,294.1,294.8,293.8z"/>
	<path d="M328.8,291.7c-2.4-2-3.6-4.9-3.8-8.7c0-0.5-0.1-1.2-0.1-2.4s0-1.9,0.1-2.4c0.2-3.7,1.5-6.6,4-8.7c2.4-2.1,5.8-3.1,10-3.1
		s7.6,1,10,3.1s3.7,5,4,8.7c0.1,0.9,0.1,1.7,0.1,2.4s0,1.4-0.1,2.4c-0.2,3.8-1.5,6.7-3.8,8.7c-2.4,2-5.7,3.1-10.1,3.1
		C334.6,294.8,331.2,293.7,328.8,291.7z M342.2,286.8c0.7-0.9,1.1-2.3,1.2-4.1c0-0.3,0.1-1,0.1-2.1c0-1,0-1.7-0.1-2.1
		c-0.1-1.8-0.5-3.2-1.2-4.1s-1.8-1.4-3.2-1.4s-2.5,0.5-3.2,1.4s-1.1,2.3-1.2,4.1l-0.1,2.1l0.1,2.1c0.1,1.9,0.5,3.2,1.2,4.1
		s1.8,1.3,3.2,1.3S341.5,287.7,342.2,286.8z"/>
	<path d="M360.6,291.7c-1.9-2.1-2.8-5-2.8-8.7v-14.6c0-0.4,0.1-0.7,0.4-0.9s0.6-0.4,0.9-0.4h7c0.4,0,0.7,0.1,1,0.4s0.4,0.6,0.4,0.9
		v14.3c0,3.2,1.4,4.9,4.3,4.9c1.4,0,2.5-0.4,3.3-1.3s1.2-2,1.2-3.6v-14.3c0-0.4,0.1-0.7,0.4-0.9s0.6-0.4,1-0.4h6.9
		c0.4,0,0.7,0.1,0.9,0.4c0.2,0.2,0.4,0.6,0.4,0.9V293c0,0.3-0.1,0.7-0.4,0.9c-0.2,0.3-0.6,0.4-0.9,0.4h-6.4c-0.4,0-0.7-0.1-1-0.4
		s-0.4-0.6-0.4-0.9v-2c-1.8,2.5-4.7,3.8-8.7,3.8C365,294.8,362.5,293.7,360.6,291.7z"/>
	<path d="M392.1,293.8c-0.3-0.3-0.4-0.6-0.4-0.9v-24.6c0-0.4,0.1-0.7,0.4-0.9s0.6-0.4,0.9-0.4h6.4c0.4,0,0.7,0.1,0.9,0.4
		c0.2,0.2,0.4,0.6,0.4,0.9v2c0.9-1.2,2.2-2.1,3.6-2.8c1.5-0.7,3.2-1,5.1-1c2,0,3.8,0.5,5.3,1.4c1.6,0.9,2.8,2.3,3.7,4
		s1.3,3.9,1.3,6.4v14.6c0,0.3-0.1,0.7-0.4,0.9c-0.2,0.3-0.6,0.4-0.9,0.4h-7c-0.4,0-0.7-0.1-1-0.4s-0.4-0.6-0.4-0.9v-14.3
		c0-1.6-0.4-2.8-1.1-3.6c-0.8-0.8-1.8-1.3-3.3-1.3c-1.4,0-2.5,0.4-3.3,1.3s-1.2,2.1-1.2,3.6v14.3c0,0.3-0.1,0.7-0.4,0.9
		c-0.2,0.3-0.6,0.4-0.9,0.4h-7C392.7,294.2,392.4,294.1,392.1,293.8z"/>
	<path d="M427.8,291.6c-1.9-2.1-3-5.2-3.1-9.1l-0.1-1.8l0.1-1.9c0.1-3.8,1.2-6.8,3.1-9c2-2.2,4.6-3.3,8-3.3c3.1,0,5.7,1,7.6,3v-11.2
		c0-0.4,0.1-0.7,0.4-0.9c0.3-0.2,0.6-0.4,0.9-0.4h6.8c0.4,0,0.7,0.1,1,0.4c0.3,0.2,0.4,0.6,0.4,0.9v34.6c0,0.4-0.1,0.7-0.4,0.9
		s-0.6,0.4-1,0.4h-6.2c-0.3,0-0.7-0.1-0.9-0.4s-0.4-0.6-0.4-0.9v-1.6c-1.9,2.3-4.6,3.5-8.1,3.5C432.4,294.8,429.7,293.7,427.8,291.6
		z M442.2,286c0.7-1,1.1-2.2,1.2-3.6c0.1-1,0.1-1.6,0.1-2s0-1-0.1-1.9c-0.1-1.4-0.5-2.5-1.2-3.4c-0.8-0.9-1.9-1.3-3.3-1.3
		c-1.6,0-2.7,0.5-3.4,1.4c-0.7,0.9-1.1,2.2-1.2,3.8l-0.1,1.6l0.1,1.6c0.1,1.6,0.5,2.9,1.2,3.8s1.8,1.4,3.4,1.4
		C440.3,287.5,441.4,287,442.2,286z"/>
</g>
</svg>
