<?xml version="1.0" encoding="utf-8"?>
<!-- Generator: Adobe Illustrator 24.2.0, SVG Export Plug-In . SVG Version: 6.00 Build 0)  -->
<svg version="1.1" id="Layer_1" xmlns="http://www.w3.org/2000/svg" xmlns:xlink="http://www.w3.org/1999/xlink" x="0px" y="0px"
	 viewBox="0 0 512 512" style="enable-background:new 0 0 512 512;" xml:space="preserve">
<style type="text/css">
	.st0{opacity:0.9;}
	.st1{opacity:0.3;fill:#DFE9EF;enable-background:new    ;}
	.st2{opacity:0.3;fill:#CC9FA6;enable-background:new    ;}
	.st3{fill:#FF0043;}
</style>
<g class="st0">
	<path class="st1" d="M256,94.7c-89.1,0-161.3,72.2-161.3,161.3S166.9,417.3,256,417.3S417.3,345.1,417.3,256S345.1,94.7,256,94.7
		L256,94.7z M256,395.3c-77,0-139.3-62.4-139.3-139.3S179,116.7,256,116.7S395.3,179,395.3,256S333,395.3,256,395.3L256,395.3z"/>
	<path class="st1" d="M256,162.7c-51.5,0-93.3,41.8-93.3,93.3s41.8,93.3,93.3,93.3s93.3-41.8,93.3-93.3S307.5,162.7,256,162.7
		L256,162.7z M256,323c-37,0-67-30-67-67s30-67,67-67s67,30,67,67S293,323,256,323z"/>
	<path class="st2" d="M256,111.7c-79.6,0-144.3,64.7-144.3,144.3S176.4,400.3,256,400.3S400.3,335.6,400.3,256
		S335.6,111.7,256,111.7L256,111.7z M256,390.3c-74.1,0-134.3-60.3-134.3-134.3S181.9,121.7,256,121.7S390.3,181.9,390.3,256
		S330.1,390.3,256,390.3z"/>
	<path class="st2" d="M256,184c-39.7,0-72,32.3-72,72s32.3,72,72,72s72-32.3,72-72S295.7,184,256,184L256,184z M256,318
		c-34.2,0-62-27.8-62-62s27.8-62,62-62s62,27.8,62,62S290.2,318,256,318z"/>
</g>
<g>
	<path class="st3" d="M121.4,240.4h4.6l7.6,20.5h-4.7l-1.6-4.7H120l-1.6,4.7h-4.7L121.4,240.4z M121,252.9h5.2l-0.9-2.7
		c-0.3-0.8-0.6-1.7-0.8-2.6s-0.5-1.7-0.7-2.6h-0.1c-0.2,0.8-0.5,1.7-0.8,2.5s-0.6,1.7-0.9,2.6L121,252.9z"/>
	<path class="st3" d="M145.7,257.8c1,0,1.8-0.1,2.5-0.3c0.7-0.2,1.3-0.4,1.8-0.7l0.9,3.3c-0.5,0.3-1.3,0.6-2.2,0.8
		c-1,0.2-2.1,0.4-3.5,0.4c-1.5,0-3-0.2-4.3-0.7s-2.4-1.2-3.4-2.1c-0.9-0.9-1.7-2-2.2-3.4c-0.5-1.3-0.8-2.8-0.8-4.4
		c0-1.6,0.3-3.1,0.8-4.4c0.5-1.3,1.2-2.4,2.2-3.3c0.9-0.9,2-1.6,3.4-2.1c1.3-0.5,2.8-0.7,4.4-0.7c1.4,0,2.5,0.1,3.4,0.4
		c0.9,0.3,1.6,0.5,2.2,0.8l-1,3.3c-0.6-0.3-1.2-0.6-1.9-0.8s-1.5-0.3-2.3-0.3c-0.9,0-1.7,0.1-2.5,0.4c-0.8,0.3-1.5,0.7-2.1,1.3
		s-1,1.3-1.4,2.2c-0.3,0.9-0.5,2-0.5,3.3c0,1.2,0.2,2.3,0.5,3.2s0.8,1.6,1.4,2.2c0.6,0.6,1.2,1,2,1.3
		C144,257.6,144.8,257.8,145.7,257.8z"/>
	<path class="st3" d="M163.3,257.8c1,0,1.8-0.1,2.5-0.3c0.7-0.2,1.3-0.4,1.8-0.7l0.9,3.3c-0.5,0.3-1.3,0.6-2.2,0.8
		c-1,0.2-2.1,0.4-3.5,0.4c-1.5,0-3-0.2-4.3-0.7s-2.4-1.2-3.4-2.1c-0.9-0.9-1.7-2-2.2-3.4c-0.5-1.3-0.8-2.8-0.8-4.4
		c0-1.6,0.3-3.1,0.8-4.4c0.5-1.3,1.2-2.4,2.2-3.3c0.9-0.9,2-1.6,3.4-2.1c1.3-0.5,2.8-0.7,4.4-0.7c1.4,0,2.5,0.1,3.4,0.4
		c0.9,0.3,1.6,0.5,2.2,0.8l-1,3.3c-0.6-0.3-1.2-0.6-1.9-0.8s-1.5-0.3-2.3-0.3c-0.9,0-1.7,0.1-2.5,0.4c-0.8,0.3-1.5,0.7-2.1,1.3
		s-1,1.3-1.4,2.2c-0.3,0.9-0.5,2-0.5,3.3c0,1.2,0.2,2.3,0.5,3.2s0.8,1.6,1.4,2.2c0.6,0.6,1.2,1,2,1.3
		C161.6,257.6,162.4,257.8,163.3,257.8z"/>
	<path class="st3" d="M171.7,240.4h13.4v3.5h-8.9v4.7h8v3.4h-8v5.5h9v3.5h-13.5V240.4z"/>
	<path class="st3" d="M195.2,240c1.3,0,2.5,0.1,3.5,0.4c1,0.3,1.9,0.6,2.7,1l-1,3.3c-0.9-0.4-1.7-0.8-2.6-1
		c-0.8-0.2-1.6-0.3-2.4-0.3c-1,0-1.9,0.2-2.4,0.6c-0.6,0.4-0.9,1-0.9,1.7s0.2,1.3,0.7,1.6c0.5,0.4,1.3,0.7,2.4,1.1l2,0.6
		c1.6,0.5,2.9,1.3,3.8,2.3c0.9,1,1.4,2.2,1.4,3.7c0,0.9-0.2,1.7-0.5,2.4c-0.3,0.8-0.8,1.4-1.5,2s-1.5,1-2.4,1.3
		c-1,0.3-2.1,0.5-3.4,0.5c-2.5,0-4.7-0.5-6.7-1.5l1-3.3c0.9,0.5,1.8,0.8,2.7,1.1c0.9,0.2,1.8,0.4,2.8,0.4c1.2,0,2-0.2,2.6-0.6
		s0.9-1,0.9-1.8c0-0.3,0-0.5-0.1-0.8s-0.3-0.5-0.5-0.7c-0.3-0.2-0.6-0.5-1.1-0.7c-0.4-0.2-1-0.5-1.7-0.7l-1.7-0.6
		c-0.8-0.3-1.5-0.6-2.1-0.9c-0.6-0.3-1.2-0.7-1.6-1.2c-0.4-0.5-0.8-1-1-1.6s-0.4-1.3-0.4-2.2s0.2-1.7,0.5-2.5s0.8-1.4,1.5-1.9
		c0.6-0.5,1.4-1,2.4-1.3C192.9,240.2,194,240,195.2,240z"/>
	<path class="st3" d="M212.2,240c1.3,0,2.5,0.1,3.5,0.4c1,0.3,1.9,0.6,2.7,1l-1,3.3c-0.9-0.4-1.7-0.8-2.6-1
		c-0.8-0.2-1.6-0.3-2.4-0.3c-1,0-1.9,0.2-2.4,0.6c-0.6,0.4-0.9,1-0.9,1.7s0.2,1.3,0.7,1.6c0.5,0.4,1.3,0.7,2.4,1.1l2,0.6
		c1.6,0.5,2.9,1.3,3.8,2.3c0.9,1,1.4,2.2,1.4,3.7c0,0.9-0.2,1.7-0.5,2.4c-0.3,0.8-0.8,1.4-1.5,2s-1.5,1-2.4,1.3
		c-1,0.3-2.1,0.5-3.4,0.5c-2.5,0-4.7-0.5-6.7-1.5l1-3.3c0.9,0.5,1.8,0.8,2.7,1.1c0.9,0.2,1.8,0.4,2.8,0.4c1.2,0,2-0.2,2.6-0.6
		s0.9-1,0.9-1.8c0-0.3,0-0.5-0.1-0.8s-0.3-0.5-0.5-0.7c-0.3-0.2-0.6-0.5-1.1-0.7c-0.4-0.2-1-0.5-1.7-0.7l-1.7-0.6
		c-0.8-0.3-1.5-0.6-2.1-0.9c-0.6-0.3-1.2-0.7-1.6-1.2c-0.4-0.5-0.8-1-1-1.6s-0.4-1.3-0.4-2.2s0.2-1.7,0.5-2.5s0.8-1.4,1.5-1.9
		c0.6-0.5,1.4-1,2.4-1.3C209.9,240.2,211,240,212.2,240z"/>
	<path class="st3" d="M230.5,240.4h7.8c1.2,0,2.2,0.2,3,0.5c0.9,0.3,1.6,0.8,2.2,1.4c0.6,0.6,1,1.2,1.3,2s0.4,1.6,0.4,2.5
		c0,0.8-0.1,1.6-0.4,2.2c-0.2,0.6-0.6,1.2-0.9,1.7c-0.4,0.5-0.8,0.9-1.3,1.2s-0.9,0.6-1.4,0.8l5,8.3h-5.1l-3.9-7.6H235v7.6h-4.4
		v-20.6H230.5z M235,249.9h1.8c1.2,0,2.1-0.2,2.9-0.7c0.7-0.5,1.1-1.3,1.1-2.4c0-1-0.3-1.7-0.9-2.3c-0.6-0.5-1.5-0.8-2.6-0.8H235
		V249.9z"/>
	<path class="st3" d="M249.1,240.4h13.4v3.5h-8.9v4.7h8v3.4h-8v5.5h9v3.5h-13.5V240.4z"/>
	<path class="st3" d="M272.6,240c1.3,0,2.5,0.1,3.5,0.4s1.9,0.6,2.7,1l-1,3.3c-0.9-0.4-1.7-0.8-2.6-1c-0.8-0.2-1.6-0.3-2.4-0.3
		c-1,0-1.9,0.2-2.4,0.6c-0.6,0.4-0.9,1-0.9,1.7s0.2,1.3,0.7,1.6c0.5,0.4,1.3,0.7,2.4,1.1l2,0.6c1.6,0.5,2.9,1.3,3.8,2.3
		s1.4,2.2,1.4,3.7c0,0.9-0.2,1.7-0.5,2.4s-0.8,1.4-1.5,2s-1.5,1-2.4,1.3c-1,0.3-2.1,0.5-3.4,0.5c-2.5,0-4.7-0.5-6.7-1.5l1-3.3
		c0.9,0.5,1.8,0.8,2.7,1.1s1.8,0.4,2.8,0.4c1.2,0,2-0.2,2.6-0.6s0.9-1,0.9-1.8c0-0.3,0-0.5-0.1-0.8s-0.3-0.5-0.5-0.7
		c-0.3-0.2-0.6-0.5-1.1-0.7c-0.4-0.2-1-0.5-1.7-0.7l-1.7-0.6c-0.8-0.3-1.5-0.6-2.1-0.9c-0.6-0.3-1.2-0.7-1.6-1.2s-0.8-1-1-1.6
		s-0.4-1.3-0.4-2.2s0.2-1.7,0.5-2.5s0.8-1.4,1.5-1.9c0.6-0.5,1.4-1,2.4-1.3C270.3,240.2,271.4,240,272.6,240z"/>
	<path class="st3" d="M297.5,240.4v3.5h-5.8v17h-4.5v-17h-5.7v-3.5H297.5z"/>
	<path class="st3" d="M300,240.4h7.8c1.2,0,2.2,0.2,3,0.5c0.9,0.3,1.6,0.8,2.2,1.4c0.6,0.6,1,1.2,1.3,2s0.4,1.6,0.4,2.5
		c0,0.8-0.1,1.6-0.4,2.2c-0.2,0.6-0.6,1.2-0.9,1.7c-0.4,0.5-0.8,0.9-1.3,1.2s-0.9,0.6-1.4,0.8l5,8.3h-5.1l-3.9-7.6h-2.4v7.6H300
		V240.4z M304.4,249.9h1.8c1.2,0,2.1-0.2,2.9-0.7s1.1-1.3,1.1-2.4c0-1-0.3-1.7-0.9-2.3s-1.5-0.8-2.6-0.8h-2.2L304.4,249.9
		L304.4,249.9z"/>
	<path class="st3" d="M323.1,240.4v20.5h-4.5v-20.5H323.1z"/>
	<path class="st3" d="M337.8,257.8c1,0,1.8-0.1,2.5-0.3c0.7-0.2,1.3-0.4,1.8-0.7l0.9,3.3c-0.5,0.3-1.3,0.6-2.2,0.8s-2.1,0.4-3.5,0.4
		c-1.5,0-3-0.2-4.3-0.7s-2.4-1.2-3.4-2.1c-0.9-0.9-1.7-2-2.2-3.4s-0.8-2.8-0.8-4.4c0-1.6,0.3-3.1,0.8-4.4s1.2-2.4,2.2-3.3
		c0.9-0.9,2-1.6,3.4-2.1c1.3-0.5,2.8-0.7,4.4-0.7c1.4,0,2.5,0.1,3.4,0.4s1.6,0.5,2.2,0.8l-1,3.3c-0.6-0.3-1.2-0.6-1.9-0.8
		c-0.7-0.2-1.5-0.3-2.3-0.3c-0.9,0-1.7,0.1-2.5,0.4s-1.5,0.7-2.1,1.3s-1,1.3-1.4,2.2s-0.5,2-0.5,3.3c0,1.2,0.2,2.3,0.5,3.2
		s0.8,1.6,1.4,2.2s1.2,1,2,1.3C336,257.6,336.9,257.8,337.8,257.8z"/>
	<path class="st3" d="M360.2,240.4v3.5h-5.8v17h-4.5v-17h-5.7v-3.5H360.2z"/>
	<path class="st3" d="M362.7,240.4h13.4v3.5h-8.9v4.7h8v3.4h-8v5.5h9v3.5h-13.5V240.4z"/>
	<path class="st3" d="M386.8,240.4c1.6,0,3,0.2,4.3,0.6c1.3,0.4,2.4,1,3.4,1.9c0.9,0.8,1.7,1.9,2.2,3.1c0.5,1.2,0.8,2.7,0.8,4.3
		c0,1.9-0.3,3.5-0.9,4.8c-0.6,1.3-1.4,2.4-2.5,3.3s-2.3,1.5-3.7,1.9c-1.4,0.4-2.9,0.6-4.4,0.6h-6.3v-20.5H386.8z M384.1,257.4h1.5
		c0.9,0,1.8-0.1,2.7-0.3c0.9-0.2,1.6-0.6,2.3-1.2c0.7-0.6,1.2-1.3,1.6-2.2s0.6-2.1,0.6-3.5c0-2.1-0.6-3.6-1.8-4.7
		c-1.2-1.1-2.7-1.6-4.7-1.6h-2.1v13.5H384.1z"/>
</g>
</svg>
