<?xml version="1.0" encoding="utf-8"?>
<!-- Generator: Adobe Illustrator 24.2.0, SVG Export Plug-In . SVG Version: 6.00 Build 0)  -->
<svg version="1.1" id="Layer_1" xmlns="http://www.w3.org/2000/svg" xmlns:xlink="http://www.w3.org/1999/xlink" x="0px" y="0px"
	 viewBox="0 0 322.6 322.6" style="enable-background:new 0 0 322.6 322.6;" xml:space="preserve">
<style type="text/css">
	.st0{opacity:0.2;fill:#D1D1D1;}
	.st1{opacity:0.2;fill:#6D6D6D;}
	.st2{opacity:0.8;}
	.st3{fill:#6D6D6D;}
</style>
<path class="st0" d="M161.3,0C72.2,0,0,72.2,0,161.3s72.2,161.3,161.3,161.3s161.3-72.2,161.3-161.3S250.4,0,161.3,0L161.3,0z
	 M161.3,300.6c-77,0-139.3-62.4-139.3-139.3S84.3,22,161.3,22s139.3,62.3,139.3,139.3S238.3,300.6,161.3,300.6L161.3,300.6z"/>
<path class="st1" d="M161.3,34.8c-69.7,0-126.5,56.7-126.5,126.5s56.8,126.5,126.5,126.5S287.8,231,287.8,161.3S231,34.8,161.3,34.8
	L161.3,34.8z M161.3,279c-64.9,0-117.7-52.8-117.7-117.7S96.4,43.6,161.3,43.6S279,96.4,279,161.3S226.2,279,161.3,279z"/>
<g class="st2">
	<path class="st3" d="M99.8,141.6c0.2,0,0.4,0.1,0.5,0.2c0.1,0.1,0.1,0.3,0.1,0.6v37.2c0,0.5-0.3,0.8-0.9,0.8h-4.3
		c-0.3,0-0.5,0-0.7-0.1s-0.4-0.2-0.6-0.5l-17.8-25.4c-0.1-0.2-0.3-0.3-0.4-0.3s-0.2,0.1-0.2,0.3v25v0.2c0,0.5-0.3,0.7-0.9,0.7H70
		c-0.6,0-0.9-0.3-0.9-0.8v-37c0-0.6,0.3-0.9,0.8-0.9h5.2c0.3,0,0.6,0,0.8,0.1s0.4,0.3,0.6,0.5l16.8,24.2c0.1,0.2,0.3,0.4,0.5,0.4
		s0.3-0.2,0.3-0.5v-23.9c0-0.6,0.3-0.8,0.8-0.8H99.8L99.8,141.6z"/>
	<path class="st3" d="M112.9,179c-2.1-1.2-3.7-2.9-4.8-5c-1.1-2.2-1.7-4.6-1.7-7.4s0.6-5.3,1.8-7.5s2.8-3.9,4.9-5.1
		c2.1-1.2,4.5-1.8,7.1-1.8c2.7,0,5.1,0.6,7.1,1.9c2.1,1.2,3.7,2.9,4.8,5.1c1.2,2.2,1.7,4.7,1.7,7.5c0,2.7-0.6,5.2-1.7,7.4
		c-1.2,2.2-2.8,3.8-4.9,5.1c-2.1,1.2-4.5,1.8-7.1,1.8C117.4,180.8,115,180.2,112.9,179z M125.2,173.7c1.2-1.7,1.7-4.1,1.7-7.2
		c0-3.2-0.6-5.6-1.8-7.3s-2.9-2.6-5.1-2.6s-3.9,0.9-5.1,2.6c-1.2,1.7-1.8,4.1-1.8,7.3c0,3.1,0.6,5.5,1.8,7.2s2.9,2.5,5.1,2.5
		C122.4,176.2,124.1,175.4,125.2,173.7z"/>
	<path class="st3" d="M168.3,179.4v-1.7c0-0.3-0.1-0.5-0.3-0.5c-0.1,0-0.2,0.1-0.4,0.3c-1,1-2.1,1.8-3.4,2.4c-1.2,0.6-2.7,1-4.5,1
		c-2.2,0-4.1-0.5-5.7-1.6c-1.7-1.1-3-2.6-3.9-4.7c-1-2.1-1.4-4.7-1.4-7.7c0-2.8,0.5-5.4,1.5-7.6s2.4-3.9,4.2-5.2
		c1.8-1.2,3.8-1.8,5.9-1.8c1.5,0,2.7,0.2,3.8,0.7s2.1,1.2,3.2,2.1c0.2,0.2,0.4,0.3,0.6,0.3s0.3-0.2,0.3-0.7v-12
		c0-0.6,0.2-0.8,0.7-0.8h5.3c0.5,0,0.8,0.3,0.8,0.9v36.5c0,0.3-0.1,0.6-0.2,0.8c-0.2,0.2-0.4,0.2-0.9,0.2h-4.6
		C168.6,180.3,168.3,180,168.3,179.4z M165.4,157.3c-0.9-0.5-1.9-0.7-3-0.7c-2.1,0-3.8,0.8-5,2.5c-1.3,1.7-1.9,4.2-1.9,7.5
		s0.6,5.8,1.9,7.4c1.2,1.6,2.9,2.4,4.9,2.4c1.1,0,2.1-0.3,3-0.8s1.6-1.2,2.1-2s0.8-1.6,0.8-2.5v-11.8
		C167.2,158.5,166.3,157.8,165.4,157.3z"/>
	<path class="st3" d="M188.5,180.8c-2.6,0-4.7-0.7-6.3-2.1c-1.5-1.4-2.3-3.2-2.3-5.5c0-2.9,1.3-5.2,3.9-6.9
		c2.6-1.7,6.2-2.6,10.8-2.8l2.6-0.2c0.6-0.1,0.8-0.3,0.8-0.8v-1.2c0-1.5-0.5-2.7-1.4-3.6s-2.2-1.3-3.8-1.3c-2.6,0-4.7,1.1-6.1,3.4
		c-0.1,0.1-0.2,0.3-0.3,0.3c-0.1,0.1-0.2,0.1-0.3,0.1c-0.2,0-0.3,0-0.4-0.1l-4.4-0.8c-0.3-0.1-0.4-0.2-0.4-0.5
		c0-0.2,0.1-0.4,0.2-0.7c0.9-1.9,2.4-3.4,4.5-4.5s4.6-1.5,7.6-1.5c3.9,0,6.8,0.8,8.6,2.3s2.7,3.7,2.7,6.5v18.4
		c0,0.4-0.1,0.7-0.2,0.8c-0.1,0.2-0.4,0.2-0.7,0.2h-4.4c-0.3,0-0.5-0.1-0.7-0.3c-0.1-0.2-0.2-0.5-0.3-0.9l-0.1-1.6
		c0-0.3-0.2-0.5-0.4-0.5c-0.1,0-0.3,0.1-0.7,0.4C194.6,179.7,191.7,180.8,188.5,180.8z M197.8,167c-0.1-0.1-0.3-0.2-0.6-0.2
		l-2.1,0.2c-2.4,0.2-4.5,0.7-6.1,1.6s-2.4,2.2-2.4,3.8c0,1.2,0.4,2.1,1.3,2.8c0.8,0.7,2,1,3.4,1c1.8,0,3.4-0.6,4.8-1.7
		c1.3-1,2-2.1,2-3.2v-3.7C198,167.4,197.9,167.2,197.8,167z"/>
	<path class="st3" d="M220.8,157.4c-0.3,0-0.5,0.2-0.5,0.6v13.9c0,1.3,0.3,2.2,0.8,2.8s1.4,0.8,2.6,0.8h3.1c0.2,0,0.4,0.1,0.5,0.2
		s0.2,0.3,0.2,0.5l-0.1,2.7c0,0.6-0.3,0.9-1,1c-1.2,0.2-3.2,0.3-5.7,0.3c-2.4,0-4.2-0.5-5.4-1.6s-1.9-2.8-1.9-5V158
		c0-0.4-0.2-0.7-0.6-0.7h-3.5c-0.6,0-0.8-0.3-0.8-0.8v-3.2c0-0.4,0.3-0.7,0.8-0.7h3.9c0.3,0,0.5-0.2,0.5-0.5l0.7-8
		c0-0.3,0.1-0.5,0.2-0.6s0.3-0.2,0.5-0.2h4.6c0.2,0,0.4,0.1,0.5,0.2c0.1,0.2,0.2,0.4,0.2,0.6v8c0,0.3,0.2,0.5,0.5,0.5h5.9
		c0.5,0,0.8,0.2,0.8,0.7v3.3c0,0.5-0.3,0.8-0.9,0.8L220.8,157.4L220.8,157.4z"/>
	<path class="st3" d="M239.3,180.8c-2.6,0-4.7-0.7-6.3-2.1c-1.5-1.4-2.3-3.2-2.3-5.5c0-2.9,1.3-5.2,3.9-6.9
		c2.6-1.7,6.2-2.6,10.8-2.8l2.6-0.2c0.6-0.1,0.8-0.3,0.8-0.8v-1.2c0-1.5-0.5-2.7-1.4-3.6s-2.2-1.3-3.8-1.3c-2.6,0-4.7,1.1-6.1,3.4
		c-0.1,0.1-0.2,0.3-0.3,0.3c-0.1,0.1-0.2,0.1-0.3,0.1c-0.2,0-0.3,0-0.4-0.1l-4.4-1.1c-0.3-0.1-0.4-0.2-0.4-0.5
		c0-0.2,0.1-0.4,0.2-0.7c0.9-1.9,2.4-3.4,4.5-4.5s4.6-1.5,7.6-1.5c3.9,0,6.8,0.8,8.6,2.3s2.7,3.7,2.7,6.5v18.7
		c0,0.4-0.1,0.7-0.2,0.8c-0.1,0.2-0.4,0.2-0.7,0.2H250c-0.3,0-0.5-0.1-0.7-0.3c-0.1-0.2-0.2-0.5-0.3-0.9l-0.1-1.6
		c0-0.3-0.2-0.5-0.4-0.5c-0.1,0-0.3,0.1-0.7,0.4C245.5,179.7,242.6,180.8,239.3,180.8z M248.6,167c-0.1-0.1-0.3-0.2-0.6-0.2
		l-2.1,0.2c-2.4,0.2-4.5,0.7-6.1,1.6s-2.4,2.2-2.4,3.8c0,1.2,0.4,2.1,1.3,2.8c0.8,0.7,2,1,3.4,1c1.8,0,3.4-0.6,4.7-1.7
		c1.3-1,2-2.1,2-3.2v-3.7C248.8,167.4,248.8,167.2,248.6,167z"/>
</g>
</svg>
