<?xml version="1.0" encoding="utf-8"?>
<!-- Generator: Adobe Illustrator 24.2.0, SVG Export Plug-In . SVG Version: 6.00 Build 0)  -->
<svg version="1.1" id="Capa_1" xmlns="http://www.w3.org/2000/svg" xmlns:xlink="http://www.w3.org/1999/xlink" x="0px" y="0px"
	 viewBox="0 0 512 512" style="enable-background:new 0 0 512 512;" xml:space="preserve">
<style type="text/css">
	.st0{fill:none;stroke:#3b4b5d;stroke-width:20;stroke-miterlimit:10;}
</style>
<g>
	<path class="st0" d="M327.2,203.4c-39.6-47.9-100.9-42-132.8-10.3c-33.9,33.7-35.3,86.1-4.1,121.7c27.1,30.9,91.9,47.5,137.2-6.4
		c6.2,6.6,12.5,12.9,18.2,19.7c0.9,1.1-0.1,5-1.4,6.5c-17.9,20.2-40.3,32.6-66.7,37.5c-4.9,0.9-6.5,2.5-6.2,7.3
		c0.4,6.3,0.5,12.6,0,18.8c-0.5,5.9,1.3,9,7,11.7c18.7,8.7,30.2,29.5,28,48.8c-2.6,22.6-17.9,40.1-39.4,44.9
		c-24.4,5.5-49.4-8-58.1-31.3c-8.9-24,0.8-50.5,23.6-61.8c6.5-3.2,8.9-6.7,8.2-13.7c-0.6-6.2-0.2-12.5-0.1-18.8
		c0.1-3.5-1.2-5-4.8-5.7c-50.9-10.1-86.5-45.3-96.4-95.5c-0.8-4.2-2.4-5.7-6.5-5.6c-7.2,0.3-14.4,0.4-21.5,0c-4.7-0.3-7,1.4-9,5.7
		c-16.2,34.4-61.5,39.7-85.2,10.1c-17.1-21.2-13.7-52.2,7.6-69.9c20.4-17,51.9-14.7,69.2,5.2c3.3,3.8,6.3,8.3,8.4,12.9
		c1.9,4,3.9,5.8,8.5,5.5c7.4-0.4,14.8-0.2,22.2-0.1c3.7,0.1,5.4-1.1,6.3-5.1c11.5-52.8,43.9-84.7,96.6-96.3c1.8-0.4,4.3-3.2,4.4-5
		c0.5-8.3,0.7-16.6-0.1-24.9c-0.2-2.4-3.3-5.4-5.8-6.7c-26-12.9-36.3-42.4-23.4-68.4c9.4-19.1,30.5-29.8,52.8-26.8
		c21.3,2.8,38.3,20.3,42.1,43.1c3.2,19.5-7.6,41.7-26,50.4c-7.3,3.4-9.2,7.6-8.6,14.8c0.5,5.6,0.3,11.2,0,16.8c-0.2,4.3,1,6.1,5.7,7
		c26.4,4.8,48.8,17.2,67.1,37c3.4,3.7,3.3,5.9-0.3,9.3C338.2,191.4,333,197.3,327.2,203.4z M275.6,57.6c0.1-10.8-8.5-19.9-19.2-20.2
		c-10.4-0.3-19.8,8.8-19.9,19.5c-0.1,10.9,8.4,19.8,19.2,20.1C266.3,77.3,275.5,68.4,275.6,57.6z M56.8,275.4
		c10.9,0,19.8-8.9,19.7-19.6c-0.1-10.6-9.2-19.5-20-19.4c-10.7,0.1-19.9,9.2-19.8,19.7C36.7,266.6,46,275.5,56.8,275.4z
		 M275.6,454.9c0-10.8-8.6-19.8-19.4-20.1c-10.6-0.2-19.7,8.7-19.8,19.6c-0.1,10.7,8.7,19.9,19.3,20.1
		C266,474.8,275.6,465.3,275.6,454.9z"/>
	<path class="st0" d="M354.9,271.3c-14.6,0-29.2,0.2-43.7-0.1c-4.9-0.1-7.5,1.2-9.7,5.9c-12.4,26.6-43.4,36.8-69.4,23.2
		c-25.2-13.2-34.3-45.2-19.3-70.1c9.9-16.5,25.3-24.8,44.4-24.3c19.4,0.5,34.4,9.7,43.3,27.2c3,5.9,6,7.9,12.6,7.8
		c28.9-0.4,57.9-0.3,86.8,0c5.2,0.1,7.8-1.3,10.1-6.2c8.8-18.9,28.9-30.5,48.4-28.8c22.5,2,39.5,15.9,45.5,36.9
		c6.8,24.2-5.8,50.2-29.1,59.7c-24.1,9.8-52.2,0.3-63.4-22.6c-3.5-7.2-7.5-8.9-14.8-8.7C382.7,271.7,368.8,271.3,354.9,271.3z
		 M455.1,275.4c10.8,0.1,20.1-8.7,20.3-19.2c0.2-10.4-9.1-19.7-19.7-19.8c-10.8-0.1-19.9,8.6-20.2,19.3
		C435.3,266.3,444.2,275.3,455.1,275.4z M275.6,256c0-11.1-8.4-19.6-19.5-19.6s-19.6,8.4-19.6,19.4c0,11.1,8.3,19.5,19.5,19.5
		C267.1,275.5,275.5,267.1,275.6,256z"/>
</g>
</svg>
