<?xml version="1.0" encoding="utf-8"?>
<!-- Generator: Adobe Illustrator 24.2.0, SVG Export Plug-In . SVG Version: 6.00 Build 0)  -->
<svg version="1.1" xmlns="http://www.w3.org/2000/svg" xmlns:xlink="http://www.w3.org/1999/xlink" x="0px" y="0px"
	 viewBox="0 0 512 512" style="enable-background:new 0 0 512 512;" xml:space="preserve">
<style type="text/css">
	.st0{fill:#FFFFFF;}
	.st1{fill:#3b4b5d;}
</style>
<g id="Layer_2">
	<g>
		<g>
			<path class="st0" d="M512,163.6c0-4-1.6-7.9-4.4-10.7L379.3,25.6c-5.9-5.8-15.3-5.8-21.2,0l-37.3,37.3c-21.8-2.1-44,0.2-64.8,6.7
				c-20.9-6.5-43-8.8-64.8-6.7l-37.3-37.3c-5.8-5.8-15.3-5.9-21.2,0L4.4,152.9c-2.9,2.8-4.4,6.7-4.4,10.7s1.6,7.9,4.5,10.7
				l38.1,37.3c-2.1,22.4,0.4,45.3,7.3,66.6c4.4,13.5,10.3,26.1,17.8,37.8l-6.7,6.7c-17.5,17.5-17.5,46.1,0,63.6
				c4.1,4.1,8.9,7.3,14,9.5c-9.8,17.2-7.4,39.5,7.2,54.2c14.7,14.7,37,17.1,54.1,7.3c2.2,5.1,5.4,9.9,9.5,14
				c17.6,17.6,46.1,17.5,63.6,0l4-4l9.2,9.2c0.5,0.5,1,1,1.6,1.4c8.5,8.4,19.7,13,31.7,13c12,0,23.2-4.6,31.7-13.1
				c8.4-8.1,5.4-5.2,10.7-10.5c5.2,5.2,15.7,17.1,35.8,17.1c12,0,23.3-4.7,31.8-13.2c4.1-4.1,7.3-8.8,9.5-14
				c17.2,9.8,39.5,7.4,54.1-7.2c14.7-14.7,17.1-37,7.2-54.2c5.1-2.2,9.8-5.3,14-9.5c17.6-17.6,17.6-46.1,0-63.6l-6.7-6.7
				c19.6-30.8,28.6-67.9,25.2-104.4l38.1-37.3C510.4,171.4,512,167.6,512,163.6z"/>
		</g>
	</g>
	<g>
		<g>
			<path class="st1" d="M512,163.6c0-4-1.6-7.9-4.4-10.7L379.3,25.6c-5.9-5.8-15.3-5.8-21.2,0l-37.3,37.3c-21.8-2.1-44,0.2-64.8,6.7
				c-20.9-6.5-43-8.8-64.8-6.7l-37.3-37.3c-5.8-5.8-15.3-5.9-21.2,0L4.4,152.9c-2.9,2.8-4.4,6.7-4.4,10.7s1.6,7.9,4.5,10.7
				l38.1,37.3c-2.1,22.4,0.4,45.3,7.3,66.6c4.4,13.5,10.3,26.1,17.8,37.8l-6.7,6.7c-17.5,17.5-17.5,46.1,0,63.6
				c4.1,4.1,8.9,7.3,14,9.5c-9.8,17.2-7.4,39.5,7.2,54.2c14.7,14.7,37,17.1,54.1,7.3c2.2,5.1,5.4,9.9,9.5,14
				c17.6,17.6,46.1,17.5,63.6,0l4-4l9.2,9.2c0.5,0.5,1,1,1.6,1.4c8.5,8.4,19.7,13,31.7,13c12,0,23.2-4.6,31.7-13.1
				c8.4-8.1,5.4-5.2,10.7-10.5c5.2,5.2,15.7,17.1,35.8,17.1c12,0,23.3-4.7,31.8-13.2c4.1-4.1,7.3-8.8,9.5-14
				c17.2,9.8,39.5,7.4,54.1-7.2c14.7-14.7,17.1-37,7.2-54.2c5.1-2.2,9.8-5.3,14-9.5c17.6-17.6,17.6-46.1,0-63.6l-6.7-6.7
				c19.6-30.8,28.6-67.9,25.2-104.4l38.1-37.3C510.4,171.4,512,167.6,512,163.6z M82.3,365.1c-5.8-5.8-5.8-15.4,0-21.2l4-4
				c1.3,1.4,2.6,2.7,3.9,4l17.3,17.3l-4,4C97.7,370.9,88.2,370.9,82.3,365.1z M124.8,428.7c-5.9,5.9-15.3,5.9-21.2,0
				c-5.9-5.9-5.9-15.4,0-21.2l25.2-25.2l21.2,21.2L124.8,428.7z M188.4,449.9c-5.9,5.8-15.4,5.8-21.2,0c-2.8-2.8-4.4-6.6-4.4-10.6
				c0-4,1.6-7.8,4.4-10.6c0,0,0,0,0,0l3.9-4l21.2,21.2L188.4,449.9z M429.7,365.1c-5.9,5.8-15.4,5.8-21.2,0c0,0,0,0,0,0L302.4,259
				c-5.9-5.9-15.4-5.9-21.2,0s-5.9,15.4,0,21.2l127.3,127.3c5.8,5.8,5.8,15.4,0,21.2c-5.8,5.9-15.4,5.8-21.2,0
				c-7-7-119.8-119.8-127.3-127.3c-5.9-5.9-15.4-5.9-21.2,0s-5.9,15.4,0,21.2l106.1,106.1c5.9,5.9,5.9,15.3,0,21.2
				c-5.9,5.9-15.4,5.9-21.2,0L217.5,343.8c-5.9-5.9-15.4-5.9-21.2,0s-5.9,15.4,0,21.2l80.9,80.9c-4.9,4.9-2.7,2.7-10.4,10.2
				c-0.1,0.1-0.1,0.1-0.2,0.2c-2.8,2.8-6.6,4.4-10.6,4.4c-4,0-7.8-1.6-10.6-4.4c-0.1-0.1-0.1-0.1-0.2-0.2
				c-8.9-8.6-124.2-124-133.8-133.6c-30.3-30.3-44.2-72.1-38.2-114.6c0.7-4.7-0.9-9.5-4.4-12.8l-32.5-31.8l106.9-106l31.9,31.9
				c3.3,3.3,8,4.9,12.7,4.2c7.4-1,14.8-1.5,22.2-1.3c-7.6,5.4-14.9,11.5-21.6,18.3c-18.5,18.5-68.6,68.6-84.9,84.9
				c-17.6,17.6-17.6,46.1,0,63.6c8.8,8.8,20.3,13.2,31.8,13.2c11.5,0,23-4.4,31.8-13.2l60.2-60.2c19.6,7,40.6,7.8,60.3,3l142,142
				C435.5,349.7,435.5,359.2,429.7,365.1z M443.1,195.2c-3.4,3.3-5,8.1-4.4,12.8c4.2,29.7-1.7,60.2-16.4,86L317.6,189.3
				c6.9-4.2,13.4-9.3,19.3-15.2c5.9-5.9,5.9-15.4,0-21.2c-5.9-5.9-15.4-5.9-21.2,0c-22.4,22.4-56.7,28.3-85.4,14.7
				c-5.7-2.7-12.6-1.6-17.1,2.9L146,237.8c-5.8,5.8-15.4,5.9-21.2,0c-2.8-2.8-4.4-6.6-4.4-10.6c0-4,1.6-7.8,4.4-10.6
				c17.5-17.5,67.5-67.5,84.9-84.9c0,0,0,0,0,0c30.1-30.1,71.8-44.3,114.6-38.2c4.7,0.7,9.4-0.9,12.7-4.2l31.9-31.9l106.9,106
				L443.1,195.2z"/>
		</g>
	</g>
</g>
<g id="Capa_1">
</g>
</svg>
