<?xml version="1.0" encoding="utf-8"?>
<!-- Generator: Adobe Illustrator 24.2.0, SVG Export Plug-In . SVG Version: 6.00 Build 0)  -->
<svg version="1.1" id="Layer_1" xmlns="http://www.w3.org/2000/svg" xmlns:xlink="http://www.w3.org/1999/xlink" x="0px" y="0px"
	 viewBox="0 0 200 200" style="enable-background:new 0 0 200 200;" xml:space="preserve">
<style type="text/css">
	.st0{fill:none;stroke:#3b4b5d;stroke-width:11.1062;stroke-miterlimit:10;}
	.st1{fill:#3b4b5d;}
</style>
<g>
	<g>
		<g>
			<path class="st0" d="M104.6,186.8C75.9,191.8-3.9,94.3,9.2,54.2C22.3,14.1,112.7-2.9,169.7,31.4
				C230.9,68.3,153.3,178.3,104.6,186.8z"/>
		</g>
	</g>
	<g>
		<path class="st1" d="M86.7,88.2c0,13.6-9.3,25.3-28.1,25.3h-20V62.9h19.9C77.5,62.9,86.7,74.6,86.7,88.2z M73.8,88.2
			c0-7.5-4.6-13.6-16.2-13.6h-5.2v27.2h5.2C69.2,101.7,73.8,95.6,73.8,88.2z"/>
		<path class="st1" d="M100.4,74.6v7.7h20.5V94h-20.5v19.4H86.5V62.9h36.6v11.7H100.4z"/>
		<g>
			<path class="st1" d="M132.3,78.2c0.9,0,1.4,0,1.9,0c6.2,0,12.4,0,18.5,0c1.3,0,2-0.3,2.6-1.5c1.3-2.9,2.8-5.7,4.3-8.5
				c-2.4-0.6-2.7-0.5-3.8,1.6c-0.8,1.6-1.5,3.2-2.4,4.7c-0.3,0.5-1,1-1.6,1c-6.6,0.1-13.3,0-19.9,0.1c-0.9,0-1.5-0.3-1.9-1.1
				c-0.6-1.2-1.4-2.3-2.2-3.8c0.9,0,1.4,0,2,0c6.2,0,12.5,0,18.7,0c1.1,0,1.7-0.3,2.2-1.3c0.8-1.8,1.7-3.5,2.6-5.1
				c0.3-0.5,1-1.1,1.6-1.1c6.8-0.1,13.6,0,20.3,0c0.2,0,0.5,0.1,1,0.2c-4.1,8.1-12.7,26.1-12.8,25.6c-1.7,1.9-4.2,1.7-6.3,1.8
				c-5.2,0.3-10.4,0.1-15.6,0.1c-0.8,0-1.5,0-2,1c-2.4,5-4.9,9.9-7.4,14.8c-0.3,0.6-0.6,1.3-0.9,1.9c2.7,0.4,2.7,0.4,3.8-1.8
				c1.9-3.8,3.9-7.7,5.8-11.5c0.2-0.4,0.3-0.9,0.5-1.6c7.6,0,15.5,0,22.9,0c0.8,1.6,1.6,3.1,2.5,4.8c-0.8,0-1.4,0-2,0
				c-6.1,0-12.3,0-18.4,0c-1.3,0-2,0.4-2.5,1.6c-1.3,2.9-2.8,5.7-4.3,8.5c2.7,0.5,2.7,0.5,3.9-1.8c0.8-1.5,1.5-3.1,2.4-4.6
				c0.3-0.5,1-0.9,1.5-0.9c6.7-0.1,13.5-0.1,20.2,0c0.5,0,1.2,0.4,1.5,0.9c0.8,1.1,1.5,2.4,2.4,3.8c-0.9,0.1-1.5,0.1-2,0.1
				c-6.1,0-12.3,0-18.4,0c-1.3,0-2,0.4-2.5,1.6c-0.8,1.7-1.6,3.4-2.6,5c-0.3,0.5-0.9,1-1.4,1c-6.8,0.1-13.6,0-20.3,0
				c-0.2,0-0.5-0.1-0.8-0.2c0.1-0.4,0.2-0.7,0.3-1c3.4-6.7,6.8-13.5,10.2-20.2c0.9-1.9,2-3.7,3-5.5c0.2-0.4,0.8-0.7,1.2-0.7
				c4.7,0,9.5,0,14.2,0c1.9,0,3.7,0.1,5.6,0c0.5,0,1.3-0.4,1.6-0.9c2.8-5.4,5.5-10.8,8.3-16.2c0.1-0.2,0.1-0.4,0.2-0.6
				c-2.5-0.6-2.6-0.5-3.7,1.6c-2,4-4.1,7.9-6,11.9c-0.5,1.1-1.2,1.5-2.4,1.5c-6.5-0.1-12.9,0-19.4-0.1c-0.6,0-1.3-0.4-1.6-0.9
				C133.9,81,133.3,79.8,132.3,78.2z"/>
			<path class="st1" d="M123,63.3c1.1-0.2,14.6-0.3,20.9-0.3c1.1,0,1.8,0.3,2.3,1.3c0.6,1.1,1.3,2.2,2.1,3.5c-0.8,0-1.3,0.1-1.8,0.1
				c-6.4,0-12.7,0-19.1,0c-1,0-1.7-0.2-2.2-1.2C124.7,65.6,123.8,64.7,123,63.3z"/>
			<path class="st1" d="M176.1,113.4c-1.2,0-2,0-2.7,0c-6,0-12,0-18.1,0c-1.2,0-1.9-0.4-2.4-1.4c-0.6-1.1-1.3-2.1-2-3.5
				c0.8,0,1.4-0.1,1.9-0.1c6.3,0,12.5,0,18.8,0c1.2,0,1.9,0.3,2.4,1.3C174.5,110.9,175.3,112,176.1,113.4z"/>
		</g>
	</g>
</g>
</svg>
