<?xml version="1.0" encoding="utf-8"?>
<!-- Generator: Adobe Illustrator 24.2.0, SVG Export Plug-In . SVG Version: 6.00 Build 0)  -->
<svg version="1.1" id="Layer_1" xmlns="http://www.w3.org/2000/svg" xmlns:xlink="http://www.w3.org/1999/xlink" x="0px" y="0px"
	 viewBox="0 0 200 200" style="enable-background:new 0 0 200 200;" xml:space="preserve">
<style type="text/css">
	.st0{fill:#FFFFFF;stroke:#3b4b5d;stroke-width:12;stroke-miterlimit:10;}
	.st1{fill:#FFFFFF;stroke:#3b4b5d;stroke-width:11.734;stroke-miterlimit:10;}
	.st2{fill:#3b4b5d;}
	.st3{fill:#FFFFFF;}
</style>
<g id="_16-search">
	<path class="st0" d="M90.8,33.7c2.3,2.6,5.6,4,9,4h64.9V27c0-7.5-6.1-13.5-13.5-13.5l-80.4,0c3.4,0,3.3,1.5,5.6,4.1L90.8,33.7z"/>
	<path class="st1" d="M22.2,146.4c-8.3,0-15-6.7-15-15V26.7c0-8.3,6.7-15,15-15h41.9c3.8,0,7.4,1.6,10,4.5l16,18
		c2.5,2.8,6.2,4.5,10,4.5h77.8c8.3,0,15,6.7,15,15v77.8c0,8.3-6.7,15-15,15H22.2z"/>
	<path class="st2" d="M162.6,104.4c-15.9-16-41.8-16-57.7,0s-16,41.8,0,57.7c13.4,13.4,34.2,15.8,50.3,5.9l20.8,20.8
		c3.7,3.7,9.6,3.7,13.3,0c0,0,0,0,0,0c3.7-3.7,3.7-9.6,0-13.3c0,0,0,0,0,0l-20.8-20.8C178.4,138.6,176,117.8,162.6,104.4z"/>
	<circle class="st3" cx="133.8" cy="133.3" r="28.3"/>
	<g>
		<circle class="st2" cx="134.5" cy="134" r="3.1"/>
		<circle class="st2" cx="147.1" cy="134" r="3.1"/>
		<circle class="st2" cx="122" cy="134" r="3.1"/>
	</g>
</g>
</svg>
