<?xml version="1.0" encoding="utf-8"?>
<!-- Generator: Adobe Illustrator 24.2.0, SVG Export Plug-In . SVG Version: 6.00 Build 0)  -->
<svg version="1.1" id="Capa_1" xmlns="http://www.w3.org/2000/svg" xmlns:xlink="http://www.w3.org/1999/xlink" x="0px" y="0px"
	 viewBox="0 0 512 512" style="enable-background:new 0 0 512 512;" xml:space="preserve">
<style type="text/css">
	.st0{fill:none;stroke:#3b4b5d;stroke-width:20;stroke-miterlimit:10;}
</style>
<path class="st0" d="M14,14c1.5,0,2.8,0,4.1,0c76.4,0,152.8,0,229.2,0c9.7,0,19.4,0,29,0.4c6.1,0.3,12.1,1.5,18.2,2.3
	c4,0.5,8,1.1,12,1.8c3.1,0.6,6.2,1.4,9.3,2.2c2.4,0.6,4.7,1.2,7.1,1.9c4.3,1.3,8.6,2.5,12.9,3.9c4.4,1.5,8.8,2.9,13.1,4.7
	c4.7,1.9,9.3,4.2,13.8,6.4s9,4.5,13.3,7.1c6,3.5,11.9,7.1,17.6,10.9c10.5,6.9,20.1,14.9,29.3,23.4c10.9,10.1,20.6,21.4,29.4,33.4
	c4.7,6.4,9,13,13,19.8c3.7,6.3,7,12.9,10.2,19.5c2.6,5.3,4.9,10.7,7,16.2c2.4,6.2,4.6,12.4,6.6,18.7c1.3,4.3,2.1,8.7,3.2,13.1
	c0.8,3.4,1.7,6.7,2.4,10.1c0.6,3,1.1,6,1.5,9.1c0.6,5,1.4,10,1.6,15.1c0.3,10.3,0.4,20.6,0.4,30.8c0,4.9-0.3,9.9-0.8,14.8
	c-0.6,6.2-1.3,12.4-2.4,18.6c-0.9,5.5-2.4,10.9-3.6,16.3c-1,4.2-2,8.4-3.2,12.5c-1,3.4-2.2,6.8-3.4,10.2c-1.2,3.3-2.4,6.6-3.7,9.9
	c-1.6,3.8-3.3,7.5-5,11.3c-1.4,3.1-2.9,6.1-4.5,9.1c-1.9,3.8-3.8,7.6-6,11.2c-3.8,6.3-7.8,12.5-12,18.6
	c-9.2,13.5-20.1,25.7-32.1,36.6c-7.8,7.1-16.1,13.8-24.7,19.9c-8.4,5.9-17.5,11-26.5,16.1c-6.2,3.5-12.7,6.6-19.3,9.4
	c-5.3,2.3-10.8,4.2-16.4,6c-5.4,1.8-10.9,3.6-16.5,5c-5.5,1.4-11.1,2.3-16.6,3.3c-4.2,0.8-8.5,1.5-12.8,2.2c-1.3,0.2-2.7,0.3-4,0.4
	c-4.3,0.5-8.7,1.2-13,1.4c-8.7,0.3-17.5,0.7-26.2,0.2c-9.1-0.5-18.3-1.9-27.4-3.1c-3.5-0.5-7-1.4-10.5-2.2c-3-0.6-6-1.1-9-1.8
	c-2.8-0.7-5.6-1.4-8.5-2.2c-2.2-0.6-4.5-1.3-6.7-2c-3.6-1.2-7.2-2.4-10.8-3.7c-2.7-1-5.4-2-8.1-3.1c-2.7-1.1-5.4-2.1-8.1-3.3
	c-4.4-2.1-8.7-4.2-13-6.5c-4.6-2.4-9.3-4.9-13.7-7.6c-6.1-3.8-12.2-7.7-18-12.1c-6.1-4.6-12-9.6-17.8-14.5c-3.4-2.9-6.9-5.9-9.9-9.2
	c-7-7.8-13.8-15.7-20.3-23.9c-4-4.9-7.6-10.2-10.9-15.5c-3.7-5.9-7.1-12-10.3-18.2c-2.9-5.4-5.6-11-8-16.6
	c-2.3-5.3-4.2-10.7-6.1-16.1c-1.3-3.7-2.7-7.3-3.8-11.1c-1.3-4.4-2.3-8.9-3.3-13.3c-1-4.3-1.9-8.5-2.7-12.9
	c-0.9-5.4-1.7-10.8-2.3-16.2c-0.4-3.4-0.6-6.8-0.7-10.2c-0.2-4,0.4-8.2-0.6-11.9c-1.8-6.8-0.6-13.7-0.9-20.5
	c-0.3-6.9-0.1-13.9-0.1-20.8c0-67.5,0-135,0-202.5C14,15.9,14,15,14,14z M208.7,152.2c-16.8,0-33.5,0-50.3,0c-5,0-5,0-5,5.1
	c0,30.2,0,60.5,0,90.7c0,10.5-0.1,20.9,2.7,31.1c1.5,5.3,2.6,10.9,4.8,15.9c2.7,6.3,6,12.3,9.5,18.1c5.4,9.1,12.6,16.9,21.1,23.2
	c6.1,4.5,12.7,8.2,19.2,12c3.1,1.8,6.4,3.2,9.8,4.4c3.8,1.3,7.7,2.3,11.7,3.2c3.7,0.9,7.5,2,11.3,2.2c7.6,0.4,15.2,0.8,22.8,0.3
	c6.6-0.4,13.2-1.6,19.7-3.2c5-1.2,9.9-3.2,14.5-5.5c6-3,11.8-6.4,17.2-10.3c5.2-3.7,9.9-8.1,14.4-12.6c5.9-5.7,10.5-12.4,14.3-19.6
	c2.3-4.3,4.4-8.6,6.3-13c1.3-3.1,2.3-6.3,3.3-9.6c0.7-2.6,1.2-5.3,1.7-8c0.8-4.8,1.9-9.7,2.3-14.6c0.8-8.7,0.1-17.3-1.4-25.9
	c-1-6.1-2.4-12.1-5-17.7c-2.2-4.5-3.8-9.4-6.4-13.6c-3.9-6.2-8-12.3-12.8-17.8c-4.1-4.8-8.9-9-13.7-13c-5.7-4.8-12.1-8.6-18.8-11.9
	c-3.3-1.7-6.6-3.4-10.2-4.5c-4.2-1.4-8.6-2.4-12.9-3.1c-6.1-1-12.2-2.1-18.4-2.2C243.1,152,225.9,152.2,208.7,152.2z"/>
</svg>
