<?xml version="1.0" encoding="utf-8"?>
<!-- Generator: Adobe Illustrator 24.2.0, SVG Export Plug-In . SVG Version: 6.00 Build 0)  -->
<svg version="1.1" id="Capa_1" xmlns="http://www.w3.org/2000/svg" xmlns:xlink="http://www.w3.org/1999/xlink" x="0px" y="0px"
	 viewBox="0 0 512 512" style="enable-background:new 0 0 512 512;" xml:space="preserve">
<style type="text/css">
	.st0{fill:#FFFFFF;}
	.st1{fill:#3b4b5d;}
</style>
<g>
	<g>
		<path class="st0" d="M52.5,76.9h72.3v72.5H52.5V76.9z"/>
		<path class="st0" d="M376.6,17.5h82.9v83.1h-82.9V17.5z"/>
		<path class="st0" d="M59.4,381.3h72.3v72.5H59.4L59.4,381.3z"/>
	</g>
	<g>
		<path class="st0" d="M344.1,390.1h104.2v104.4H344.1V390.1z"/>
		<g>
			<path class="st1" d="M142.3,141.8V76.9c0-9.7-7.8-17.5-17.5-17.5H52.5c-9.7,0-17.5,7.8-17.5,17.5v72.5c0,9.7,7.8,17.5,17.5,17.5
				h65.3l52.3,52.6c6.7,6.8,18,6.8,24.8,0.1c6.9-6.8,6.9-17.9,0.1-24.8L142.3,141.8z M70,94.4h37.3v37.5H70L70,94.4z"/>
			<path class="st1" d="M194.1,307.5c-7.3-6.4-18.3-5.6-24.7,1.6l-47.9,54.6H59.4c-9.7,0-17.5,7.8-17.5,17.5v72.5
				c0,9.7,7.8,17.5,17.5,17.5h72.3c9.7,0,17.5-7.8,17.5-17.5v-68.4l46.5-53.1C202.1,324.9,201.4,313.9,194.1,307.5z M114.2,436.2
				H76.9v-37.5h37.3L114.2,436.2L114.2,436.2z"/>
			<path class="st1" d="M459.5,0h-82.9c-9.7,0-17.5,7.8-17.5,17.5v78.4l-75.6,100.7c-5.8,7.7-4.2,18.7,3.5,24.5
				c7.6,5.7,18.7,4.2,24.5-3.5l74.6-99.5h73.3c9.7,0,17.5-7.8,17.5-17.5V17.5C477,7.8,469.2,0,459.5,0L459.5,0z M442,83.1h-47.9V35
				H442V83.1z"/>
			<path class="st1" d="M448.3,372.6h-93.5l-44.3-62.2c-5.6-7.9-16.5-9.7-24.4-4.1c-7.9,5.6-9.7,16.5-4.1,24.4l44.6,62.7v101.1
				c0,9.7,7.8,17.5,17.5,17.5h104.2c9.7,0,17.5-7.8,17.5-17.5V390.1C465.8,380.4,457.9,372.6,448.3,372.6L448.3,372.6z M430.8,477
				h-69.1v-69.4h69.1V477z"/>
		</g>
	</g>
	<g>
		<path class="st0" d="M177.3,201h125.4v125.7H177.3V201z"/>
		<path class="st1" d="M302.7,344.3H177.3c-9.7,0-17.5-7.8-17.5-17.5V201c0-9.7,7.8-17.5,17.5-17.5h125.4c9.7,0,17.5,7.8,17.5,17.5
			v125.7C320.2,336.4,312.4,344.3,302.7,344.3z M194.8,309.3h90.4v-90.7h-90.4V309.3z"/>
	</g>
</g>
</svg>
