<?xml version="1.0" encoding="utf-8"?>
<!-- Generator: Adobe Illustrator 23.1.0, SVG Export Plug-In . SVG Version: 6.00 Build 0)  -->
<svg version="1.1" id="Layer_1" xmlns="http://www.w3.org/2000/svg" xmlns:xlink="http://www.w3.org/1999/xlink" x="0px" y="0px"
	 viewBox="0 0 3000 1800" style="enable-background:new 0 0 3000 1800;" xml:space="preserve">
<style type="text/css">
	.st0{opacity:0.4;}
	.st1{fill:none;stroke:#29ABE2;stroke-miterlimit:10;}
	.st2{fill:none;stroke:#18FFFF;stroke-linecap:round;stroke-linejoin:round;stroke-miterlimit:10;}
	.st3{fill:none;stroke:#84FFFF;stroke-width:2.3787;stroke-linecap:round;stroke-linejoin:round;stroke-miterlimit:10;}
</style>
<g class="st0">
	<polyline class="st1" points="1407.6,639.9 1407.6,422.7 1359.3,374.4 1293.4,308.5 1293.4,178.7 1195.7,81 1195.7,-2.9 
		1207.4,-14.6 1207.4,-77.9 	"/>
	<polyline class="st1" points="1457.6,639.9 1457.6,416.1 1360.1,318.6 1360.1,171 1258,68.9 1258,-89.9 	"/>
	<polyline class="st1" points="1501.4,639.9 1501.4,394.4 1599.2,296.7 1599.2,93.8 1614,79 1614,-32.5 1661,-79.5 	"/>
	<polyline class="st1" points="1559.3,638.5 1559.3,424.4 1655.2,328.6 1655.2,126 1674.8,106.4 1674.8,24.3 1782.8,-83.7 	"/>
	<polyline class="st1" points="2132.8,-89.9 2026.9,16 2026.9,53.5 1964.4,116 1964.4,179.4 1847.7,296.1 1766,296.1 1639.3,422.7 
		1639.3,529.4 1611,557.8 1611,638.5 	"/>
	<polyline class="st1" points="1704.4,644.5 1831.1,517.8 1831.1,477.8 1996.1,312.7 1996.1,260.2 2084,172.3 2176.1,172.3 
		2201.8,146.6 2201.8,19.3 2299,-77.9 	"/>
	<polyline class="st1" points="1299.7,639.9 1237.6,577.8 1237.6,459.4 1120.9,342.7 879.2,342.7 802.1,265.6 802.1,202.7 
		773.1,173.7 773.1,72.7 676.9,-23.5 676.9,-85.8 	"/>
	<polyline class="st1" points="1231,826.2 945.9,826.2 788.3,668.6 667.5,668.6 638.7,639.9 402.2,639.9 356.2,686 106.2,686 
		22.2,770 	"/>
	<polyline class="st1" points="1225.7,864.5 729.1,864.5 633.3,768.7 505.7,768.7 438.3,836.1 162.8,836.1 121.8,877.1 21.2,877.1 	
		"/>
	<polyline class="st1" points="1231,907.9 843.3,907.9 737.9,1013.3 602.4,1013.3 573.9,984.8 248.3,984.8 215.6,1017.5 
		21.2,1017.5 	"/>
	<polyline class="st1" points="1661.1,638.5 1661.1,594.5 1771.6,484 1771.6,374.4 1797.2,348.8 1854.4,348.8 2115.4,87.8 
		2115.4,7.7 2208.9,-85.8 	"/>
	<polyline class="st1" points="1359.3,638.5 1359.3,431.1 1110.1,181.9 1110.1,81 1092.1,63.1 1092.1,-89.9 	"/>
	<polyline class="st1" points="1231,768.7 1020.9,768.7 825.4,573.2 734.1,573.2 709.3,598 645.8,598 614.5,566.7 357.5,566.7 
		320.6,603.6 74.6,603.6 8.3,669.9 	"/>
	<polyline class="st1" points="1231,712.8 1050.9,712.8 861.8,523.8 705.8,523.8 573.6,391.6 527.4,391.6 364.8,391.6 323.4,350.3 
		230.8,257.7 96.3,257.7 71.7,233 71.7,95.8 6.1,30.2 	"/>
	<polyline class="st1" points="1231,960.6 955.9,960.6 871.5,1044.9 830.8,1044.9 773.5,1102.3 610.8,1102.3 592.1,1120.9 
		287.8,1120.9 241.9,1166.8 161.5,1166.8 112.9,1118.3 17.3,1118.3 	"/>
	<polyline class="st1" points="1230.9,1047.9 1012.5,1047.9 863.5,1196.9 692.5,1196.9 667.8,1221.6 667.8,1264.6 598.4,1334 
		533.1,1334 347,1334 308.1,1295 147,1295 139.4,1302.6 -8.2,1302.6 	"/>
	<polyline class="st1" points="1244.6,1124.7 1101.7,1267.5 1101.7,1349.6 1067.1,1384.2 824.2,1384.2 703.7,1504.7 703.7,1583 
		678.6,1608.1 574.1,1608.1 537.8,1644.4 357.5,1644.4 278.6,1723.3 278.6,1825.9 247,1857.5 247,1906.9 	"/>
	<polyline class="st1" points="1299.4,1180.7 1224.1,1256.1 1224.1,1386.3 1127.3,1483.1 997.1,1483.1 896.3,1583.9 896.3,1644.4 
		884.9,1655.8 884.9,1731.4 931.8,1778.3 931.8,1895.7 	"/>
	<polyline class="st1" points="1457.6,1179.3 1457.6,1399.6 1343.4,1513.8 1343.4,1644.4 1294.5,1693.3 1294.5,1726.4 1241.9,1779 
		1241.9,1899.6 	"/>
	<polyline class="st1" points="1564.3,1174.6 1564.3,1377.8 1689.4,1502.9 1689.4,1734.7 1760.3,1805.5 1760.3,1844.8 
		1788.7,1873.2 1788.7,1899.6 	"/>
	<polyline class="st1" points="1619.4,1179.3 1751.2,1311.1 1751.2,1430 1881.2,1560 1881.2,1602.3 1931.9,1653 2033.7,1653 
		2078.8,1698 2078.8,1806.2 2172.1,1899.6 	"/>
	<polyline class="st1" points="1715.2,1165.4 1852.7,1303 1852.7,1419.7 2006.9,1573.9 2117.8,1573.9 2188.1,1644.1 2188.1,1806.4 
		2273.9,1892.3 	"/>
	<polyline class="st1" points="1748.3,1138.1 1904.6,1294.5 1904.6,1393 2006.5,1494.9 2052.8,1494.9 2086.2,1528.3 2304.8,1528.3 
		2449.3,1672.9 2449.3,1818.7 2429.7,1838.4 2429.7,1906.9 	"/>
	<polyline class="st1" points="1772.5,1084.5 1926.1,1238.1 1956.4,1238.1 2048,1329.7 2048,1431.2 2098.1,1481.3 2348.2,1481.3 
		2492.7,1625.8 2492.7,1838.4 2477.5,1853.6 2477.5,1906.9 	"/>
	<polyline class="st1" points="1772.4,1040.8 1983.7,1040.8 2018.6,1005.8 2082.8,1005.8 2160.5,1083.5 2271.2,1083.5 
		2368.4,1180.7 2476.2,1180.7 2497.4,1201.9 2833.7,1201.9 2932.6,1300.9 2981.6,1300.9 	"/>
	<polyline class="st1" points="1771.9,864.5 1989.4,864.5 2149.5,1024.6 2312.8,1024.6 2335.6,1001.8 2401.2,1001.8 2469.2,1069.9 
		2781,1069.9 2821.3,1029.6 2991.5,1029.6 	"/>
	<polyline class="st1" points="1772.4,759.5 2052.8,759.5 2099.5,712.8 2297.8,712.8 2386.2,624.5 2457.9,624.5 2497,585.3 
		2773.1,585.3 2950.6,407.9 2950.6,194.5 2996.3,148.7 	"/>
	<polyline class="st1" points="1748.3,682.6 1771.8,659.1 1820.6,659.1 1886.6,593.2 1964.4,593.2 2063.9,493.7 2063.9,359.3 
		2115.8,307.3 2231.1,307.3 2328.3,210.1 2328.3,44.5 2461.1,-88.4 	"/>
	<polyline class="st1" points="1771.8,719.6 1839.3,719.6 1846.1,712.8 1957.8,712.8 2102,568.6 2102,466.1 2213.2,354.8 
		2409.5,354.8 2462.9,301.4 2462.9,131.3 2594.4,-0.1 2594.4,-100.2 	"/>
	<polyline class="st1" points="1867.9,1102.9 1951.5,1102.9 2108,1259.4 2108,1358 2187.9,1437.9 2382.9,1437.9 2418.7,1473.8 
		2638.9,1473.8 2694,1528.8 2910,1528.8 2946.9,1491.9 2946.9,1428.6 2976.1,1399.4 3003.4,1399.4 	"/>
	<polyline class="st1" points="1407.6,1180.7 1407.6,1383 1360.6,1430 	"/>
	<polyline class="st1" points="1357.8,1180.7 1357.8,1391.3 1108.7,1640.5 1108.7,1836.4 1090.4,1854.7 1090.4,1899.6 	"/>
	<polyline class="st1" points="1230.9,1111.2 1059.2,1111.2 872.1,1298.3 692.5,1298.3 586.8,1404 586.8,1451.3 536.4,1501.7 
		289.1,1501.7 258.2,1532.5 118.1,1532.5 19.5,1631.1 	"/>
	<polyline class="st1" points="1266.9,672.9 1203.5,609.5 1164.2,609.5 1118.4,563.6 1118.4,471.7 1070.2,423.4 819.2,423.4 
		685.4,289.7 685.4,121 599.7,35.2 599.7,-8.1 617.6,-26 617.6,-79.5 	"/>
	<polyline class="st1" points="1310.9,-89.9 1310.9,32.7 1422.6,144.4 1422.6,290 1485.1,352.4 	"/>
	<polyline class="st1" points="1772.4,812.8 2032.8,812.8 2157.4,937.5 2396.2,937.5 2474.1,1015.4 2746.8,1015.4 2794,968.2 
		2981.6,968.2 	"/>
	<polyline class="st1" points="1365.6,-77.9 1365.6,10.9 1476.2,121.5 1476.2,265.5 	"/>
	<polyline class="st1" points="1181.7,663.4 1096,663.4 915.3,482.7 750.7,482.7 623.5,355.5 608.8,340.8 453.6,340.8 342.2,229.5 
		342.2,68.2 313.7,39.6 313.7,-53.8 346.6,-86.7 	"/>
	<polyline class="st1" points="978.5,483.6 1015,483.6 1072.3,540.8 1072.3,577.3 1104.8,609.9 	"/>
	<polyline class="st1" points="1152.2,-79.5 1152.2,131.2 1258.5,237.5 	"/>
	<polyline class="st1" points="1546.4,-89.9 1546.4,-14.7 1532,-0.3 1532,178.7 	"/>
	<line class="st1" x1="1449.7" y1="-77.9" x2="1449.7" y2="16.9"/>
	<polyline class="st1" points="1704.8,281 1704.8,160.9 1730.4,135.3 1730.4,54.4 1814.3,-29.5 1871.9,-29.5 1918.1,-75.7 	"/>
	<polyline class="st1" points="2048.2,-83.7 1926.2,38.3 1926.2,123.4 1809.6,240.1 	"/>
	<polyline class="st1" points="1748.3,210.3 1800.5,158 1800.5,102.6 1985,-81.8 	"/>
	<polyline class="st1" points="1322,583.4 1322,445.8 1053.5,177.3 1053.5,76.1 1021.3,43.8 1021.3,-83.7 	"/>
	<polyline class="st1" points="1285.6,566.7 1285.6,453.7 1118,286 1000.9,286 946.4,231.5 946.4,143.2 920.7,117.6 920.7,-2.9 
		892.4,-31.2 892.4,-83.7 	"/>
	<polyline class="st1" points="964.1,-83.7 964.1,93.8 994.6,124.4 994.6,212.9 1020.2,238.5 	"/>
	<polyline class="st1" points="844.3,-79.5 844.3,-30.5 816,-2.2 816,136.6 838.7,159.3 838.7,249.8 891.9,303 	"/>
	<polyline class="st1" points="797,-88.4 797,-59.5 767.4,-29.8 767.4,5 	"/>
	<line class="st1" x1="724.6" y1="-83.7" x2="724.6" y2="-23.9"/>
	<polyline class="st1" points="869.3,-79.5 869.3,9 854.1,24.2 854.1,93.8 891.7,131.4 891.7,241.5 953.4,303.2 	"/>
	<polyline class="st1" points="523.3,-89.9 523.3,-23.9 484.5,14.9 484.5,173.4 512.4,201.4 512.4,281 528.7,297.3 629.9,297.3 
		780.4,447.9 1041.7,447.9 1086,492.2 	"/>
	<polyline class="st1" points="1112.7,376 1203.8,467.1 1203.8,570.4 	"/>
	<polyline class="st1" points="558.8,-77.9 558.8,-12.1 530.5,16.2 530.5,131.2 552,152.7 552,256.3 	"/>
	<polyline class="st1" points="566.7,30.2 566.7,93.8 609.2,136.3 609.2,256.3 	"/>
	<polyline class="st1" points="1165.4,546.8 1165.4,469.5 1073.3,377.4 1011.4,377.4 999.6,389.2 891.9,389.2 877,374.3 
		829.9,374.3 741.7,286.2 741.7,265.5 762.9,244.3 762.9,218.2 728,183.2 728,89.2 648,9.3 648,-83.7 	"/>
	<polyline class="st1" points="8.3,103.7 41.5,136.9 41.5,274.3 77.3,310.2 206.2,310.2 	"/>
	<polyline class="st1" points="655.9,553.6 599.7,497.4 310.5,497.4 254.2,553.7 62.6,553.7 8.3,608 	"/>
	<polyline class="st1" points="19.5,826.2 80.6,826.2 136.9,769.9 390.4,769.9 450.9,709.3 668.6,709.3 767.9,808.7 	"/>
	<line class="st1" x1="747.7" y1="709.6" x2="843.9" y2="805.8"/>
	<polyline class="st1" points="587.9,606.6 371,606.6 337.7,639.9 107.3,639.9 82.4,664.7 57.5,664.7 21.1,701.2 	"/>
	<polyline class="st1" points="19.5,930.6 393.7,930.6 411.8,912.5 609.2,912.5 644.5,947.9 716,947.9 759.4,904.5 	"/>
	<polyline class="st1" points="206.2,877.1 484.5,877.1 536.9,824.7 587.9,824.7 609.2,824.7 670.1,885.6 	"/>
	<polyline class="st1" points="17.3,473.2 49.5,505.4 206.2,505.4 271.6,440.1 544.7,440.1 	"/>
	<polyline class="st1" points="416.7,-83.7 372.4,-39.4 372.4,24.8 407.1,59.5 407.1,201.2 478.5,272.6 	"/>
	<line class="st1" x1="447" y1="-83.7" x2="447" y2="160.3"/>
	<polyline class="st1" points="254,-83.7 254,65.5 281.6,93.2 281.6,231.5 399.2,349.2 	"/>
	<polyline class="st1" points="254,235.3 187.3,168.6 187.3,-6.8 158.3,-35.9 158.3,-79.5 	"/>
	<polyline class="st1" points="219.4,-85.8 219.4,127.4 253.3,161.4 	"/>
	<polyline class="st1" points="82.5,-89.9 44.8,-52.1 44.8,20.8 112.8,88.9 112.8,211.6 126,224.7 	"/>
	<polyline class="st1" points="180.2,223.7 149.6,193.2 149.6,30.2 99.6,-19.9 99.6,-89.9 	"/>
	<polyline class="st1" points="22.2,310.2 58.1,346 233.9,346 292.3,404.4 	"/>
	<polyline class="st1" points="233.9,411.6 187.8,457.7 73.3,457.7 54,438.4 21.2,438.4 	"/>
	<polyline class="st1" points="17.3,357.3 45,385 228.6,385 	"/>
	<polyline class="st1" points="17.3,797.1 44.8,797.1 118.7,723.1 372.4,723.1 419.8,675.7 	"/>
	<polyline class="st1" points="5.1,1063.7 56.9,1063.7 71.7,1048.9 169.4,1048.9 211.1,1090.7 228.6,1090.7 275.7,1043.6 
		544.7,1043.6 570,1068.9 747.7,1068.9 871.4,945.2 	"/>
	<polyline class="st1" points="21.1,1152.3 35.4,1166.6 102.3,1166.6 143.8,1208.1 281,1208.1 331.4,1157.7 484.5,1157.7 
		500.7,1173.9 628.6,1173.9 672.9,1129.6 843.9,1129.6 973.5,999.9 1104.8,999.9 1123.8,1018.9 1230.9,1018.9 	"/>
	<polyline class="st1" points="848.3,1158.9 686.4,1158.9 622,1223.4 622,1264.1 582.5,1303.6 519.3,1303.6 497.6,1281.9 
		366.7,1281.9 346,1261.2 126,1261.2 116.6,1270.6 12.8,1270.6 	"/>
	<polyline class="st1" points="12.8,1199.7 40.4,1227.3 47.7,1234.5 322,1234.5 362.2,1194.4 419.8,1194.4 463.7,1238.2 
		562.8,1238.2 	"/>
	<polyline class="st1" points="22.2,1334 147,1334 166.7,1353.7 293,1353.7 331.2,1391.8 541.7,1391.8 	"/>
	<polyline class="st1" points="12.8,1572 102.3,1482.6 229.9,1482.6 264.8,1447.7 515.4,1447.7 537.4,1425.6 	"/>
	<polyline class="st1" points="8.3,1387.8 34,1362.1 115.4,1362.1 153.3,1400 275.1,1400 295.8,1420.6 	"/>
	<polyline class="st1" points="231.2,1425.6 212,1444.9 78.6,1444.9 54.5,1469 8.3,1469 	"/>
	<line class="st1" x1="12.8" y1="1420.6" x2="152" y2="1420.6"/>
	<line class="st1" x1="8.3" y1="967.2" x2="175.9" y2="967.2"/>
	<polyline class="st1" points="21.2,1716.1 55.8,1681.5 55.8,1643.1 117.4,1581.5 295.8,1581.5 328.5,1548.7 581.8,1548.7 
		669.6,1461 669.6,1391.4 715.6,1345.3 913.4,1345.3 938.3,1320.5 968.7,1320.5 1082,1207.1 1082,1179.3 1116.1,1145.2 
		1158.3,1145.2 	"/>
	<line class="st1" x1="1041.7" y1="1179.3" x2="955.8" y2="1265.1"/>
	<line class="st1" x1="708.2" y1="1240.5" x2="871.4" y2="1240.5"/>
	<line class="st1" x1="767.9" y1="1371.2" x2="702.7" y2="1436.4"/>
	<polyline class="st1" points="21.2,1767.4 107.1,1681.5 107.1,1645 130.4,1621.8 319.4,1621.8 354.1,1587 516.7,1587 	"/>
	<polyline class="st1" points="279,1653 222,1710 222.2,1812.8 193.8,1841.2 193.8,1906.9 	"/>
	<polyline class="st1" points="8.3,1801 58.9,1801 138.8,1721 138.8,1696.4 183.1,1652.1 	"/>
	<polyline class="st1" points="222.4,1653 184.5,1691 184.5,1775.3 118.6,1841.2 70.7,1841.2 14.8,1897.1 	"/>
	<polyline class="st1" points="282,1906.9 332.9,1856 332.9,1749.6 397.4,1685.2 475.3,1685.2 487.8,1697.7 587.9,1697.7 
		615.4,1670.2 708.2,1670.2 773.3,1605.1 773.3,1526.6 870.7,1429.3 	"/>
	<polyline class="st1" points="1271.8,1149.8 1160.9,1260.7 1160.9,1378.6 1100.5,1439 1029.8,1439 1008.8,1418 945,1418 
		858.1,1504.9 858.1,1562.2 822.6,1597.6 822.6,1733.8 726.9,1829.6 726.9,1935.2 	"/>
	<polyline class="st1" points="789.8,1656.9 733,1713.7 626.6,1713.7 607,1733.3 419.8,1733.3 388.1,1765.1 388.1,1801 
		434.8,1847.7 434.8,1906.9 	"/>
	<polyline class="st1" points="393.7,1906.9 393.7,1856.2 367.4,1829.9 	"/>
	<line class="st1" x1="295.8" y1="1077.6" x2="504.9" y2="1077.6"/>
	<polyline class="st1" points="735.3,1741.7 675.3,1801.8 675.3,1895.7 	"/>
	<polyline class="st1" points="479.2,1895.7 479.2,1818.7 517.7,1780.2 619.7,1780.2 	"/>
	<polyline class="st1" points="521,1973.5 521,1856.5 562.4,1815.1 	"/>
	<line class="st1" x1="613.8" y1="1917.4" x2="613.8" y2="1815.1"/>
	<polyline class="st1" points="843.9,1789.1 787.1,1845.9 787.1,1906.9 	"/>
	<line class="st1" x1="870.7" y1="1829.9" x2="870.7" y2="1917.4"/>
	<polyline class="st1" points="1310.4,1180.7 1310.4,1233.1 1272.7,1270.9 1272.7,1403.8 1147.1,1529.4 1047.6,1529.4 
		1016.4,1560.6 978.5,1560.6 941.2,1597.9 941.2,1698.3 976.6,1733.8 976.6,1856.2 992.3,1871.9 992.3,1906.9 	"/>
	<polyline class="st1" points="1031.8,1906.9 1031.8,1767.4 1017.7,1753.2 1017.7,1631.1 1086.7,1562 	"/>
	<line class="st1" x1="1067.3" y1="1641.1" x2="1067.3" y2="1806.9"/>
	<polyline class="st1" points="1322,1475.3 1224.7,1572.6 1224.7,1597.7 1164.3,1658.1 1164.3,1789.1 1173.9,1798.7 1173.9,1906.9 	
		"/>
	<polyline class="st1" points="1310.4,1572 1242.9,1639.5 1242.9,1684.5 1208.7,1718.8 1208.7,1818.7 	"/>
	<polyline class="st1" points="1494.4,1180.7 1494.4,1240.5 1502.4,1248.5 1502.4,1403.8 1481.9,1424.3 1481.9,1538.2 
		1406.2,1613.9 1406.2,1691.1 1466.1,1751 1466.1,1818.7 1363.4,1921.5 	"/>
	<polyline class="st1" points="1443.9,1481.2 1374.6,1550.5 1374.6,1734.5 1410.4,1770.2 1410.4,1829.9 1324.3,1916 	"/>
	<polyline class="st1" points="1345.5,1716.1 1345.5,1767.4 1308.1,1804.8 1308.1,1921.5 	"/>
	<polyline class="st1" points="1535.4,1272 1535.4,1436.4 1615.5,1516.4 1615.5,1562 1635.7,1582.3 1635.7,1781.9 1688.1,1834.2 
		1688.1,1916 	"/>
	<polyline class="st1" points="1452,1916 1537.3,1830.7 1537.3,1726.5 1483.3,1672.5 1483.3,1613.5 1540.5,1556.2 1540.5,1495.7 	
		"/>
	<polyline class="st1" points="1578.2,1528.8 1578.2,1668.1 1599.1,1689 1599.1,1806.9 1573.1,1832.9 1573.1,1917.4 	"/>
	<polyline class="st1" points="1596.8,1216.3 1698.2,1317.7 1698.2,1425.6 1846.3,1573.7 1846.3,1631.1 1928,1712.8 1983.1,1712.8 
		2014.6,1744.4 2014.6,1818.7 2054.9,1859 2054.9,1899.6 	"/>
	<polyline class="st1" points="1596.8,1293.7 1638.6,1335.5 1638.6,1403.8 	"/>
	<polyline class="st1" points="1732.4,1528.8 1774,1570.5 1774,1677.2 1897.3,1800.5 1957.4,1800.5 1994.7,1837.8 1994.7,1906.9 	
		"/>
	<line class="st1" x1="1809.8" y1="1652" x2="1917.4" y2="1759.6"/>
	<polyline class="st1" points="1732.4,1587 1732.4,1717.9 1854,1839.4 1854,1906.9 	"/>
	<polyline class="st1" points="1717.2,1216.3 1809.1,1308.2 1809.1,1430.6 1994.4,1615.9 2098.8,1615.9 2146.3,1663.4 
		2146.3,1818.7 2260.1,1932.5 	"/>
	<line class="st1" x1="1935" y1="1838.4" x2="1935" y2="1906.9"/>
	<line class="st1" x1="1632.9" y1="1838.4" x2="1632.9" y2="1927.3"/>
	<polyline class="st1" points="1809.8,1153.3 1968.8,1312.4 1968.8,1382.6 2009.3,1423 	"/>
	<polyline class="st1" points="1809.6,1066.8 1977.1,1066.8 2142.2,1231.9 2142.2,1315.9 2230.2,1403.8 2482.4,1403.8 
		2524.4,1361.8 2754.7,1361.8 2775.1,1341.5 3025.1,1341.5 	"/>
	<polyline class="st1" points="2461.1,1430.6 2569.2,1430.6 2598.4,1401.4 2776.4,1401.4 2818.2,1359.7 2930.4,1359.7 	"/>
	<polyline class="st1" points="2685.6,1461.5 2837.6,1461.5 2881,1418.1 	"/>
	<polyline class="st1" points="2204,1567.2 2252.8,1616 2252.8,1723.1 2272.7,1743 2272.7,1806.9 2321.3,1855.5 2321.3,1916 	"/>
	<polyline class="st1" points="2381.7,1917.4 2381.7,1818.7 2410.3,1790.1 2410.3,1705.8 2333.4,1628.9 2270.8,1566.3 	"/>
	<polyline class="st1" points="2299,1668.1 2344.7,1713.8 2344.7,1806.9 	"/>
	<polyline class="st1" points="2449.3,1504.9 2548.7,1604.3 2548.7,1779.2 2629,1859.5 2629,1906.9 	"/>
	<polyline class="st1" points="2517.9,1504.9 2610.7,1504.9 2692.7,1587 2902.7,1587 2937.8,1551.9 2996.3,1551.9 	"/>
	<polyline class="st1" points="2024.5,1056.6 2179.6,1211.6 2260.1,1211.6 2309.7,1261.3 2638.3,1261.3 2666.5,1289.5 
		2821.8,1289.5 2834.4,1302.1 	"/>
	<polyline class="st1" points="2190.3,1240.5 2235.9,1286 2531.7,1286 2569.3,1323.6 2656,1323.6 	"/>
	<polyline class="st1" points="2190.3,1305.4 2231.2,1346.3 2461.1,1346.3 	"/>
	<polyline class="st1" points="2162.7,1118.1 2247.5,1118.1 2345.2,1215.8 	"/>
	<polyline class="st1" points="1771.8,993.1 1951.5,993.1 1974.7,969.9 2018.6,969.9 	"/>
	<line class="st1" x1="1772.5" y1="919.8" x2="1981.1" y2="919.8"/>
	<line class="st1" x1="1771.8" y1="955.7" x2="1895.2" y2="955.7"/>
	<polyline class="st1" points="1809.6,609.9 1864.8,554.7 1864.8,528.7 1997.5,395.9 	"/>
	<line class="st1" x1="1944.3" y1="520.8" x2="2014.8" y2="450.3"/>
	<line class="st1" x1="1704.4" y1="418.1" x2="1704.4" y2="483.6"/>
	<polyline class="st1" points="2024.5,708.7 2114.9,618.3 2190.3,618.3 2340.3,468.3 2546.8,468.3 2770.6,244.6 2770.6,111.1 
		2869.7,12.1 2869.7,-118.7 	"/>
	<polyline class="st1" points="2685.6,-81.8 2741.2,-26.2 2741.2,44.4 2665,120.7 2665,256.3 2497.9,423.4 2260.1,423.4 
		2158.7,524.7 	"/>
	<polyline class="st1" points="2629,-83.7 2702.8,-9.9 2702.8,44.4 2613,134.2 2613,231.5 2492.4,352.1 	"/>
	<polyline class="st1" points="2389.5,-79.5 2268.2,41.8 2268.2,201.2 2214.2,255.1 2065.3,255.1 2040.2,280.3 2040.2,326 	"/>
	<polyline class="st1" points="2507.4,-100.2 2507.4,-41.7 2468.2,-2.5 2468.2,30.2 2393.1,105.3 2393.1,241.5 2342.4,292.2 	"/>
	<polyline class="st1" points="2638.9,16.9 2531.9,123.9 2531.9,238.5 	"/>
	<polyline class="st1" points="2132.8,663.4 2253.9,663.4 2401.5,515.9 2604.7,515.9 2828.7,291.9 2828.7,148.7 2938.8,38.6 
		2938.8,-41.7 2978.8,-81.6 	"/>
	<polyline class="st1" points="2820.5,-118.7 2774.3,-72.4 2774.3,44.4 2709.7,109 2709.7,231.5 	"/>
	<polyline class="st1" points="2435.7,552.7 2675.8,552.7 2776.8,451.7 2776.8,418.1 2896,298.9 2896,201.2 2912.9,184.2 
		2912.9,123.3 3004.7,31.5 	"/>
	<line class="st1" x1="2907.3" y1="371.5" x2="2787.7" y2="491.1"/>
	<polyline class="st1" points="2078.5,786.7 2174.7,883 2410.3,883 2427.5,900.2 2702.8,900.2 2744.6,858.4 3060,858.4 	"/>
	<polyline class="st1" points="2172.1,780 2324.3,780 2406.7,697.6 2585.4,697.6 2612.6,670.3 2860,670.3 2893.1,703.4 
		3004.7,703.4 	"/>
	<polyline class="st1" points="2531.9,638.5 2820.5,638.5 2884.8,574.2 2996.3,574.2 	"/>
	<line class="st1" x1="2981.6" y1="485.5" x2="2941.6" y2="485.5"/>
	<line class="st1" x1="2981.6" y1="639.9" x2="2907.3" y2="639.9"/>
	<polyline class="st1" points="2981.6,756.5 2847.5,756.5 2816.6,725.6 2612.6,725.6 2587.4,750.8 2461.1,750.8 2381,830.9 
		2183.1,830.9 	"/>
	<polyline class="st1" points="2483.7,830.9 2555.8,830.9 2587,799.8 2899.5,799.8 2923,823.3 3025.1,823.3 	"/>
	<polyline class="st1" points="2492.7,951.6 2741.2,951.6 2790.2,902.7 2978.8,902.7 	"/>
	<polyline class="st1" points="2981.6,1063.7 2923.9,1121.4 2423.2,1121.4 2355.3,1053.6 	"/>
	<polyline class="st1" points="2597.6,1153.3 2891.6,1153.3 2985.1,1246.9 	"/>
	<polyline class="st1" points="2569.2,1545.9 2651.7,1628.4 2799.5,1628.4 2836.8,1665.7 3004.7,1665.7 	"/>
	<polyline class="st1" points="2597.6,1641.1 2597.6,1695.4 2712.7,1810.5 2712.7,1838.4 2747.4,1873.2 2747.4,1899.6 	"/>
	<polyline class="st1" points="2638.9,1668.1 2789.9,1819.1 2789.9,1916 	"/>
	<line class="st1" x1="2555.8" y1="1838" x2="2555.8" y2="1899.6"/>
	<polyline class="st1" points="2709.7,1668.1 2816.8,1775.1 2869.7,1775.1 2924.9,1830.4 2924.9,1892.3 	"/>
	<line class="st1" x1="2834.4" y1="1724" x2="2985.1" y2="1724"/>
	<line class="st1" x1="2857.3" y1="1838.4" x2="2857.3" y2="1916"/>
</g>
<g>
	<g>
		<circle class="st2" cx="1266" cy="666" r="14.3"/>
		<path class="st2" d="M1748.3,1134c0-7.9-6.4-14.3-14.3-14.3c-7.9,0-14.3,6.4-14.3,14.3s6.4,14.3,14.3,14.3
			C1741.9,1148.3,1748.3,1141.9,1748.3,1134z"/>
		<circle class="st2" cx="1266" cy="1134" r="14.3"/>
		<path class="st2" d="M1748.3,666c0-7.9-6.4-14.3-14.3-14.3c-7.9,0-14.3,6.4-14.3,14.3c0,7.9,6.4,14.3,14.3,14.3
			C1741.9,680.3,1748.3,673.9,1748.3,666z"/>
	</g>
</g>
<g>
	<g>
		<path class="st3" d="M1541.5,648.1c36.7,7.1,66.6,22.6,90.4,43.2"/>
		<path class="st3" d="M1415.7,659.8c23.9-10.4,50.3-16.1,78.3-16.1c8.5,0,16.8,0.4,24.7,1.1"/>
	</g>
	<g>
		<path class="st3" d="M1343.8,1069.9c-12.6-21.2-22.2-42.8-29.4-63.9"/>
		<path class="st3" d="M1400.2,1139.6c-17.7-16.4-32.5-33.9-44.9-51.8"/>
	</g>
	<path class="st3" d="M1460.1,1151.9C1300.5,1049,1321,857.7,1322.1,847.7c3.1-99.4,76.1-177,171.9-177
		c123.1,0,181.4,92.7,188,190.9"/>
	<g>
		<path class="st3" d="M1654.8,846.9c0.4,3.2,0.7,6.4,0.9,9.6c1,14,8.4,37.1,29.9,43.5"/>
		<path class="st3" d="M1603.6,740.2c23.3,21.9,39.9,51.2,47.6,85.5"/>
		<path class="st3" d="M1494.1,697.7c7.1,0,14.4,0.5,21.5,1.4c25.7,3.5,48.9,12.3,68.7,25.6"/>
		<path class="st3" d="M1377.8,755.1c22.1-28.8,54-49.2,91.6-55.4"/>
		<path class="st3" d="M1343.9,881.8c-0.4-19.9,1.2-32.1,1.2-32.1c0.7-26.6,7.4-51.6,19.1-73.4"/>
		<path class="st3" d="M1369.4,1001.4c-13.8-32.3-20.4-63.4-23.4-88.9"/>
		<path class="st3" d="M1443.2,1104.4c-29.1-26.1-49.8-54.8-64.5-83.2"/>
		<path class="st3" d="M1521.1,1156.3c-22-10.8-41.4-22.8-58.3-35.7"/>
	</g>
	<path class="st3" d="M1559.2,1147.8c-179.9-82.9-197.5-232.2-194.8-295.1l0.1-2c1.7-69.3,59.8-126.1,129.6-126.1
		c5.9,0,12,0.4,17.9,1.2c66.3,9,111.8,59.2,116.8,132.5c2.1,31.5,21.5,63.4,56.8,69.3"/>
	<g>
		<path class="st3" d="M1612.7,906.4c10.8,20.7,31.8,38.6,72.8,48.4"/>
		<path class="st3" d="M1591.2,814.7c6.1,13.5,9.8,28.7,10.6,45c0.2,3.7,0.5,7.5,0.9,11.2c0.5,4.7,1.3,9.4,2.4,14"/>
		<path class="st3" d="M1528.5,757.3c20.1,6.7,37.2,19.1,49.8,35.6"/>
		<path class="st3" d="M1440.3,767.1c15.7-9.8,34.1-15.4,53.7-15.4c4,0,8.1,0.2,12.2,0.7"/>
		<path class="st3" d="M1391.2,863.7c0-3.4,0.1-6.7,0.2-9.7l0.1-2.1c0.7-27.2,12.2-51.9,30.3-70"/>
		<path class="st3" d="M1419.6,985.5c-17.1-34.9-24.5-68.8-27.2-96.3"/>
		<path class="st3" d="M1493.1,1078.5c-27.3-22.8-47.5-47.6-62.4-72.5"/>
		<path class="st3" d="M1588.3,1135.4c-29-12.2-53.8-26.2-75.1-41.4"/>
	</g>
	<path class="st3" d="M1613.1,1119.6c-207.4-77.2-195.1-249.9-194.7-267c1-40.4,35.3-73.8,75.6-73.8c3.6,0,7.2,0.2,10.8,0.7
		c40,5.4,67.7,38.3,70,81.7c2.5,49,21.9,102.4,110.5,121.3"/>
	<g>
		<path class="st3" d="M1645.4,998.2c10.9,4.2,23.1,8,36.6,11.1 M1565.7,933.4c11,20,28.7,39.3,57.2,54.5 M1544,842
			c2.2,6.2,3.5,13,3.8,20.2c0.6,15,2.6,32.4,8.6,50 M1440.5,852.5c4-29.6,31.3-50.3,60.7-46.3c12.8,1.7,23.6,7.7,31.7,16.8
			 M1463.4,960.8c-16.3-35.5-21.2-68.4-22.6-88.3 M1538.6,1054.1c-29.8-22.6-50.6-48.4-65.1-73.7 M1633,1102
			c-29.3-9.5-54.2-21.3-75.3-34.7"/>
	</g>
	<path class="st3" d="M1650.3,1081.7c-201.9-58.6-183.2-223.9-183-225.6c2-14.8,15.6-25.1,30.4-23.1c14.7,2,22.6,15.4,23.2,30.2
		c1,29.4,11.9,139.2,154.1,172"/>
	<g>
		<path class="st3" d="M1609.8,1040.4c15.8,7.4,33.8,14,54.2,19.5"/>
		<path class="st3" d="M1519.2,963c14.5,23.8,37.1,48,72,67.8"/>
		<path class="st3" d="M1494.1,859.7c0,0-5.3,38.9,14.9,83.8"/>
	</g>
</g>
</svg>
