<!--?xml version="1.0" encoding="utf-8"?-->
<!-- Generator: Adobe Illustrator 23.1.0, SVG Export Plug-In . SVG Version: 6.00 Build 0)  -->
<svg version="1.1" id="Layer_2" preserveAspectRatio="none" xmlns="http://www.w3.org/2000/svg" xmlns:xlink="http://www.w3.org/1999/xlink" x="0px" y="0px" viewBox="0 0 3000 1800" style="" xml:space="preserve" class="">
<style type="text/css">
	.st0{opacity:0.5;}
	.st1{fill:none;stroke:#ED1C24;stroke-miterlimit:10;}
	.st2{fill:none;stroke:#18FFFF;stroke-linecap:round;stroke-linejoin:round;stroke-miterlimit:10;}
</style>
<g class="st0">
	<path class="st1 TZWjpPBL_0" d="M1381.7,612.5L1381.7,395.3L1333.4,347L1267.5,281.1L1267.5,151.3L1169.8,53.6L1169.8,-30.3L
		1181.5,-42L1181.5,-105.3"></path>
	<path class="st1 TZWjpPBL_1" d="M1431.7,612.5L1431.7,388.7L1334.2,291.2L1334.2,143.6L1232.1,41.5L1232.1,-117.3"></path>
	<path class="st1 TZWjpPBL_2" d="M1475.5,612.5L1475.5,367L1573.3,269.3L1573.3,66.4L1588.1,51.6L1588.1,-59.9L1635.1,-106.9"></path>
	<path class="st1 TZWjpPBL_3" d="M1533.4,611.1L1533.4,397L1629.3,301.2L1629.3,98.6L1648.9,79L1648.9,-3.1L1756.9,-111.1"></path>
	<path class="st1 TZWjpPBL_4" d="M2106.9,-117.3L2001,-11.4L2001,26.1L1938.5,88.6L1938.5,152L1821.8,268.7L1740.1,268.7L1613.4,395.3L
		1613.4,502L1585.1,530.4L1585.1,611.1"></path>
	<path class="st1 TZWjpPBL_5" d="M1678.5,617.1L1805.2,490.4L1805.2,450.4L1970.2,285.3L1970.2,232.8L2058.1,144.9L2150.2,144.9L
		2175.9,119.2L2175.9,-8.1L2273.1,-105.3"></path>
	<path class="st1 TZWjpPBL_6" d="M1273.8,612.5L1211.7,550.4L1211.7,432L1095,315.3L853.3,315.3L776.2,238.2L776.2,175.3L747.2,146.3L
		747.2,45.3L651,-50.9L651,-113.2"></path>
	<path class="st1 TZWjpPBL_7" d="M1205.1,798.8L920,798.8L762.4,641.2L641.6,641.2L612.8,612.5L376.3,612.5L330.3,658.6L80.3,658.6L
		-3.7,742.6"></path>
	<path class="st1 TZWjpPBL_8" d="M1199.8,837.1L703.2,837.1L607.4,741.3L479.8,741.3L412.4,808.7L136.9,808.7L95.9,849.7L-4.7,849.7"></path>
	<path class="st1 TZWjpPBL_9" d="M1205.1,880.5L817.4,880.5L712,985.9L576.5,985.9L548,957.4L222.4,957.4L189.7,990.1L-4.7,990.1"></path>
	<path class="st1 TZWjpPBL_10" d="M1635.2,611.1L1635.2,567.1L1745.7,456.6L1745.7,347L1771.3,321.4L1828.5,321.4L2089.5,60.4L
		2089.5,-19.7L2183,-113.2"></path>
	<path class="st1 TZWjpPBL_11" d="M1333.4,611.1L1333.4,403.7L1084.2,154.5L1084.2,53.6L1066.2,35.7L1066.2,-117.3"></path>
	<path class="st1 TZWjpPBL_12" d="M1205.1,741.3L995,741.3L799.5,545.8L708.2,545.8L683.4,570.6L619.9,570.6L588.6,539.3L331.6,539.3L
		294.7,576.2L48.7,576.2L-17.6,642.5"></path>
	<path class="st1 TZWjpPBL_13" d="M1205.1,685.4L1025,685.4L835.9,496.4L679.9,496.4L547.7,364.2L501.5,364.2L338.9,364.2L297.5,322.9L
		204.9,230.3L70.4,230.3L45.8,205.6L45.8,68.4L-19.8,2.8"></path>
	<path class="st1 TZWjpPBL_14" d="M1205.1,933.2L930,933.2L845.6,1017.5L804.9,1017.5L747.6,1074.9L584.9,1074.9L566.2,1093.5L
		261.9,1093.5L216,1139.4L135.6,1139.4L87,1090.9L-8.6,1090.9"></path>
	<path class="st1 TZWjpPBL_15" d="M1205,1020.5L986.6,1020.5L837.6,1169.5L666.6,1169.5L641.9,1194.2L641.9,1237.2L572.5,1306.6L
		507.2,1306.6L321.1,1306.6L282.2,1267.6L121.1,1267.6L113.5,1275.2L-34.1,1275.2"></path>
	<path class="st1 TZWjpPBL_16" d="M1218.7,1097.3L1075.8,1240.1L1075.8,1322.2L1041.2,1356.8L798.3,1356.8L677.8,1477.3L677.8,1555.6L
		652.7,1580.7L548.2,1580.7L511.9,1617L331.6,1617L252.7,1695.9L252.7,1798.5L221.1,1830.1L221.1,1879.5"></path>
	<path class="st1 TZWjpPBL_17" d="M1273.5,1153.3L1198.2,1228.7L1198.2,1358.9L1101.4,1455.7L971.2,1455.7L870.4,1556.5L870.4,1617L
		859,1628.4L859,1704L905.9,1750.9L905.9,1868.3"></path>
	<path class="st1 TZWjpPBL_18" d="M1431.7,1151.9L1431.7,1372.2L1317.5,1486.4L1317.5,1617L1268.6,1665.9L1268.6,1699L1216,1751.6L
		1216,1872.2"></path>
	<path class="st1 TZWjpPBL_19" d="M1538.4,1147.2L1538.4,1350.4L1663.5,1475.5L1663.5,1707.3L1734.4,1778.1L1734.4,1817.4L
		1762.8,1845.8L1762.8,1872.2"></path>
	<path class="st1 TZWjpPBL_20" d="M1593.5,1151.9L1725.3,1283.7L1725.3,1402.6L1855.3,1532.6L1855.3,1574.9L1906,1625.6L2007.8,1625.6L
		2052.9,1670.6L2052.9,1778.8L2146.2,1872.2"></path>
	<path class="st1 TZWjpPBL_21" d="M1689.3,1138L1826.8,1275.6L1826.8,1392.3L1981,1546.5L2091.9,1546.5L2162.2,1616.7L2162.2,1779L
		2248,1864.9"></path>
	<path class="st1 TZWjpPBL_22" d="M1722.4,1110.7L1878.7,1267.1L1878.7,1365.6L1980.6,1467.5L2026.9,1467.5L2060.3,1500.9L
		2278.9,1500.9L2423.4,1645.5L2423.4,1791.3L2403.8,1811L2403.8,1879.5"></path>
	<path class="st1 TZWjpPBL_23" d="M1746.6,1057.1L1900.2,1210.7L1930.5,1210.7L2022.1,1302.3L2022.1,1403.8L2072.2,1453.9L
		2322.3,1453.9L2466.8,1598.4L2466.8,1811L2451.6,1826.2L2451.6,1879.5"></path>
	<path class="st1 TZWjpPBL_24" d="M1746.5,1013.4L1957.8,1013.4L1992.7,978.4L2056.9,978.4L2134.6,1056.1L2245.3,1056.1L2342.5,1153.3L
		2450.3,1153.3L2471.5,1174.5L2807.8,1174.5L2906.7,1273.5L2955.7,1273.5"></path>
	<path class="st1 TZWjpPBL_25" d="M1746,837.1L1963.5,837.1L2123.6,997.2L2286.9,997.2L2309.7,974.4L2375.3,974.4L2443.3,1042.5L
		2755.1,1042.5L2795.4,1002.2L2965.6,1002.2"></path>
	<path class="st1 TZWjpPBL_26" d="M1746.5,732.1L2026.9,732.1L2073.6,685.4L2271.9,685.4L2360.3,597.1L2432,597.1L2471.1,557.9L
		2747.2,557.9L2924.7,380.5L2924.7,167.1L2970.4,121.3"></path>
	<path class="st1 TZWjpPBL_27" d="M1722.4,655.2L1745.9,631.7L1794.7,631.7L1860.7,565.8L1938.5,565.8L2038,466.3L2038,331.9L
		2089.9,279.9L2205.2,279.9L2302.4,182.7L2302.4,17.1L2435.2,-115.8"></path>
	<path class="st1 TZWjpPBL_28" d="M1745.9,692.2L1813.4,692.2L1820.2,685.4L1931.9,685.4L2076.1,541.2L2076.1,438.7L2187.3,327.4L
		2383.6,327.4L2437,274L2437,103.9L2568.5,-27.5L2568.5,-127.6"></path>
	<path class="st1 TZWjpPBL_29" d="M1842,1075.5L1925.6,1075.5L2082.1,1232L2082.1,1330.6L2162,1410.5L2357,1410.5L2392.8,1446.4L
		2613,1446.4L2668.1,1501.4L2884.1,1501.4L2921,1464.5L2921,1401.2L2950.2,1372L2977.5,1372"></path>
	<path class="st1 TZWjpPBL_30" d="M1381.7,1153.3L1381.7,1355.6L1334.7,1402.6"></path>
	<path class="st1 TZWjpPBL_31" d="M1331.9,1153.3L1331.9,1363.9L1082.8,1613.1L1082.8,1809L1064.5,1827.3L1064.5,1872.2"></path>
	<path class="st1 TZWjpPBL_32" d="M1205,1083.8L1033.3,1083.8L846.2,1270.9L666.6,1270.9L560.9,1376.6L560.9,1423.9L510.5,1474.3L
		263.2,1474.3L232.3,1505.1L92.2,1505.1L-6.4,1603.7"></path>
	<path class="st1 TZWjpPBL_33" d="M1241,645.5L1177.6,582.1L1138.3,582.1L1092.5,536.2L1092.5,444.3L1044.3,396L793.3,396L659.5,262.3L
		659.5,93.6L573.8,7.8L573.8,-35.5L591.7,-53.4L591.7,-106.9"></path>
	<path class="st1 TZWjpPBL_34" d="M1285,-117.3L1285,5.3L1396.7,117L1396.7,262.6L1459.2,325"></path>
	<path class="st1 TZWjpPBL_35" d="M1746.5,785.4L2006.9,785.4L2131.5,910.1L2370.3,910.1L2448.2,988L2720.9,988L2768.1,940.8L
		2955.7,940.8"></path>
	<path class="st1 TZWjpPBL_36" d="M1339.7,-105.3L1339.7,-16.5L1450.3,94.1L1450.3,238.1"></path>
	<path class="st1 TZWjpPBL_37" d="M1155.8,636L1070.1,636L889.4,455.3L724.8,455.3L597.6,328.1L582.9,313.4L427.7,313.4L316.3,202.1L
		316.3,40.8L287.8,12.2L287.8,-81.2L320.7,-114.1"></path>
	<path class="st1 TZWjpPBL_38" d="M952.6,456.2L989.1,456.2L1046.4,513.4L1046.4,549.9L1078.9,582.5"></path>
	<path class="st1 TZWjpPBL_39" d="M1126.3,-106.9L1126.3,103.8L1232.6,210.1"></path>
	<path class="st1 TZWjpPBL_40" d="M1520.5,-117.3L1520.5,-42.1L1506.1,-27.7L1506.1,151.3"></path>
	<path class="st1 TZWjpPBL_41" d="M1423.8,-105.3L1423.8,-10.5"></path>
	<path class="st1 TZWjpPBL_42" d="M1678.9,253.6L1678.9,133.5L1704.5,107.9L1704.5,27L1788.4,-56.9L1846,-56.9L1892.2,-103.1"></path>
	<path class="st1 TZWjpPBL_43" d="M2022.3,-111.1L1900.3,10.9L1900.3,96L1783.7,212.7"></path>
	<path class="st1 TZWjpPBL_44" d="M1722.4,182.9L1774.6,130.6L1774.6,75.2L1959.1,-109.2"></path>
	<path class="st1 TZWjpPBL_45" d="M1296.1,556L1296.1,418.4L1027.6,149.9L1027.6,48.7L995.4,16.4L995.4,-111.1"></path>
	<path class="st1 TZWjpPBL_46" d="M1259.7,539.3L1259.7,426.3L1092.1,258.6L975,258.6L920.5,204.1L920.5,115.8L894.8,90.2L894.8,-30.3L
		866.5,-58.6L866.5,-111.1"></path>
	<path class="st1 TZWjpPBL_47" d="M938.2,-111.1L938.2,66.4L968.7,97L968.7,185.5L994.3,211.1"></path>
	<path class="st1 TZWjpPBL_48" d="M818.4,-106.9L818.4,-57.9L790.1,-29.6L790.1,109.2L812.8,131.9L812.8,222.4L866,275.6"></path>
	<path class="st1 TZWjpPBL_49" d="M771.1,-115.8L771.1,-86.9L741.5,-57.2L741.5,-22.4"></path>
	<path class="st1 TZWjpPBL_50" d="M698.7,-111.1L698.7,-51.3"></path>
	<path class="st1 TZWjpPBL_51" d="M843.4,-106.9L843.4,-18.4L828.2,-3.2L828.2,66.4L865.8,104L865.8,214.1L927.5,275.8"></path>
	<path class="st1 TZWjpPBL_52" d="M497.4,-117.3L497.4,-51.3L458.6,-12.5L458.6,146L486.5,174L486.5,253.6L502.8,269.9L604,269.9L
		754.5,420.5L1015.8,420.5L1060.1,464.8"></path>
	<path class="st1 TZWjpPBL_53" d="M1086.8,348.6L1177.9,439.7L1177.9,543"></path>
	<path class="st1 TZWjpPBL_54" d="M532.9,-105.3L532.9,-39.5L504.6,-11.2L504.6,103.8L526.1,125.3L526.1,228.9"></path>
	<path class="st1 TZWjpPBL_55" d="M540.8,2.8L540.8,66.4L583.3,108.9L583.3,228.9"></path>
	<path class="st1 TZWjpPBL_56" d="M1139.5,519.4L1139.5,442.1L1047.4,350L985.5,350L973.7,361.8L866,361.8L851.1,346.9L804,346.9L
		715.8,258.8L715.8,238.1L737,216.9L737,190.8L702.1,155.8L702.1,61.8L622.1,-18.1L622.1,-111.1"></path>
	<path class="st1 TZWjpPBL_57" d="M-17.6,76.3L15.6,109.5L15.6,246.9L51.4,282.8L180.3,282.8"></path>
	<path class="st1 TZWjpPBL_58" d="M630,526.2L573.8,470L284.6,470L228.3,526.3L36.7,526.3L-17.6,580.6"></path>
	<path class="st1 TZWjpPBL_59" d="M-6.4,798.8L54.7,798.8L111,742.5L364.5,742.5L425,681.9L642.7,681.9L742,781.3"></path>
	<path class="st1 TZWjpPBL_60" d="M721.8,682.2L818,778.4"></path>
	<path class="st1 TZWjpPBL_61" d="M562,579.2L345.1,579.2L311.8,612.5L81.4,612.5L56.5,637.3L31.6,637.3L-4.8,673.8"></path>
	<path class="st1 TZWjpPBL_62" d="M-6.4,903.2L367.8,903.2L385.9,885.1L583.3,885.1L618.6,920.5L690.1,920.5L733.5,877.1"></path>
	<path class="st1 TZWjpPBL_63" d="M180.3,849.7L458.6,849.7L511,797.3L562,797.3L583.3,797.3L644.2,858.2"></path>
	<path class="st1 TZWjpPBL_64" d="M-8.6,445.8L23.6,478L180.3,478L245.7,412.7L518.8,412.7"></path>
	<path class="st1 TZWjpPBL_65" d="M390.8,-111.1L346.5,-66.8L346.5,-2.6L381.2,32.1L381.2,173.8L452.6,245.2"></path>
	<path class="st1 TZWjpPBL_66" d="M421.1,-111.1L421.1,132.9"></path>
	<path class="st1 TZWjpPBL_67" d="M228.1,-111.1L228.1,38.1L255.7,65.8L255.7,204.1L373.3,321.8"></path>
	<path class="st1 TZWjpPBL_68" d="M228.1,207.9L161.4,141.2L161.4,-34.2L132.4,-63.3L132.4,-106.9"></path>
	<path class="st1 TZWjpPBL_69" d="M193.5,-113.2L193.5,100L227.4,134"></path>
	<path class="st1 TZWjpPBL_70" d="M56.6,-117.3L18.9,-79.5L18.9,-6.6L86.9,61.5L86.9,184.2L100.1,197.3"></path>
	<path class="st1 TZWjpPBL_71" d="M154.3,196.3L123.7,165.8L123.7,2.8L73.7,-47.3L73.7,-117.3"></path>
	<path class="st1 TZWjpPBL_72" d="M-3.7,282.8L32.2,318.6L208,318.6L266.4,377"></path>
	<path class="st1 TZWjpPBL_73" d="M208,384.2L161.9,430.3L47.4,430.3L28.1,411L-4.7,411"></path>
	<path class="st1 TZWjpPBL_74" d="M-8.6,329.9L19.1,357.6L202.7,357.6"></path>
	<path class="st1 TZWjpPBL_75" d="M-8.6,769.7L18.9,769.7L92.8,695.7L346.5,695.7L393.9,648.3"></path>
	<path class="st1 TZWjpPBL_76" d="M-20.8,1036.3L31,1036.3L45.8,1021.5L143.5,1021.5L185.2,1063.3L202.7,1063.3L249.8,1016.2L
		518.8,1016.2L544.1,1041.5L721.8,1041.5L845.5,917.8"></path>
	<path class="st1 TZWjpPBL_77" d="M-4.8,1124.9L9.5,1139.2L76.4,1139.2L117.9,1180.7L255.1,1180.7L305.5,1130.3L458.6,1130.3L
		474.8,1146.5L602.7,1146.5L647,1102.2L818,1102.2L947.6,972.5L1078.9,972.5L1097.9,991.5L1205,991.5"></path>
	<path class="st1 TZWjpPBL_78" d="M822.4,1131.5L660.5,1131.5L596.1,1196L596.1,1236.7L556.6,1276.2L493.4,1276.2L471.7,1254.5L
		340.8,1254.5L320.1,1233.8L100.1,1233.8L90.7,1243.2L-13.1,1243.2"></path>
	<path class="st1 TZWjpPBL_79" d="M-13.1,1172.3L14.5,1199.9L21.8,1207.1L296.1,1207.1L336.3,1167L393.9,1167L437.8,1210.8L
		536.9,1210.8"></path>
	<path class="st1 TZWjpPBL_80" d="M-3.7,1306.6L121.1,1306.6L140.8,1326.3L267.1,1326.3L305.3,1364.4L515.8,1364.4"></path>
	<path class="st1 TZWjpPBL_81" d="M-13.1,1544.6L76.4,1455.2L204,1455.2L238.9,1420.3L489.5,1420.3L511.5,1398.2"></path>
	<path class="st1 TZWjpPBL_82" d="M-17.6,1360.4L8.1,1334.7L89.5,1334.7L127.4,1372.6L249.2,1372.6L269.9,1393.2"></path>
	<path class="st1 TZWjpPBL_83" d="M205.3,1398.2L186.1,1417.5L52.7,1417.5L28.6,1441.6L-17.6,1441.6"></path>
	<path class="st1 TZWjpPBL_84" d="M-13.1,1393.2L126.1,1393.2"></path>
	<path class="st1 TZWjpPBL_85" d="M-17.6,939.8L150,939.8"></path>
	<path class="st1 TZWjpPBL_86" d="M-4.7,1688.7L29.9,1654.1L29.9,1615.7L91.5,1554.1L269.9,1554.1L302.6,1521.3L555.9,1521.3L
		643.7,1433.6L643.7,1364L689.7,1317.9L887.5,1317.9L912.4,1293.1L942.8,1293.1L1056.1,1179.7L1056.1,1151.9L1090.2,1117.8L
		1132.4,1117.8"></path>
	<path class="st1 TZWjpPBL_87" d="M1015.8,1151.9L929.9,1237.7"></path>
	<path class="st1 TZWjpPBL_88" d="M682.3,1213.1L845.5,1213.1"></path>
	<path class="st1 TZWjpPBL_89" d="M742,1343.8L676.8,1409"></path>
	<path class="st1 TZWjpPBL_90" d="M-4.7,1740L81.2,1654.1L81.2,1617.6L104.5,1594.4L293.5,1594.4L328.2,1559.6L490.8,1559.6"></path>
	<path class="st1 TZWjpPBL_91" d="M253.1,1625.6L196.1,1682.6L196.3,1785.4L167.9,1813.8L167.9,1879.5"></path>
	<path class="st1 TZWjpPBL_92" d="M-17.6,1773.6L33,1773.6L112.9,1693.6L112.9,1669L157.2,1624.7"></path>
	<path class="st1 TZWjpPBL_93" d="M196.5,1625.6L158.6,1663.6L158.6,1747.9L92.7,1813.8L44.8,1813.8L-11.1,1869.7"></path>
	<path class="st1 TZWjpPBL_94" d="M256.1,1879.5L307,1828.6L307,1722.2L371.5,1657.8L449.4,1657.8L461.9,1670.3L562,1670.3L
		589.5,1642.8L682.3,1642.8L747.4,1577.7L747.4,1499.2L844.8,1401.9"></path>
	<path class="st1 TZWjpPBL_95" d="M1245.9,1122.4L1135,1233.3L1135,1351.2L1074.6,1411.6L1003.9,1411.6L982.9,1390.6L919.1,1390.6L
		832.2,1477.5L832.2,1534.8L796.7,1570.2L796.7,1706.4L701,1802.2L701,1907.8"></path>
	<path class="st1 TZWjpPBL_96" d="M763.9,1629.5L707.1,1686.3L600.7,1686.3L581.1,1705.9L393.9,1705.9L362.2,1737.7L362.2,1773.6L
		408.9,1820.3L408.9,1879.5"></path>
	<path class="st1 TZWjpPBL_97" d="M367.8,1879.5L367.8,1828.8L341.5,1802.5"></path>
	<path class="st1 TZWjpPBL_98" d="M269.9,1050.2L479,1050.2"></path>
	<path class="st1 TZWjpPBL_99" d="M709.4,1714.3L649.4,1774.4L649.4,1868.3"></path>
	<path class="st1 TZWjpPBL_100" d="M453.3,1868.3L453.3,1791.3L491.8,1752.8L593.8,1752.8"></path>
	<path class="st1 TZWjpPBL_101" d="M495.1,1946.1L495.1,1829.1L536.5,1787.7"></path>
	<path class="st1 TZWjpPBL_102" d="M587.9,1890L587.9,1787.7"></path>
	<path class="st1 TZWjpPBL_103" d="M818,1761.7L761.2,1818.5L761.2,1879.5"></path>
	<path class="st1 TZWjpPBL_104" d="M844.8,1802.5L844.8,1890"></path>
	<path class="st1 TZWjpPBL_105" d="M1284.5,1153.3L1284.5,1205.7L1246.8,1243.5L1246.8,1376.4L1121.2,1502L1021.7,1502L990.5,1533.2L
		952.6,1533.2L915.3,1570.5L915.3,1670.9L950.7,1706.4L950.7,1828.8L966.4,1844.5L966.4,1879.5"></path>
	<path class="st1 TZWjpPBL_106" d="M1005.9,1879.5L1005.9,1740L991.8,1725.8L991.8,1603.7L1060.8,1534.6"></path>
	<path class="st1 TZWjpPBL_107" d="M1041.4,1613.7L1041.4,1779.5"></path>
	<path class="st1 TZWjpPBL_108" d="M1296.1,1447.9L1198.8,1545.2L1198.8,1570.3L1138.4,1630.7L1138.4,1761.7L1148,1771.3L1148,1879.5"></path>
	<path class="st1 TZWjpPBL_109" d="M1284.5,1544.6L1217,1612.1L1217,1657.1L1182.8,1691.4L1182.8,1791.3"></path>
	<path class="st1 TZWjpPBL_110" d="M1468.5,1153.3L1468.5,1213.1L1476.5,1221.1L1476.5,1376.4L1456,1396.9L1456,1510.8L1380.3,1586.5L
		1380.3,1663.7L1440.2,1723.6L1440.2,1791.3L1337.5,1894.1"></path>
	<path class="st1 TZWjpPBL_111" d="M1418,1453.8L1348.7,1523.1L1348.7,1707.1L1384.5,1742.8L1384.5,1802.5L1298.4,1888.6"></path>
	<path class="st1 TZWjpPBL_112" d="M1319.6,1688.7L1319.6,1740L1282.2,1777.4L1282.2,1894.1"></path>
	<path class="st1 TZWjpPBL_113" d="M1509.5,1244.6L1509.5,1409L1589.6,1489L1589.6,1534.6L1609.8,1554.9L1609.8,1754.5L1662.2,1806.8L
		1662.2,1888.6"></path>
	<path class="st1 TZWjpPBL_114" d="M1426.1,1888.6L1511.4,1803.3L1511.4,1699.1L1457.4,1645.1L1457.4,1586.1L1514.6,1528.8L
		1514.6,1468.3"></path>
	<path class="st1 TZWjpPBL_115" d="M1552.3,1501.4L1552.3,1640.7L1573.2,1661.6L1573.2,1779.5L1547.2,1805.5L1547.2,1890"></path>
	<path class="st1 TZWjpPBL_116" d="M1570.9,1188.9L1672.3,1290.3L1672.3,1398.2L1820.4,1546.3L1820.4,1603.7L1902.1,1685.4L
		1957.2,1685.4L1988.7,1717L1988.7,1791.3L2029,1831.6L2029,1872.2"></path>
	<path class="st1 TZWjpPBL_117" d="M1570.9,1266.3L1612.7,1308.1L1612.7,1376.4"></path>
	<path class="st1 TZWjpPBL_118" d="M1706.5,1501.4L1748.1,1543.1L1748.1,1649.8L1871.4,1773.1L1931.5,1773.1L1968.8,1810.4L
		1968.8,1879.5"></path>
	<path class="st1 TZWjpPBL_119" d="M1783.9,1624.6L1891.5,1732.2"></path>
	<path class="st1 TZWjpPBL_120" d="M1706.5,1559.6L1706.5,1690.5L1828.1,1812L1828.1,1879.5"></path>
	<path class="st1 TZWjpPBL_121" d="M1691.3,1188.9L1783.2,1280.8L1783.2,1403.2L1968.5,1588.5L2072.9,1588.5L2120.4,1636L2120.4,1791.3L
		2234.2,1905.1"></path>
	<path class="st1 TZWjpPBL_122" d="M1909.1,1811L1909.1,1879.5"></path>
	<path class="st1 TZWjpPBL_123" d="M1607,1811L1607,1899.9"></path>
	<path class="st1 TZWjpPBL_124" d="M1783.9,1125.9L1942.9,1285L1942.9,1355.2L1983.4,1395.6"></path>
	<path class="st1 TZWjpPBL_125" d="M1783.7,1039.4L1951.2,1039.4L2116.3,1204.5L2116.3,1288.5L2204.3,1376.4L2456.5,1376.4L
		2498.5,1334.4L2728.8,1334.4L2749.2,1314.1L2999.2,1314.1"></path>
	<path class="st1 TZWjpPBL_126" d="M2435.2,1403.2L2543.3,1403.2L2572.5,1374L2750.5,1374L2792.3,1332.3L2904.5,1332.3"></path>
	<path class="st1 TZWjpPBL_127" d="M2659.7,1434.1L2811.7,1434.1L2855.1,1390.7"></path>
	<path class="st1 TZWjpPBL_128" d="M2178.1,1539.8L2226.9,1588.6L2226.9,1695.7L2246.8,1715.6L2246.8,1779.5L2295.4,1828.1L
		2295.4,1888.6"></path>
	<path class="st1 TZWjpPBL_129" d="M2355.8,1890L2355.8,1791.3L2384.4,1762.7L2384.4,1678.4L2307.5,1601.5L2244.9,1538.9"></path>
	<path class="st1 TZWjpPBL_130" d="M2273.1,1640.7L2318.8,1686.4L2318.8,1779.5"></path>
	<path class="st1 TZWjpPBL_131" d="M2423.4,1477.5L2522.8,1576.9L2522.8,1751.8L2603.1,1832.1L2603.1,1879.5"></path>
	<path class="st1 TZWjpPBL_132" d="M2492,1477.5L2584.8,1477.5L2666.8,1559.6L2876.8,1559.6L2911.9,1524.5L2970.4,1524.5"></path>
	<path class="st1 TZWjpPBL_133" d="M1998.6,1029.2L2153.7,1184.2L2234.2,1184.2L2283.8,1233.9L2612.4,1233.9L2640.6,1262.1L
		2795.9,1262.1L2808.5,1274.7"></path>
	<path class="st1 TZWjpPBL_134" d="M2164.4,1213.1L2210,1258.6L2505.8,1258.6L2543.4,1296.2L2630.1,1296.2"></path>
	<path class="st1 TZWjpPBL_135" d="M2164.4,1278L2205.3,1318.9L2435.2,1318.9"></path>
	<path class="st1 TZWjpPBL_136" d="M2136.8,1090.7L2221.6,1090.7L2319.3,1188.4"></path>
	<path class="st1 TZWjpPBL_137" d="M1745.9,965.7L1925.6,965.7L1948.8,942.5L1992.7,942.5"></path>
	<path class="st1 TZWjpPBL_138" d="M1746.6,892.4L1955.2,892.4"></path>
	<path class="st1 TZWjpPBL_139" d="M1745.9,928.3L1869.3,928.3"></path>
	<path class="st1 TZWjpPBL_140" d="M1783.7,582.5L1838.9,527.3L1838.9,501.3L1971.6,368.5"></path>
	<path class="st1 TZWjpPBL_141" d="M1918.4,493.4L1988.9,422.9"></path>
	<path class="st1 TZWjpPBL_142" d="M1678.5,390.7L1678.5,456.2"></path>
	<path class="st1 TZWjpPBL_143" d="M1998.6,681.3L2089,590.9L2164.4,590.9L2314.4,440.9L2520.9,440.9L2744.7,217.2L2744.7,83.7L
		2843.8,-15.3L2843.8,-146.1"></path>
	<path class="st1 TZWjpPBL_144" d="M2659.7,-109.2L2715.3,-53.6L2715.3,17L2639.1,93.3L2639.1,228.9L2472,396L2234.2,396L2132.8,497.3"></path>
	<path class="st1 TZWjpPBL_145" d="M2603.1,-111.1L2676.9,-37.3L2676.9,17L2587.1,106.8L2587.1,204.1L2466.5,324.7"></path>
	<path class="st1 TZWjpPBL_146" d="M2363.6,-106.9L2242.3,14.4L2242.3,173.8L2188.3,227.7L2039.4,227.7L2014.3,252.9L2014.3,298.6"></path>
	<path class="st1 TZWjpPBL_147" d="M2481.5,-127.6L2481.5,-69.1L2442.3,-29.9L2442.3,2.8L2367.2,77.9L2367.2,214.1L2316.5,264.8"></path>
	<path class="st1 TZWjpPBL_148" d="M2613,-10.5L2506,96.5L2506,211.1"></path>
	<path class="st1 TZWjpPBL_149" d="M2106.9,636L2228,636L2375.6,488.5L2578.8,488.5L2802.8,264.5L2802.8,121.3L2912.9,11.2L2912.9,-69.1L
		2952.9,-109"></path>
	<path class="st1 TZWjpPBL_150" d="M2794.6,-146.1L2748.4,-99.8L2748.4,17L2683.8,81.6L2683.8,204.1"></path>
	<path class="st1 TZWjpPBL_151" d="M2409.8,525.3L2649.9,525.3L2750.9,424.3L2750.9,390.7L2870.1,271.5L2870.1,173.8L2887,156.8L
		2887,95.9L2978.8,4.1"></path>
	<path class="st1 TZWjpPBL_152" d="M2881.4,344.1L2761.8,463.7"></path>
	<path class="st1 TZWjpPBL_153" d="M2052.6,759.3L2148.8,855.6L2384.4,855.6L2401.6,872.8L2676.9,872.8L2718.7,831L3034.1,831"></path>
	<path class="st1 TZWjpPBL_154" d="M2146.2,752.6L2298.4,752.6L2380.8,670.2L2559.5,670.2L2586.7,642.9L2834.1,642.9L2867.2,676L
		2978.8,676"></path>
	<path class="st1 TZWjpPBL_155" d="M2506,611.1L2794.6,611.1L2858.9,546.8L2970.4,546.8"></path>
	<path class="st1 TZWjpPBL_156" d="M2955.7,458.1L2915.7,458.1"></path>
	<path class="st1 TZWjpPBL_157" d="M2955.7,612.5L2881.4,612.5"></path>
	<path class="st1 TZWjpPBL_158" d="M2955.7,729.1L2821.6,729.1L2790.7,698.2L2586.7,698.2L2561.5,723.4L2435.2,723.4L2355.1,803.5L
		2157.2,803.5"></path>
	<path class="st1 TZWjpPBL_159" d="M2457.8,803.5L2529.9,803.5L2561.1,772.4L2873.6,772.4L2897.1,795.9L2999.2,795.9"></path>
	<path class="st1 TZWjpPBL_160" d="M2466.8,924.2L2715.3,924.2L2764.3,875.3L2952.9,875.3"></path>
	<path class="st1 TZWjpPBL_161" d="M2955.7,1036.3L2898,1094L2397.3,1094L2329.4,1026.2"></path>
	<path class="st1 TZWjpPBL_162" d="M2571.7,1125.9L2865.7,1125.9L2959.2,1219.5"></path>
	<path class="st1 TZWjpPBL_163" d="M2543.3,1518.5L2625.8,1601L2773.6,1601L2810.9,1638.3L2978.8,1638.3"></path>
	<path class="st1 TZWjpPBL_164" d="M2571.7,1613.7L2571.7,1668L2686.8,1783.1L2686.8,1811L2721.5,1845.8L2721.5,1872.2"></path>
	<path class="st1 TZWjpPBL_165" d="M2613,1640.7L2764,1791.7L2764,1888.6"></path>
	<path class="st1 TZWjpPBL_166" d="M2529.9,1810.6L2529.9,1872.2"></path>
	<path class="st1 TZWjpPBL_167" d="M2683.8,1640.7L2790.9,1747.7L2843.8,1747.7L2899,1803L2899,1864.9"></path>
	<path class="st1 TZWjpPBL_168" d="M2808.5,1696.6L2959.2,1696.6"></path>
	<path class="st1 TZWjpPBL_169" d="M2831.4,1811L2831.4,1888.6"></path>
</g>
<g>
	<g>
		<path class="st2 TZWjpPBL_170" d="M1251.7,666A14.3,14.3 0,1,1 1280.3,666A14.3,14.3 0,1,1 1251.7,666"></path>
		<path class="st2 TZWjpPBL_171" d="M1748.3,1134c0-7.9-6.4-14.3-14.3-14.3s-14.3,6.4-14.3,14.3s6.4,14.3,14.3,14.3S1748.3,1141.9,1748.3,1134z"></path>
		<path class="st2 TZWjpPBL_172" d="M1251.7,1134A14.3,14.3 0,1,1 1280.3,1134A14.3,14.3 0,1,1 1251.7,1134"></path>
		<path class="st2 TZWjpPBL_173" d="M1748.3,666c0-7.9-6.4-14.3-14.3-14.3s-14.3,6.4-14.3,14.3c0,7.9,6.4,14.3,14.3,14.3S1748.3,673.9,1748.3,666
			z"></path>
	</g>
</g>
<style data-made-with="vivus-instant">.TZWjpPBL_0{stroke-dasharray:811 813;stroke-dashoffset:812;}.start .TZWjpPBL_0{animation:TZWjpPBL_draw 1500ms linear 0ms forwards;}.TZWjpPBL_1{stroke-dasharray:813 815;stroke-dashoffset:814;}.start .TZWjpPBL_1{animation:TZWjpPBL_draw 1500ms linear 0ms forwards;}.TZWjpPBL_2{stroke-dasharray:786 788;stroke-dashoffset:787;}.start .TZWjpPBL_2{animation:TZWjpPBL_draw 1500ms linear 0ms forwards;}.TZWjpPBL_3{stroke-dasharray:815 817;stroke-dashoffset:816;}.start .TZWjpPBL_3{animation:TZWjpPBL_draw 1500ms linear 0ms forwards;}.TZWjpPBL_4{stroke-dasharray:993 995;stroke-dashoffset:994;}.start .TZWjpPBL_4{animation:TZWjpPBL_draw 1500ms linear 0ms forwards;}.TZWjpPBL_5{stroke-dasharray:1023 1025;stroke-dashoffset:1024;}.start .TZWjpPBL_5{animation:TZWjpPBL_draw 1500ms linear 0ms forwards;}.TZWjpPBL_6{stroke-dasharray:1126 1128;stroke-dashoffset:1127;}.start .TZWjpPBL_6{animation:TZWjpPBL_draw 1500ms linear 0ms forwards;}.TZWjpPBL_7{stroke-dasharray:1340 1342;stroke-dashoffset:1341;}.start .TZWjpPBL_7{animation:TZWjpPBL_draw 1500ms linear 0ms forwards;}.TZWjpPBL_8{stroke-dasharray:1290 1292;stroke-dashoffset:1291;}.start .TZWjpPBL_8{animation:TZWjpPBL_draw 1500ms linear 0ms forwards;}.TZWjpPBL_9{stroke-dasharray:1279 1281;stroke-dashoffset:1280;}.start .TZWjpPBL_9{animation:TZWjpPBL_draw 1500ms linear 0ms forwards;}.TZWjpPBL_10{stroke-dasharray:985 987;stroke-dashoffset:986;}.start .TZWjpPBL_10{animation:TZWjpPBL_draw 1500ms linear 0ms forwards;}.TZWjpPBL_11{stroke-dasharray:840 842;stroke-dashoffset:841;}.start .TZWjpPBL_11{animation:TZWjpPBL_draw 1500ms linear 0ms forwards;}.TZWjpPBL_12{stroke-dasharray:1370 1372;stroke-dashoffset:1371;}.start .TZWjpPBL_12{animation:TZWjpPBL_draw 1500ms linear 0ms forwards;}.TZWjpPBL_13{stroke-dasharray:1588 1590;stroke-dashoffset:1589;}.start .TZWjpPBL_13{animation:TZWjpPBL_draw 1500ms linear 0ms forwards;}.TZWjpPBL_14{stroke-dasharray:1320 1322;stroke-dashoffset:1321;}.start .TZWjpPBL_14{animation:TZWjpPBL_draw 1500ms linear 0ms forwards;}.TZWjpPBL_15{stroke-dasharray:1403 1405;stroke-dashoffset:1404;}.start .TZWjpPBL_15{animation:TZWjpPBL_draw 1500ms linear 0ms forwards;}.TZWjpPBL_16{stroke-dasharray:1505 1507;stroke-dashoffset:1506;}.start .TZWjpPBL_16{animation:TZWjpPBL_draw 1500ms linear 0ms forwards;}.TZWjpPBL_17{stroke-dasharray:983 985;stroke-dashoffset:984;}.start .TZWjpPBL_17{animation:TZWjpPBL_draw 1500ms linear 0ms forwards;}.TZWjpPBL_18{stroke-dasharray:810 812;stroke-dashoffset:811;}.start .TZWjpPBL_18{animation:TZWjpPBL_draw 1500ms linear 0ms forwards;}.TZWjpPBL_19{stroke-dasharray:818 820;stroke-dashoffset:819;}.start .TZWjpPBL_19{animation:TZWjpPBL_draw 1500ms linear 0ms forwards;}.TZWjpPBL_20{stroke-dasharray:1009 1011;stroke-dashoffset:1010;}.start .TZWjpPBL_20{animation:TZWjpPBL_draw 1500ms linear 0ms forwards;}.TZWjpPBL_21{stroke-dasharray:1024 1026;stroke-dashoffset:1025;}.start .TZWjpPBL_21{animation:TZWjpPBL_draw 1500ms linear 0ms forwards;}.TZWjpPBL_22{stroke-dasharray:1223 1225;stroke-dashoffset:1224;}.start .TZWjpPBL_22{animation:TZWjpPBL_draw 1500ms linear 0ms forwards;}.TZWjpPBL_23{stroke-dasharray:1292 1294;stroke-dashoffset:1293;}.start .TZWjpPBL_23{animation:TZWjpPBL_draw 1500ms linear 0ms forwards;}.TZWjpPBL_24{stroke-dasharray:1346 1348;stroke-dashoffset:1347;}.start .TZWjpPBL_24{animation:TZWjpPBL_draw 1500ms linear 0ms forwards;}.TZWjpPBL_25{stroke-dasharray:1341 1343;stroke-dashoffset:1342;}.start .TZWjpPBL_25{animation:TZWjpPBL_draw 1500ms linear 0ms forwards;}.TZWjpPBL_26{stroke-dasharray:1602 1604;stroke-dashoffset:1603;}.start .TZWjpPBL_26{animation:TZWjpPBL_draw 1500ms linear 0ms forwards;}.TZWjpPBL_27{stroke-dasharray:1208 1210;stroke-dashoffset:1209;}.start .TZWjpPBL_27{animation:TZWjpPBL_draw 1500ms linear 0ms forwards;}.TZWjpPBL_28{stroke-dasharray:1381 1383;stroke-dashoffset:1382;}.start .TZWjpPBL_28{animation:TZWjpPBL_draw 1500ms linear 0ms forwards;}.TZWjpPBL_29{stroke-dasharray:1461 1463;stroke-dashoffset:1462;}.start .TZWjpPBL_29{animation:TZWjpPBL_draw 1500ms linear 0ms forwards;}.TZWjpPBL_30{stroke-dasharray:269 271;stroke-dashoffset:270;}.start .TZWjpPBL_30{animation:TZWjpPBL_draw 1500ms linear 0ms forwards;}.TZWjpPBL_31{stroke-dasharray:830 832;stroke-dashoffset:831;}.start .TZWjpPBL_31{animation:TZWjpPBL_draw 1500ms linear 0ms forwards;}.TZWjpPBL_32{stroke-dasharray:1455 1457;stroke-dashoffset:1456;}.start .TZWjpPBL_32{animation:TZWjpPBL_draw 1500ms linear 0ms forwards;}.TZWjpPBL_33{stroke-dasharray:1207 1209;stroke-dashoffset:1208;}.start .TZWjpPBL_33{animation:TZWjpPBL_draw 1500ms linear 0ms forwards;}.TZWjpPBL_34{stroke-dasharray:515 517;stroke-dashoffset:516;}.start .TZWjpPBL_34{animation:TZWjpPBL_draw 1500ms linear 0ms forwards;}.TZWjpPBL_35{stroke-dasharray:1313 1315;stroke-dashoffset:1314;}.start .TZWjpPBL_35{animation:TZWjpPBL_draw 1500ms linear 0ms forwards;}.TZWjpPBL_36{stroke-dasharray:390 392;stroke-dashoffset:391;}.start .TZWjpPBL_36{animation:TZWjpPBL_draw 1500ms linear 0ms forwards;}.TZWjpPBL_37{stroke-dasharray:1361 1363;stroke-dashoffset:1362;}.start .TZWjpPBL_37{animation:TZWjpPBL_draw 1500ms linear 0ms forwards;}.TZWjpPBL_38{stroke-dasharray:200 202;stroke-dashoffset:201;}.start .TZWjpPBL_38{animation:TZWjpPBL_draw 1500ms linear 0ms forwards;}.TZWjpPBL_39{stroke-dasharray:362 364;stroke-dashoffset:363;}.start .TZWjpPBL_39{animation:TZWjpPBL_draw 1500ms linear 0ms forwards;}.TZWjpPBL_40{stroke-dasharray:275 277;stroke-dashoffset:276;}.start .TZWjpPBL_40{animation:TZWjpPBL_draw 1500ms linear 0ms forwards;}.TZWjpPBL_41{stroke-dasharray:95 97;stroke-dashoffset:96;}.start .TZWjpPBL_41{animation:TZWjpPBL_draw 1500ms linear 0ms forwards;}.TZWjpPBL_42{stroke-dasharray:479 481;stroke-dashoffset:480;}.start .TZWjpPBL_42{animation:TZWjpPBL_draw 1500ms linear 0ms forwards;}.TZWjpPBL_43{stroke-dasharray:423 425;stroke-dashoffset:424;}.start .TZWjpPBL_43{animation:TZWjpPBL_draw 1500ms linear 0ms forwards;}.TZWjpPBL_44{stroke-dasharray:391 393;stroke-dashoffset:392;}.start .TZWjpPBL_44{animation:TZWjpPBL_draw 1500ms linear 0ms forwards;}.TZWjpPBL_45{stroke-dasharray:792 794;stroke-dashoffset:793;}.start .TZWjpPBL_45{animation:TZWjpPBL_draw 1500ms linear 0ms forwards;}.TZWjpPBL_46{stroke-dasharray:882 884;stroke-dashoffset:883;}.start .TZWjpPBL_46{animation:TZWjpPBL_draw 1500ms linear 0ms forwards;}.TZWjpPBL_47{stroke-dasharray:346 348;stroke-dashoffset:347;}.start .TZWjpPBL_47{animation:TZWjpPBL_draw 1500ms linear 0ms forwards;}.TZWjpPBL_48{stroke-dasharray:426 428;stroke-dashoffset:427;}.start .TZWjpPBL_48{animation:TZWjpPBL_draw 1500ms linear 0ms forwards;}.TZWjpPBL_49{stroke-dasharray:106 108;stroke-dashoffset:107;}.start .TZWjpPBL_49{animation:TZWjpPBL_draw 1500ms linear 0ms forwards;}.TZWjpPBL_50{stroke-dasharray:60 62;stroke-dashoffset:61;}.start .TZWjpPBL_50{animation:TZWjpPBL_draw 1500ms linear 0ms forwards;}.TZWjpPBL_51{stroke-dasharray:431 433;stroke-dashoffset:432;}.start .TZWjpPBL_51{animation:TZWjpPBL_draw 1500ms linear 0ms forwards;}.TZWjpPBL_52{stroke-dasharray:1060 1062;stroke-dashoffset:1061;}.start .TZWjpPBL_52{animation:TZWjpPBL_draw 1500ms linear 0ms forwards;}.TZWjpPBL_53{stroke-dasharray:233 235;stroke-dashoffset:234;}.start .TZWjpPBL_53{animation:TZWjpPBL_draw 1500ms linear 0ms forwards;}.TZWjpPBL_54{stroke-dasharray:355 357;stroke-dashoffset:356;}.start .TZWjpPBL_54{animation:TZWjpPBL_draw 1500ms linear 0ms forwards;}.TZWjpPBL_55{stroke-dasharray:244 246;stroke-dashoffset:245;}.start .TZWjpPBL_55{animation:TZWjpPBL_draw 1500ms linear 0ms forwards;}.TZWjpPBL_56{stroke-dasharray:1013 1015;stroke-dashoffset:1014;}.start .TZWjpPBL_56{animation:TZWjpPBL_draw 1500ms linear 0ms forwards;}.TZWjpPBL_57{stroke-dasharray:364 366;stroke-dashoffset:365;}.start .TZWjpPBL_57{animation:TZWjpPBL_draw 1500ms linear 0ms forwards;}.TZWjpPBL_58{stroke-dasharray:717 719;stroke-dashoffset:718;}.start .TZWjpPBL_58{animation:TZWjpPBL_draw 1500ms linear 0ms forwards;}.TZWjpPBL_59{stroke-dasharray:839 841;stroke-dashoffset:840;}.start .TZWjpPBL_59{animation:TZWjpPBL_draw 1500ms linear 0ms forwards;}.TZWjpPBL_60{stroke-dasharray:137 139;stroke-dashoffset:138;}.start .TZWjpPBL_60{animation:TZWjpPBL_draw 1500ms linear 0ms forwards;}.TZWjpPBL_61{stroke-dasharray:606 608;stroke-dashoffset:607;}.start .TZWjpPBL_61{animation:TZWjpPBL_draw 1500ms linear 0ms forwards;}.TZWjpPBL_62{stroke-dasharray:781 783;stroke-dashoffset:782;}.start .TZWjpPBL_62{animation:TZWjpPBL_draw 1500ms linear 0ms forwards;}.TZWjpPBL_63{stroke-dasharray:511 513;stroke-dashoffset:512;}.start .TZWjpPBL_63{animation:TZWjpPBL_draw 1500ms linear 0ms forwards;}.TZWjpPBL_64{stroke-dasharray:568 570;stroke-dashoffset:569;}.start .TZWjpPBL_64{animation:TZWjpPBL_draw 1500ms linear 0ms forwards;}.TZWjpPBL_65{stroke-dasharray:419 421;stroke-dashoffset:420;}.start .TZWjpPBL_65{animation:TZWjpPBL_draw 1500ms linear 0ms forwards;}.TZWjpPBL_66{stroke-dasharray:244 246;stroke-dashoffset:245;}.start .TZWjpPBL_66{animation:TZWjpPBL_draw 1500ms linear 0ms forwards;}.TZWjpPBL_67{stroke-dasharray:493 495;stroke-dashoffset:494;}.start .TZWjpPBL_67{animation:TZWjpPBL_draw 1500ms linear 0ms forwards;}.TZWjpPBL_68{stroke-dasharray:355 357;stroke-dashoffset:356;}.start .TZWjpPBL_68{animation:TZWjpPBL_draw 1500ms linear 0ms forwards;}.TZWjpPBL_69{stroke-dasharray:262 264;stroke-dashoffset:263;}.start .TZWjpPBL_69{animation:TZWjpPBL_draw 1500ms linear 0ms forwards;}.TZWjpPBL_70{stroke-dasharray:364 366;stroke-dashoffset:365;}.start .TZWjpPBL_70{animation:TZWjpPBL_draw 1500ms linear 0ms forwards;}.TZWjpPBL_71{stroke-dasharray:347 349;stroke-dashoffset:348;}.start .TZWjpPBL_71{animation:TZWjpPBL_draw 1500ms linear 0ms forwards;}.TZWjpPBL_72{stroke-dasharray:310 312;stroke-dashoffset:311;}.start .TZWjpPBL_72{animation:TZWjpPBL_draw 1500ms linear 0ms forwards;}.TZWjpPBL_73{stroke-dasharray:240 242;stroke-dashoffset:241;}.start .TZWjpPBL_73{animation:TZWjpPBL_draw 1500ms linear 0ms forwards;}.TZWjpPBL_74{stroke-dasharray:223 225;stroke-dashoffset:224;}.start .TZWjpPBL_74{animation:TZWjpPBL_draw 1500ms linear 0ms forwards;}.TZWjpPBL_75{stroke-dasharray:453 455;stroke-dashoffset:454;}.start .TZWjpPBL_75{animation:TZWjpPBL_draw 1500ms linear 0ms forwards;}.TZWjpPBL_76{stroke-dasharray:972 974;stroke-dashoffset:973;}.start .TZWjpPBL_76{animation:TZWjpPBL_draw 1500ms linear 0ms forwards;}.TZWjpPBL_77{stroke-dasharray:1341 1343;stroke-dashoffset:1342;}.start .TZWjpPBL_77{animation:TZWjpPBL_draw 1500ms linear 0ms forwards;}.TZWjpPBL_78{stroke-dasharray:941 943;stroke-dashoffset:942;}.start .TZWjpPBL_78{animation:TZWjpPBL_draw 1500ms linear 0ms forwards;}.TZWjpPBL_79{stroke-dasharray:600 602;stroke-dashoffset:601;}.start .TZWjpPBL_79{animation:TZWjpPBL_draw 1500ms linear 0ms forwards;}.TZWjpPBL_80{stroke-dasharray:544 546;stroke-dashoffset:545;}.start .TZWjpPBL_80{animation:TZWjpPBL_draw 1500ms linear 0ms forwards;}.TZWjpPBL_81{stroke-dasharray:586 588;stroke-dashoffset:587;}.start .TZWjpPBL_81{animation:TZWjpPBL_draw 1500ms linear 0ms forwards;}.TZWjpPBL_82{stroke-dasharray:323 325;stroke-dashoffset:324;}.start .TZWjpPBL_82{animation:TZWjpPBL_draw 1500ms linear 0ms forwards;}.TZWjpPBL_83{stroke-dasharray:241 243;stroke-dashoffset:242;}.start .TZWjpPBL_83{animation:TZWjpPBL_draw 1500ms linear 0ms forwards;}.TZWjpPBL_84{stroke-dasharray:140 142;stroke-dashoffset:141;}.start .TZWjpPBL_84{animation:TZWjpPBL_draw 1500ms linear 0ms forwards;}.TZWjpPBL_85{stroke-dasharray:168 170;stroke-dashoffset:169;}.start .TZWjpPBL_85{animation:TZWjpPBL_draw 1500ms linear 0ms forwards;}.TZWjpPBL_86{stroke-dasharray:1454 1456;stroke-dashoffset:1455;}.start .TZWjpPBL_86{animation:TZWjpPBL_draw 1500ms linear 0ms forwards;}.TZWjpPBL_87{stroke-dasharray:122 124;stroke-dashoffset:123;}.start .TZWjpPBL_87{animation:TZWjpPBL_draw 1500ms linear 0ms forwards;}.TZWjpPBL_88{stroke-dasharray:164 166;stroke-dashoffset:165;}.start .TZWjpPBL_88{animation:TZWjpPBL_draw 1500ms linear 0ms forwards;}.TZWjpPBL_89{stroke-dasharray:93 95;stroke-dashoffset:94;}.start .TZWjpPBL_89{animation:TZWjpPBL_draw 1500ms linear 0ms forwards;}.TZWjpPBL_90{stroke-dasharray:592 594;stroke-dashoffset:593;}.start .TZWjpPBL_90{animation:TZWjpPBL_draw 1500ms linear 0ms forwards;}.TZWjpPBL_91{stroke-dasharray:290 292;stroke-dashoffset:291;}.start .TZWjpPBL_91{animation:TZWjpPBL_draw 1500ms linear 0ms forwards;}.TZWjpPBL_92{stroke-dasharray:251 253;stroke-dashoffset:252;}.start .TZWjpPBL_92{animation:TZWjpPBL_draw 1500ms linear 0ms forwards;}.TZWjpPBL_93{stroke-dasharray:359 361;stroke-dashoffset:360;}.start .TZWjpPBL_93{animation:TZWjpPBL_draw 1500ms linear 0ms forwards;}.TZWjpPBL_94{stroke-dasharray:906 908;stroke-dashoffset:907;}.start .TZWjpPBL_94{animation:TZWjpPBL_draw 1500ms linear 0ms forwards;}.TZWjpPBL_95{stroke-dasharray:1132 1134;stroke-dashoffset:1133;}.start .TZWjpPBL_95{animation:TZWjpPBL_draw 1500ms linear 0ms forwards;}.TZWjpPBL_96{stroke-dasharray:608 610;stroke-dashoffset:609;}.start .TZWjpPBL_96{animation:TZWjpPBL_draw 1500ms linear 0ms forwards;}.TZWjpPBL_97{stroke-dasharray:88 90;stroke-dashoffset:89;}.start .TZWjpPBL_97{animation:TZWjpPBL_draw 1500ms linear 0ms forwards;}.TZWjpPBL_98{stroke-dasharray:210 212;stroke-dashoffset:211;}.start .TZWjpPBL_98{animation:TZWjpPBL_draw 1500ms linear 0ms forwards;}.TZWjpPBL_99{stroke-dasharray:179 181;stroke-dashoffset:180;}.start .TZWjpPBL_99{animation:TZWjpPBL_draw 1500ms linear 0ms forwards;}.TZWjpPBL_100{stroke-dasharray:234 236;stroke-dashoffset:235;}.start .TZWjpPBL_100{animation:TZWjpPBL_draw 1500ms linear 0ms forwards;}.TZWjpPBL_101{stroke-dasharray:176 178;stroke-dashoffset:177;}.start .TZWjpPBL_101{animation:TZWjpPBL_draw 1500ms linear 0ms forwards;}.TZWjpPBL_102{stroke-dasharray:103 105;stroke-dashoffset:104;}.start .TZWjpPBL_102{animation:TZWjpPBL_draw 1500ms linear 0ms forwards;}.TZWjpPBL_103{stroke-dasharray:142 144;stroke-dashoffset:143;}.start .TZWjpPBL_103{animation:TZWjpPBL_draw 1500ms linear 0ms forwards;}.TZWjpPBL_104{stroke-dasharray:88 90;stroke-dashoffset:89;}.start .TZWjpPBL_104{animation:TZWjpPBL_draw 1500ms linear 0ms forwards;}.TZWjpPBL_105{stroke-dasharray:981 983;stroke-dashoffset:982;}.start .TZWjpPBL_105{animation:TZWjpPBL_draw 1500ms linear 0ms forwards;}.TZWjpPBL_106{stroke-dasharray:380 382;stroke-dashoffset:381;}.start .TZWjpPBL_106{animation:TZWjpPBL_draw 1500ms linear 0ms forwards;}.TZWjpPBL_107{stroke-dasharray:166 168;stroke-dashoffset:167;}.start .TZWjpPBL_107{animation:TZWjpPBL_draw 1500ms linear 0ms forwards;}.TZWjpPBL_108{stroke-dasharray:501 503;stroke-dashoffset:502;}.start .TZWjpPBL_108{animation:TZWjpPBL_draw 1500ms linear 0ms forwards;}.TZWjpPBL_109{stroke-dasharray:289 291;stroke-dashoffset:290;}.start .TZWjpPBL_109{animation:TZWjpPBL_draw 1500ms linear 0ms forwards;}.TZWjpPBL_110{stroke-dasharray:852 854;stroke-dashoffset:853;}.start .TZWjpPBL_110{animation:TZWjpPBL_draw 1500ms linear 0ms forwards;}.TZWjpPBL_111{stroke-dasharray:515 517;stroke-dashoffset:516;}.start .TZWjpPBL_111{animation:TZWjpPBL_draw 1500ms linear 0ms forwards;}.TZWjpPBL_112{stroke-dasharray:221 223;stroke-dashoffset:222;}.start .TZWjpPBL_112{animation:TZWjpPBL_draw 1500ms linear 0ms forwards;}.TZWjpPBL_113{stroke-dasharray:708 710;stroke-dashoffset:709;}.start .TZWjpPBL_113{animation:TZWjpPBL_draw 1500ms linear 0ms forwards;}.TZWjpPBL_114{stroke-dasharray:502 504;stroke-dashoffset:503;}.start .TZWjpPBL_114{animation:TZWjpPBL_draw 1500ms linear 0ms forwards;}.TZWjpPBL_115{stroke-dasharray:409 411;stroke-dashoffset:410;}.start .TZWjpPBL_115{animation:TZWjpPBL_draw 1500ms linear 0ms forwards;}.TZWjpPBL_116{stroke-dasharray:906 908;stroke-dashoffset:907;}.start .TZWjpPBL_116{animation:TZWjpPBL_draw 1500ms linear 0ms forwards;}.TZWjpPBL_117{stroke-dasharray:128 130;stroke-dashoffset:129;}.start .TZWjpPBL_117{animation:TZWjpPBL_draw 1500ms linear 0ms forwards;}.TZWjpPBL_118{stroke-dasharray:522 524;stroke-dashoffset:523;}.start .TZWjpPBL_118{animation:TZWjpPBL_draw 1500ms linear 0ms forwards;}.TZWjpPBL_119{stroke-dasharray:153 155;stroke-dashoffset:154;}.start .TZWjpPBL_119{animation:TZWjpPBL_draw 1500ms linear 0ms forwards;}.TZWjpPBL_120{stroke-dasharray:371 373;stroke-dashoffset:372;}.start .TZWjpPBL_120{animation:TZWjpPBL_draw 1500ms linear 0ms forwards;}.TZWjpPBL_121{stroke-dasharray:1003 1005;stroke-dashoffset:1004;}.start .TZWjpPBL_121{animation:TZWjpPBL_draw 1500ms linear 0ms forwards;}.TZWjpPBL_122{stroke-dasharray:69 71;stroke-dashoffset:70;}.start .TZWjpPBL_122{animation:TZWjpPBL_draw 1500ms linear 0ms forwards;}.TZWjpPBL_123{stroke-dasharray:89 91;stroke-dashoffset:90;}.start .TZWjpPBL_123{animation:TZWjpPBL_draw 1500ms linear 0ms forwards;}.TZWjpPBL_124{stroke-dasharray:353 355;stroke-dashoffset:354;}.start .TZWjpPBL_124{animation:TZWjpPBL_draw 1500ms linear 0ms forwards;}.TZWjpPBL_125{stroke-dasharray:1431 1433;stroke-dashoffset:1432;}.start .TZWjpPBL_125{animation:TZWjpPBL_draw 1500ms linear 0ms forwards;}.TZWjpPBL_126{stroke-dasharray:499 501;stroke-dashoffset:500;}.start .TZWjpPBL_126{animation:TZWjpPBL_draw 1500ms linear 0ms forwards;}.TZWjpPBL_127{stroke-dasharray:214 216;stroke-dashoffset:215;}.start .TZWjpPBL_127{animation:TZWjpPBL_draw 1500ms linear 0ms forwards;}.TZWjpPBL_128{stroke-dasharray:398 400;stroke-dashoffset:399;}.start .TZWjpPBL_128{animation:TZWjpPBL_draw 1500ms linear 0ms forwards;}.TZWjpPBL_129{stroke-dasharray:421 423;stroke-dashoffset:422;}.start .TZWjpPBL_129{animation:TZWjpPBL_draw 1500ms linear 0ms forwards;}.TZWjpPBL_130{stroke-dasharray:158 160;stroke-dashoffset:159;}.start .TZWjpPBL_130{animation:TZWjpPBL_draw 1500ms linear 0ms forwards;}.TZWjpPBL_131{stroke-dasharray:477 479;stroke-dashoffset:478;}.start .TZWjpPBL_131{animation:TZWjpPBL_draw 1500ms linear 0ms forwards;}.TZWjpPBL_132{stroke-dasharray:527 529;stroke-dashoffset:528;}.start .TZWjpPBL_132{animation:TZWjpPBL_draw 1500ms linear 0ms forwards;}.TZWjpPBL_133{stroke-dasharray:912 914;stroke-dashoffset:913;}.start .TZWjpPBL_133{animation:TZWjpPBL_draw 1500ms linear 0ms forwards;}.TZWjpPBL_134{stroke-dasharray:501 503;stroke-dashoffset:502;}.start .TZWjpPBL_134{animation:TZWjpPBL_draw 1500ms linear 0ms forwards;}.TZWjpPBL_135{stroke-dasharray:288 290;stroke-dashoffset:289;}.start .TZWjpPBL_135{animation:TZWjpPBL_draw 1500ms linear 0ms forwards;}.TZWjpPBL_136{stroke-dasharray:223 225;stroke-dashoffset:224;}.start .TZWjpPBL_136{animation:TZWjpPBL_draw 1500ms linear 0ms forwards;}.TZWjpPBL_137{stroke-dasharray:257 259;stroke-dashoffset:258;}.start .TZWjpPBL_137{animation:TZWjpPBL_draw 1500ms linear 0ms forwards;}.TZWjpPBL_138{stroke-dasharray:209 211;stroke-dashoffset:210;}.start .TZWjpPBL_138{animation:TZWjpPBL_draw 1500ms linear 0ms forwards;}.TZWjpPBL_139{stroke-dasharray:124 126;stroke-dashoffset:125;}.start .TZWjpPBL_139{animation:TZWjpPBL_draw 1500ms linear 0ms forwards;}.TZWjpPBL_140{stroke-dasharray:292 294;stroke-dashoffset:293;}.start .TZWjpPBL_140{animation:TZWjpPBL_draw 1500ms linear 0ms forwards;}.TZWjpPBL_141{stroke-dasharray:100 102;stroke-dashoffset:101;}.start .TZWjpPBL_141{animation:TZWjpPBL_draw 1500ms linear 0ms forwards;}.TZWjpPBL_142{stroke-dasharray:66 68;stroke-dashoffset:67;}.start .TZWjpPBL_142{animation:TZWjpPBL_draw 1500ms linear 0ms forwards;}.TZWjpPBL_143{stroke-dasharray:1343 1345;stroke-dashoffset:1344;}.start .TZWjpPBL_143{animation:TZWjpPBL_draw 1500ms linear 0ms forwards;}.TZWjpPBL_144{stroke-dasharray:1011 1013;stroke-dashoffset:1012;}.start .TZWjpPBL_144{animation:TZWjpPBL_draw 1500ms linear 0ms forwards;}.TZWjpPBL_145{stroke-dasharray:554 556;stroke-dashoffset:555;}.start .TZWjpPBL_145{animation:TZWjpPBL_draw 1500ms linear 0ms forwards;}.TZWjpPBL_146{stroke-dasharray:638 640;stroke-dashoffset:639;}.start .TZWjpPBL_146{animation:TZWjpPBL_draw 1500ms linear 0ms forwards;}.TZWjpPBL_147{stroke-dasharray:461 463;stroke-dashoffset:462;}.start .TZWjpPBL_147{animation:TZWjpPBL_draw 1500ms linear 0ms forwards;}.TZWjpPBL_148{stroke-dasharray:266 268;stroke-dashoffset:267;}.start .TZWjpPBL_148{animation:TZWjpPBL_draw 1500ms linear 0ms forwards;}.TZWjpPBL_149{stroke-dasharray:1286 1288;stroke-dashoffset:1287;}.start .TZWjpPBL_149{animation:TZWjpPBL_draw 1500ms linear 0ms forwards;}.TZWjpPBL_150{stroke-dasharray:397 399;stroke-dashoffset:398;}.start .TZWjpPBL_150{animation:TZWjpPBL_draw 1500ms linear 0ms forwards;}.TZWjpPBL_151{stroke-dasharray:898 900;stroke-dashoffset:899;}.start .TZWjpPBL_151{animation:TZWjpPBL_draw 1500ms linear 0ms forwards;}.TZWjpPBL_152{stroke-dasharray:170 172;stroke-dashoffset:171;}.start .TZWjpPBL_152{animation:TZWjpPBL_draw 1500ms linear 0ms forwards;}.TZWjpPBL_153{stroke-dasharray:1046 1048;stroke-dashoffset:1047;}.start .TZWjpPBL_153{animation:TZWjpPBL_draw 1500ms linear 0ms forwards;}.TZWjpPBL_154{stroke-dasharray:892 894;stroke-dashoffset:893;}.start .TZWjpPBL_154{animation:TZWjpPBL_draw 1500ms linear 0ms forwards;}.TZWjpPBL_155{stroke-dasharray:492 494;stroke-dashoffset:493;}.start .TZWjpPBL_155{animation:TZWjpPBL_draw 1500ms linear 0ms forwards;}.TZWjpPBL_156{stroke-dasharray:40 42;stroke-dashoffset:41;}.start .TZWjpPBL_156{animation:TZWjpPBL_draw 1500ms linear 0ms forwards;}.TZWjpPBL_157{stroke-dasharray:75 77;stroke-dashoffset:76;}.start .TZWjpPBL_157{animation:TZWjpPBL_draw 1500ms linear 0ms forwards;}.TZWjpPBL_158{stroke-dasharray:855 857;stroke-dashoffset:856;}.start .TZWjpPBL_158{animation:TZWjpPBL_draw 1500ms linear 0ms forwards;}.TZWjpPBL_159{stroke-dasharray:564 566;stroke-dashoffset:565;}.start .TZWjpPBL_159{animation:TZWjpPBL_draw 1500ms linear 0ms forwards;}.TZWjpPBL_160{stroke-dasharray:507 509;stroke-dashoffset:508;}.start .TZWjpPBL_160{animation:TZWjpPBL_draw 1500ms linear 0ms forwards;}.TZWjpPBL_161{stroke-dasharray:679 681;stroke-dashoffset:680;}.start .TZWjpPBL_161{animation:TZWjpPBL_draw 1500ms linear 0ms forwards;}.TZWjpPBL_162{stroke-dasharray:427 429;stroke-dashoffset:428;}.start .TZWjpPBL_162{animation:TZWjpPBL_draw 1500ms linear 0ms forwards;}.TZWjpPBL_163{stroke-dasharray:486 488;stroke-dashoffset:487;}.start .TZWjpPBL_163{animation:TZWjpPBL_draw 1500ms linear 0ms forwards;}.TZWjpPBL_164{stroke-dasharray:321 323;stroke-dashoffset:322;}.start .TZWjpPBL_164{animation:TZWjpPBL_draw 1500ms linear 0ms forwards;}.TZWjpPBL_165{stroke-dasharray:311 313;stroke-dashoffset:312;}.start .TZWjpPBL_165{animation:TZWjpPBL_draw 1500ms linear 0ms forwards;}.TZWjpPBL_166{stroke-dasharray:62 64;stroke-dashoffset:63;}.start .TZWjpPBL_166{animation:TZWjpPBL_draw 1500ms linear 0ms forwards;}.TZWjpPBL_167{stroke-dasharray:345 347;stroke-dashoffset:346;}.start .TZWjpPBL_167{animation:TZWjpPBL_draw 1500ms linear 0ms forwards;}.TZWjpPBL_168{stroke-dasharray:151 153;stroke-dashoffset:152;}.start .TZWjpPBL_168{animation:TZWjpPBL_draw 1500ms linear 0ms forwards;}.TZWjpPBL_169{stroke-dasharray:78 80;stroke-dashoffset:79;}.start .TZWjpPBL_169{animation:TZWjpPBL_draw 1500ms linear 0ms forwards;}.TZWjpPBL_170{stroke-dasharray:90 92;stroke-dashoffset:91;}.start .TZWjpPBL_170{animation:TZWjpPBL_draw 1500ms linear 0ms forwards;}.TZWjpPBL_171{stroke-dasharray:90 92;stroke-dashoffset:91;}.start .TZWjpPBL_171{animation:TZWjpPBL_draw 1500ms linear 0ms forwards;}.TZWjpPBL_172{stroke-dasharray:90 92;stroke-dashoffset:91;}.start .TZWjpPBL_172{animation:TZWjpPBL_draw 1500ms linear 0ms forwards;}.TZWjpPBL_173{stroke-dasharray:90 92;stroke-dashoffset:91;}.start .TZWjpPBL_173{animation:TZWjpPBL_draw 1500ms linear 0ms forwards;}@keyframes TZWjpPBL_draw{100%{stroke-dashoffset:0;}}@keyframes TZWjpPBL_fade{0%{stroke-opacity:1;}92.98245614035088%{stroke-opacity:1;}100%{stroke-opacity:0;}}</style></svg>
