<?xml version="1.0" encoding="utf-8"?>
<!-- Generator: Adobe Illustrator 23.1.0, SVG Export Plug-In . SVG Version: 6.00 Build 0)  -->
<svg version="1.1" id="Layer_1" xmlns="http://www.w3.org/2000/svg" xmlns:xlink="http://www.w3.org/1999/xlink" x="0px" y="0px"
	 viewBox="0 0 3000 1800" style="enable-background:new 0 0 3000 1800;" xml:space="preserve">
<style type="text/css">
	.st0{opacity:0.5;}
	.st1{fill:none;stroke:#ED1C24;stroke-miterlimit:10;}
	.st2{fill:none;stroke:#18FFFF;stroke-linecap:round;stroke-linejoin:round;stroke-miterlimit:10;}
</style>
<g class="st0">
	<polyline class="st1" points="1381.7,612.5 1381.7,395.3 1333.4,347 1267.5,281.1 1267.5,151.3 1169.8,53.6 1169.8,-30.3 
		1181.5,-42 1181.5,-105.3 	"/>
	<polyline class="st1" points="1431.7,612.5 1431.7,388.7 1334.2,291.2 1334.2,143.6 1232.1,41.5 1232.1,-117.3 	"/>
	<polyline class="st1" points="1475.5,612.5 1475.5,367 1573.3,269.3 1573.3,66.4 1588.1,51.6 1588.1,-59.9 1635.1,-106.9 	"/>
	<polyline class="st1" points="1533.4,611.1 1533.4,397 1629.3,301.2 1629.3,98.6 1648.9,79 1648.9,-3.1 1756.9,-111.1 	"/>
	<polyline class="st1" points="2106.9,-117.3 2001,-11.4 2001,26.1 1938.5,88.6 1938.5,152 1821.8,268.7 1740.1,268.7 1613.4,395.3 
		1613.4,502 1585.1,530.4 1585.1,611.1 	"/>
	<polyline class="st1" points="1678.5,617.1 1805.2,490.4 1805.2,450.4 1970.2,285.3 1970.2,232.8 2058.1,144.9 2150.2,144.9 
		2175.9,119.2 2175.9,-8.1 2273.1,-105.3 	"/>
	<polyline class="st1" points="1273.8,612.5 1211.7,550.4 1211.7,432 1095,315.3 853.3,315.3 776.2,238.2 776.2,175.3 747.2,146.3 
		747.2,45.3 651,-50.9 651,-113.2 	"/>
	<polyline class="st1" points="1205.1,798.8 920,798.8 762.4,641.2 641.6,641.2 612.8,612.5 376.3,612.5 330.3,658.6 80.3,658.6 
		-3.7,742.6 	"/>
	<polyline class="st1" points="1199.8,837.1 703.2,837.1 607.4,741.3 479.8,741.3 412.4,808.7 136.9,808.7 95.9,849.7 -4.7,849.7 	
		"/>
	<polyline class="st1" points="1205.1,880.5 817.4,880.5 712,985.9 576.5,985.9 548,957.4 222.4,957.4 189.7,990.1 -4.7,990.1 	"/>
	<polyline class="st1" points="1635.2,611.1 1635.2,567.1 1745.7,456.6 1745.7,347 1771.3,321.4 1828.5,321.4 2089.5,60.4 
		2089.5,-19.7 2183,-113.2 	"/>
	<polyline class="st1" points="1333.4,611.1 1333.4,403.7 1084.2,154.5 1084.2,53.6 1066.2,35.7 1066.2,-117.3 	"/>
	<polyline class="st1" points="1205.1,741.3 995,741.3 799.5,545.8 708.2,545.8 683.4,570.6 619.9,570.6 588.6,539.3 331.6,539.3 
		294.7,576.2 48.7,576.2 -17.6,642.5 	"/>
	<polyline class="st1" points="1205.1,685.4 1025,685.4 835.9,496.4 679.9,496.4 547.7,364.2 501.5,364.2 338.9,364.2 297.5,322.9 
		204.9,230.3 70.4,230.3 45.8,205.6 45.8,68.4 -19.8,2.8 	"/>
	<polyline class="st1" points="1205.1,933.2 930,933.2 845.6,1017.5 804.9,1017.5 747.6,1074.9 584.9,1074.9 566.2,1093.5 
		261.9,1093.5 216,1139.4 135.6,1139.4 87,1090.9 -8.6,1090.9 	"/>
	<polyline class="st1" points="1205,1020.5 986.6,1020.5 837.6,1169.5 666.6,1169.5 641.9,1194.2 641.9,1237.2 572.5,1306.6 
		507.2,1306.6 321.1,1306.6 282.2,1267.6 121.1,1267.6 113.5,1275.2 -34.1,1275.2 	"/>
	<polyline class="st1" points="1218.7,1097.3 1075.8,1240.1 1075.8,1322.2 1041.2,1356.8 798.3,1356.8 677.8,1477.3 677.8,1555.6 
		652.7,1580.7 548.2,1580.7 511.9,1617 331.6,1617 252.7,1695.9 252.7,1798.5 221.1,1830.1 221.1,1879.5 	"/>
	<polyline class="st1" points="1273.5,1153.3 1198.2,1228.7 1198.2,1358.9 1101.4,1455.7 971.2,1455.7 870.4,1556.5 870.4,1617 
		859,1628.4 859,1704 905.9,1750.9 905.9,1868.3 	"/>
	<polyline class="st1" points="1431.7,1151.9 1431.7,1372.2 1317.5,1486.4 1317.5,1617 1268.6,1665.9 1268.6,1699 1216,1751.6 
		1216,1872.2 	"/>
	<polyline class="st1" points="1538.4,1147.2 1538.4,1350.4 1663.5,1475.5 1663.5,1707.3 1734.4,1778.1 1734.4,1817.4 
		1762.8,1845.8 1762.8,1872.2 	"/>
	<polyline class="st1" points="1593.5,1151.9 1725.3,1283.7 1725.3,1402.6 1855.3,1532.6 1855.3,1574.9 1906,1625.6 2007.8,1625.6 
		2052.9,1670.6 2052.9,1778.8 2146.2,1872.2 	"/>
	<polyline class="st1" points="1689.3,1138 1826.8,1275.6 1826.8,1392.3 1981,1546.5 2091.9,1546.5 2162.2,1616.7 2162.2,1779 
		2248,1864.9 	"/>
	<polyline class="st1" points="1722.4,1110.7 1878.7,1267.1 1878.7,1365.6 1980.6,1467.5 2026.9,1467.5 2060.3,1500.9 
		2278.9,1500.9 2423.4,1645.5 2423.4,1791.3 2403.8,1811 2403.8,1879.5 	"/>
	<polyline class="st1" points="1746.6,1057.1 1900.2,1210.7 1930.5,1210.7 2022.1,1302.3 2022.1,1403.8 2072.2,1453.9 
		2322.3,1453.9 2466.8,1598.4 2466.8,1811 2451.6,1826.2 2451.6,1879.5 	"/>
	<polyline class="st1" points="1746.5,1013.4 1957.8,1013.4 1992.7,978.4 2056.9,978.4 2134.6,1056.1 2245.3,1056.1 2342.5,1153.3 
		2450.3,1153.3 2471.5,1174.5 2807.8,1174.5 2906.7,1273.5 2955.7,1273.5 	"/>
	<polyline class="st1" points="1746,837.1 1963.5,837.1 2123.6,997.2 2286.9,997.2 2309.7,974.4 2375.3,974.4 2443.3,1042.5 
		2755.1,1042.5 2795.4,1002.2 2965.6,1002.2 	"/>
	<polyline class="st1" points="1746.5,732.1 2026.9,732.1 2073.6,685.4 2271.9,685.4 2360.3,597.1 2432,597.1 2471.1,557.9 
		2747.2,557.9 2924.7,380.5 2924.7,167.1 2970.4,121.3 	"/>
	<polyline class="st1" points="1722.4,655.2 1745.9,631.7 1794.7,631.7 1860.7,565.8 1938.5,565.8 2038,466.3 2038,331.9 
		2089.9,279.9 2205.2,279.9 2302.4,182.7 2302.4,17.1 2435.2,-115.8 	"/>
	<polyline class="st1" points="1745.9,692.2 1813.4,692.2 1820.2,685.4 1931.9,685.4 2076.1,541.2 2076.1,438.7 2187.3,327.4 
		2383.6,327.4 2437,274 2437,103.9 2568.5,-27.5 2568.5,-127.6 	"/>
	<polyline class="st1" points="1842,1075.5 1925.6,1075.5 2082.1,1232 2082.1,1330.6 2162,1410.5 2357,1410.5 2392.8,1446.4 
		2613,1446.4 2668.1,1501.4 2884.1,1501.4 2921,1464.5 2921,1401.2 2950.2,1372 2977.5,1372 	"/>
	<polyline class="st1" points="1381.7,1153.3 1381.7,1355.6 1334.7,1402.6 	"/>
	<polyline class="st1" points="1331.9,1153.3 1331.9,1363.9 1082.8,1613.1 1082.8,1809 1064.5,1827.3 1064.5,1872.2 	"/>
	<polyline class="st1" points="1205,1083.8 1033.3,1083.8 846.2,1270.9 666.6,1270.9 560.9,1376.6 560.9,1423.9 510.5,1474.3 
		263.2,1474.3 232.3,1505.1 92.2,1505.1 -6.4,1603.7 	"/>
	<polyline class="st1" points="1241,645.5 1177.6,582.1 1138.3,582.1 1092.5,536.2 1092.5,444.3 1044.3,396 793.3,396 659.5,262.3 
		659.5,93.6 573.8,7.8 573.8,-35.5 591.7,-53.4 591.7,-106.9 	"/>
	<polyline class="st1" points="1285,-117.3 1285,5.3 1396.7,117 1396.7,262.6 1459.2,325 	"/>
	<polyline class="st1" points="1746.5,785.4 2006.9,785.4 2131.5,910.1 2370.3,910.1 2448.2,988 2720.9,988 2768.1,940.8 
		2955.7,940.8 	"/>
	<polyline class="st1" points="1339.7,-105.3 1339.7,-16.5 1450.3,94.1 1450.3,238.1 	"/>
	<polyline class="st1" points="1155.8,636 1070.1,636 889.4,455.3 724.8,455.3 597.6,328.1 582.9,313.4 427.7,313.4 316.3,202.1 
		316.3,40.8 287.8,12.2 287.8,-81.2 320.7,-114.1 	"/>
	<polyline class="st1" points="952.6,456.2 989.1,456.2 1046.4,513.4 1046.4,549.9 1078.9,582.5 	"/>
	<polyline class="st1" points="1126.3,-106.9 1126.3,103.8 1232.6,210.1 	"/>
	<polyline class="st1" points="1520.5,-117.3 1520.5,-42.1 1506.1,-27.7 1506.1,151.3 	"/>
	<line class="st1" x1="1423.8" y1="-105.3" x2="1423.8" y2="-10.5"/>
	<polyline class="st1" points="1678.9,253.6 1678.9,133.5 1704.5,107.9 1704.5,27 1788.4,-56.9 1846,-56.9 1892.2,-103.1 	"/>
	<polyline class="st1" points="2022.3,-111.1 1900.3,10.9 1900.3,96 1783.7,212.7 	"/>
	<polyline class="st1" points="1722.4,182.9 1774.6,130.6 1774.6,75.2 1959.1,-109.2 	"/>
	<polyline class="st1" points="1296.1,556 1296.1,418.4 1027.6,149.9 1027.6,48.7 995.4,16.4 995.4,-111.1 	"/>
	<polyline class="st1" points="1259.7,539.3 1259.7,426.3 1092.1,258.6 975,258.6 920.5,204.1 920.5,115.8 894.8,90.2 894.8,-30.3 
		866.5,-58.6 866.5,-111.1 	"/>
	<polyline class="st1" points="938.2,-111.1 938.2,66.4 968.7,97 968.7,185.5 994.3,211.1 	"/>
	<polyline class="st1" points="818.4,-106.9 818.4,-57.9 790.1,-29.6 790.1,109.2 812.8,131.9 812.8,222.4 866,275.6 	"/>
	<polyline class="st1" points="771.1,-115.8 771.1,-86.9 741.5,-57.2 741.5,-22.4 	"/>
	<line class="st1" x1="698.7" y1="-111.1" x2="698.7" y2="-51.3"/>
	<polyline class="st1" points="843.4,-106.9 843.4,-18.4 828.2,-3.2 828.2,66.4 865.8,104 865.8,214.1 927.5,275.8 	"/>
	<polyline class="st1" points="497.4,-117.3 497.4,-51.3 458.6,-12.5 458.6,146 486.5,174 486.5,253.6 502.8,269.9 604,269.9 
		754.5,420.5 1015.8,420.5 1060.1,464.8 	"/>
	<polyline class="st1" points="1086.8,348.6 1177.9,439.7 1177.9,543 	"/>
	<polyline class="st1" points="532.9,-105.3 532.9,-39.5 504.6,-11.2 504.6,103.8 526.1,125.3 526.1,228.9 	"/>
	<polyline class="st1" points="540.8,2.8 540.8,66.4 583.3,108.9 583.3,228.9 	"/>
	<polyline class="st1" points="1139.5,519.4 1139.5,442.1 1047.4,350 985.5,350 973.7,361.8 866,361.8 851.1,346.9 804,346.9 
		715.8,258.8 715.8,238.1 737,216.9 737,190.8 702.1,155.8 702.1,61.8 622.1,-18.1 622.1,-111.1 	"/>
	<polyline class="st1" points="-17.6,76.3 15.6,109.5 15.6,246.9 51.4,282.8 180.3,282.8 	"/>
	<polyline class="st1" points="630,526.2 573.8,470 284.6,470 228.3,526.3 36.7,526.3 -17.6,580.6 	"/>
	<polyline class="st1" points="-6.4,798.8 54.7,798.8 111,742.5 364.5,742.5 425,681.9 642.7,681.9 742,781.3 	"/>
	<line class="st1" x1="721.8" y1="682.2" x2="818" y2="778.4"/>
	<polyline class="st1" points="562,579.2 345.1,579.2 311.8,612.5 81.4,612.5 56.5,637.3 31.6,637.3 -4.8,673.8 	"/>
	<polyline class="st1" points="-6.4,903.2 367.8,903.2 385.9,885.1 583.3,885.1 618.6,920.5 690.1,920.5 733.5,877.1 	"/>
	<polyline class="st1" points="180.3,849.7 458.6,849.7 511,797.3 562,797.3 583.3,797.3 644.2,858.2 	"/>
	<polyline class="st1" points="-8.6,445.8 23.6,478 180.3,478 245.7,412.7 518.8,412.7 	"/>
	<polyline class="st1" points="390.8,-111.1 346.5,-66.8 346.5,-2.6 381.2,32.1 381.2,173.8 452.6,245.2 	"/>
	<line class="st1" x1="421.1" y1="-111.1" x2="421.1" y2="132.9"/>
	<polyline class="st1" points="228.1,-111.1 228.1,38.1 255.7,65.8 255.7,204.1 373.3,321.8 	"/>
	<polyline class="st1" points="228.1,207.9 161.4,141.2 161.4,-34.2 132.4,-63.3 132.4,-106.9 	"/>
	<polyline class="st1" points="193.5,-113.2 193.5,100 227.4,134 	"/>
	<polyline class="st1" points="56.6,-117.3 18.9,-79.5 18.9,-6.6 86.9,61.5 86.9,184.2 100.1,197.3 	"/>
	<polyline class="st1" points="154.3,196.3 123.7,165.8 123.7,2.8 73.7,-47.3 73.7,-117.3 	"/>
	<polyline class="st1" points="-3.7,282.8 32.2,318.6 208,318.6 266.4,377 	"/>
	<polyline class="st1" points="208,384.2 161.9,430.3 47.4,430.3 28.1,411 -4.7,411 	"/>
	<polyline class="st1" points="-8.6,329.9 19.1,357.6 202.7,357.6 	"/>
	<polyline class="st1" points="-8.6,769.7 18.9,769.7 92.8,695.7 346.5,695.7 393.9,648.3 	"/>
	<polyline class="st1" points="-20.8,1036.3 31,1036.3 45.8,1021.5 143.5,1021.5 185.2,1063.3 202.7,1063.3 249.8,1016.2 
		518.8,1016.2 544.1,1041.5 721.8,1041.5 845.5,917.8 	"/>
	<polyline class="st1" points="-4.8,1124.9 9.5,1139.2 76.4,1139.2 117.9,1180.7 255.1,1180.7 305.5,1130.3 458.6,1130.3 
		474.8,1146.5 602.7,1146.5 647,1102.2 818,1102.2 947.6,972.5 1078.9,972.5 1097.9,991.5 1205,991.5 	"/>
	<polyline class="st1" points="822.4,1131.5 660.5,1131.5 596.1,1196 596.1,1236.7 556.6,1276.2 493.4,1276.2 471.7,1254.5 
		340.8,1254.5 320.1,1233.8 100.1,1233.8 90.7,1243.2 -13.1,1243.2 	"/>
	<polyline class="st1" points="-13.1,1172.3 14.5,1199.9 21.8,1207.1 296.1,1207.1 336.3,1167 393.9,1167 437.8,1210.8 
		536.9,1210.8 	"/>
	<polyline class="st1" points="-3.7,1306.6 121.1,1306.6 140.8,1326.3 267.1,1326.3 305.3,1364.4 515.8,1364.4 	"/>
	<polyline class="st1" points="-13.1,1544.6 76.4,1455.2 204,1455.2 238.9,1420.3 489.5,1420.3 511.5,1398.2 	"/>
	<polyline class="st1" points="-17.6,1360.4 8.1,1334.7 89.5,1334.7 127.4,1372.6 249.2,1372.6 269.9,1393.2 	"/>
	<polyline class="st1" points="205.3,1398.2 186.1,1417.5 52.7,1417.5 28.6,1441.6 -17.6,1441.6 	"/>
	<line class="st1" x1="-13.1" y1="1393.2" x2="126.1" y2="1393.2"/>
	<line class="st1" x1="-17.6" y1="939.8" x2="150" y2="939.8"/>
	<polyline class="st1" points="-4.7,1688.7 29.9,1654.1 29.9,1615.7 91.5,1554.1 269.9,1554.1 302.6,1521.3 555.9,1521.3 
		643.7,1433.6 643.7,1364 689.7,1317.9 887.5,1317.9 912.4,1293.1 942.8,1293.1 1056.1,1179.7 1056.1,1151.9 1090.2,1117.8 
		1132.4,1117.8 	"/>
	<line class="st1" x1="1015.8" y1="1151.9" x2="929.9" y2="1237.7"/>
	<line class="st1" x1="682.3" y1="1213.1" x2="845.5" y2="1213.1"/>
	<line class="st1" x1="742" y1="1343.8" x2="676.8" y2="1409"/>
	<polyline class="st1" points="-4.7,1740 81.2,1654.1 81.2,1617.6 104.5,1594.4 293.5,1594.4 328.2,1559.6 490.8,1559.6 	"/>
	<polyline class="st1" points="253.1,1625.6 196.1,1682.6 196.3,1785.4 167.9,1813.8 167.9,1879.5 	"/>
	<polyline class="st1" points="-17.6,1773.6 33,1773.6 112.9,1693.6 112.9,1669 157.2,1624.7 	"/>
	<polyline class="st1" points="196.5,1625.6 158.6,1663.6 158.6,1747.9 92.7,1813.8 44.8,1813.8 -11.1,1869.7 	"/>
	<polyline class="st1" points="256.1,1879.5 307,1828.6 307,1722.2 371.5,1657.8 449.4,1657.8 461.9,1670.3 562,1670.3 
		589.5,1642.8 682.3,1642.8 747.4,1577.7 747.4,1499.2 844.8,1401.9 	"/>
	<polyline class="st1" points="1245.9,1122.4 1135,1233.3 1135,1351.2 1074.6,1411.6 1003.9,1411.6 982.9,1390.6 919.1,1390.6 
		832.2,1477.5 832.2,1534.8 796.7,1570.2 796.7,1706.4 701,1802.2 701,1907.8 	"/>
	<polyline class="st1" points="763.9,1629.5 707.1,1686.3 600.7,1686.3 581.1,1705.9 393.9,1705.9 362.2,1737.7 362.2,1773.6 
		408.9,1820.3 408.9,1879.5 	"/>
	<polyline class="st1" points="367.8,1879.5 367.8,1828.8 341.5,1802.5 	"/>
	<line class="st1" x1="269.9" y1="1050.2" x2="479" y2="1050.2"/>
	<polyline class="st1" points="709.4,1714.3 649.4,1774.4 649.4,1868.3 	"/>
	<polyline class="st1" points="453.3,1868.3 453.3,1791.3 491.8,1752.8 593.8,1752.8 	"/>
	<polyline class="st1" points="495.1,1946.1 495.1,1829.1 536.5,1787.7 	"/>
	<line class="st1" x1="587.9" y1="1890" x2="587.9" y2="1787.7"/>
	<polyline class="st1" points="818,1761.7 761.2,1818.5 761.2,1879.5 	"/>
	<line class="st1" x1="844.8" y1="1802.5" x2="844.8" y2="1890"/>
	<polyline class="st1" points="1284.5,1153.3 1284.5,1205.7 1246.8,1243.5 1246.8,1376.4 1121.2,1502 1021.7,1502 990.5,1533.2 
		952.6,1533.2 915.3,1570.5 915.3,1670.9 950.7,1706.4 950.7,1828.8 966.4,1844.5 966.4,1879.5 	"/>
	<polyline class="st1" points="1005.9,1879.5 1005.9,1740 991.8,1725.8 991.8,1603.7 1060.8,1534.6 	"/>
	<line class="st1" x1="1041.4" y1="1613.7" x2="1041.4" y2="1779.5"/>
	<polyline class="st1" points="1296.1,1447.9 1198.8,1545.2 1198.8,1570.3 1138.4,1630.7 1138.4,1761.7 1148,1771.3 1148,1879.5 	
		"/>
	<polyline class="st1" points="1284.5,1544.6 1217,1612.1 1217,1657.1 1182.8,1691.4 1182.8,1791.3 	"/>
	<polyline class="st1" points="1468.5,1153.3 1468.5,1213.1 1476.5,1221.1 1476.5,1376.4 1456,1396.9 1456,1510.8 1380.3,1586.5 
		1380.3,1663.7 1440.2,1723.6 1440.2,1791.3 1337.5,1894.1 	"/>
	<polyline class="st1" points="1418,1453.8 1348.7,1523.1 1348.7,1707.1 1384.5,1742.8 1384.5,1802.5 1298.4,1888.6 	"/>
	<polyline class="st1" points="1319.6,1688.7 1319.6,1740 1282.2,1777.4 1282.2,1894.1 	"/>
	<polyline class="st1" points="1509.5,1244.6 1509.5,1409 1589.6,1489 1589.6,1534.6 1609.8,1554.9 1609.8,1754.5 1662.2,1806.8 
		1662.2,1888.6 	"/>
	<polyline class="st1" points="1426.1,1888.6 1511.4,1803.3 1511.4,1699.1 1457.4,1645.1 1457.4,1586.1 1514.6,1528.8 
		1514.6,1468.3 	"/>
	<polyline class="st1" points="1552.3,1501.4 1552.3,1640.7 1573.2,1661.6 1573.2,1779.5 1547.2,1805.5 1547.2,1890 	"/>
	<polyline class="st1" points="1570.9,1188.9 1672.3,1290.3 1672.3,1398.2 1820.4,1546.3 1820.4,1603.7 1902.1,1685.4 
		1957.2,1685.4 1988.7,1717 1988.7,1791.3 2029,1831.6 2029,1872.2 	"/>
	<polyline class="st1" points="1570.9,1266.3 1612.7,1308.1 1612.7,1376.4 	"/>
	<polyline class="st1" points="1706.5,1501.4 1748.1,1543.1 1748.1,1649.8 1871.4,1773.1 1931.5,1773.1 1968.8,1810.4 
		1968.8,1879.5 	"/>
	<line class="st1" x1="1783.9" y1="1624.6" x2="1891.5" y2="1732.2"/>
	<polyline class="st1" points="1706.5,1559.6 1706.5,1690.5 1828.1,1812 1828.1,1879.5 	"/>
	<polyline class="st1" points="1691.3,1188.9 1783.2,1280.8 1783.2,1403.2 1968.5,1588.5 2072.9,1588.5 2120.4,1636 2120.4,1791.3 
		2234.2,1905.1 	"/>
	<line class="st1" x1="1909.1" y1="1811" x2="1909.1" y2="1879.5"/>
	<line class="st1" x1="1607" y1="1811" x2="1607" y2="1899.9"/>
	<polyline class="st1" points="1783.9,1125.9 1942.9,1285 1942.9,1355.2 1983.4,1395.6 	"/>
	<polyline class="st1" points="1783.7,1039.4 1951.2,1039.4 2116.3,1204.5 2116.3,1288.5 2204.3,1376.4 2456.5,1376.4 
		2498.5,1334.4 2728.8,1334.4 2749.2,1314.1 2999.2,1314.1 	"/>
	<polyline class="st1" points="2435.2,1403.2 2543.3,1403.2 2572.5,1374 2750.5,1374 2792.3,1332.3 2904.5,1332.3 	"/>
	<polyline class="st1" points="2659.7,1434.1 2811.7,1434.1 2855.1,1390.7 	"/>
	<polyline class="st1" points="2178.1,1539.8 2226.9,1588.6 2226.9,1695.7 2246.8,1715.6 2246.8,1779.5 2295.4,1828.1 
		2295.4,1888.6 	"/>
	<polyline class="st1" points="2355.8,1890 2355.8,1791.3 2384.4,1762.7 2384.4,1678.4 2307.5,1601.5 2244.9,1538.9 	"/>
	<polyline class="st1" points="2273.1,1640.7 2318.8,1686.4 2318.8,1779.5 	"/>
	<polyline class="st1" points="2423.4,1477.5 2522.8,1576.9 2522.8,1751.8 2603.1,1832.1 2603.1,1879.5 	"/>
	<polyline class="st1" points="2492,1477.5 2584.8,1477.5 2666.8,1559.6 2876.8,1559.6 2911.9,1524.5 2970.4,1524.5 	"/>
	<polyline class="st1" points="1998.6,1029.2 2153.7,1184.2 2234.2,1184.2 2283.8,1233.9 2612.4,1233.9 2640.6,1262.1 
		2795.9,1262.1 2808.5,1274.7 	"/>
	<polyline class="st1" points="2164.4,1213.1 2210,1258.6 2505.8,1258.6 2543.4,1296.2 2630.1,1296.2 	"/>
	<polyline class="st1" points="2164.4,1278 2205.3,1318.9 2435.2,1318.9 	"/>
	<polyline class="st1" points="2136.8,1090.7 2221.6,1090.7 2319.3,1188.4 	"/>
	<polyline class="st1" points="1745.9,965.7 1925.6,965.7 1948.8,942.5 1992.7,942.5 	"/>
	<line class="st1" x1="1746.6" y1="892.4" x2="1955.2" y2="892.4"/>
	<line class="st1" x1="1745.9" y1="928.3" x2="1869.3" y2="928.3"/>
	<polyline class="st1" points="1783.7,582.5 1838.9,527.3 1838.9,501.3 1971.6,368.5 	"/>
	<line class="st1" x1="1918.4" y1="493.4" x2="1988.9" y2="422.9"/>
	<line class="st1" x1="1678.5" y1="390.7" x2="1678.5" y2="456.2"/>
	<polyline class="st1" points="1998.6,681.3 2089,590.9 2164.4,590.9 2314.4,440.9 2520.9,440.9 2744.7,217.2 2744.7,83.7 
		2843.8,-15.3 2843.8,-146.1 	"/>
	<polyline class="st1" points="2659.7,-109.2 2715.3,-53.6 2715.3,17 2639.1,93.3 2639.1,228.9 2472,396 2234.2,396 2132.8,497.3 	
		"/>
	<polyline class="st1" points="2603.1,-111.1 2676.9,-37.3 2676.9,17 2587.1,106.8 2587.1,204.1 2466.5,324.7 	"/>
	<polyline class="st1" points="2363.6,-106.9 2242.3,14.4 2242.3,173.8 2188.3,227.7 2039.4,227.7 2014.3,252.9 2014.3,298.6 	"/>
	<polyline class="st1" points="2481.5,-127.6 2481.5,-69.1 2442.3,-29.9 2442.3,2.8 2367.2,77.9 2367.2,214.1 2316.5,264.8 	"/>
	<polyline class="st1" points="2613,-10.5 2506,96.5 2506,211.1 	"/>
	<polyline class="st1" points="2106.9,636 2228,636 2375.6,488.5 2578.8,488.5 2802.8,264.5 2802.8,121.3 2912.9,11.2 2912.9,-69.1 
		2952.9,-109 	"/>
	<polyline class="st1" points="2794.6,-146.1 2748.4,-99.8 2748.4,17 2683.8,81.6 2683.8,204.1 	"/>
	<polyline class="st1" points="2409.8,525.3 2649.9,525.3 2750.9,424.3 2750.9,390.7 2870.1,271.5 2870.1,173.8 2887,156.8 
		2887,95.9 2978.8,4.1 	"/>
	<line class="st1" x1="2881.4" y1="344.1" x2="2761.8" y2="463.7"/>
	<polyline class="st1" points="2052.6,759.3 2148.8,855.6 2384.4,855.6 2401.6,872.8 2676.9,872.8 2718.7,831 3034.1,831 	"/>
	<polyline class="st1" points="2146.2,752.6 2298.4,752.6 2380.8,670.2 2559.5,670.2 2586.7,642.9 2834.1,642.9 2867.2,676 
		2978.8,676 	"/>
	<polyline class="st1" points="2506,611.1 2794.6,611.1 2858.9,546.8 2970.4,546.8 	"/>
	<line class="st1" x1="2955.7" y1="458.1" x2="2915.7" y2="458.1"/>
	<line class="st1" x1="2955.7" y1="612.5" x2="2881.4" y2="612.5"/>
	<polyline class="st1" points="2955.7,729.1 2821.6,729.1 2790.7,698.2 2586.7,698.2 2561.5,723.4 2435.2,723.4 2355.1,803.5 
		2157.2,803.5 	"/>
	<polyline class="st1" points="2457.8,803.5 2529.9,803.5 2561.1,772.4 2873.6,772.4 2897.1,795.9 2999.2,795.9 	"/>
	<polyline class="st1" points="2466.8,924.2 2715.3,924.2 2764.3,875.3 2952.9,875.3 	"/>
	<polyline class="st1" points="2955.7,1036.3 2898,1094 2397.3,1094 2329.4,1026.2 	"/>
	<polyline class="st1" points="2571.7,1125.9 2865.7,1125.9 2959.2,1219.5 	"/>
	<polyline class="st1" points="2543.3,1518.5 2625.8,1601 2773.6,1601 2810.9,1638.3 2978.8,1638.3 	"/>
	<polyline class="st1" points="2571.7,1613.7 2571.7,1668 2686.8,1783.1 2686.8,1811 2721.5,1845.8 2721.5,1872.2 	"/>
	<polyline class="st1" points="2613,1640.7 2764,1791.7 2764,1888.6 	"/>
	<line class="st1" x1="2529.9" y1="1810.6" x2="2529.9" y2="1872.2"/>
	<polyline class="st1" points="2683.8,1640.7 2790.9,1747.7 2843.8,1747.7 2899,1803 2899,1864.9 	"/>
	<line class="st1" x1="2808.5" y1="1696.6" x2="2959.2" y2="1696.6"/>
	<line class="st1" x1="2831.4" y1="1811" x2="2831.4" y2="1888.6"/>
</g>
<g>
	<g>
		<circle class="st2" cx="1266" cy="666" r="14.3"/>
		<path class="st2" d="M1748.3,1134c0-7.9-6.4-14.3-14.3-14.3s-14.3,6.4-14.3,14.3s6.4,14.3,14.3,14.3S1748.3,1141.9,1748.3,1134z"
			/>
		<circle class="st2" cx="1266" cy="1134" r="14.3"/>
		<path class="st2" d="M1748.3,666c0-7.9-6.4-14.3-14.3-14.3s-14.3,6.4-14.3,14.3c0,7.9,6.4,14.3,14.3,14.3S1748.3,673.9,1748.3,666
			z"/>
	</g>
</g>
</svg>
