<?xml version="1.0" encoding="utf-8"?>
<!-- Generator: Adobe Illustrator 24.0.3, SVG Export Plug-In . SVG Version: 6.00 Build 0)  -->
<svg version="1.1"
	 id="Layer_1" xmlns:cc="http://creativecommons.org/ns#" xmlns:dc="http://purl.org/dc/elements/1.1/" xmlns:rdf="http://www.w3.org/1999/02/22-rdf-syntax-ns#" xmlns:svg="http://www.w3.org/2000/svg"
	 xmlns="http://www.w3.org/2000/svg" xmlns:xlink="http://www.w3.org/1999/xlink" x="0px" y="0px" viewBox="0 0 204.7 40.6"
	 style="enable-background:new 0 0 204.7 40.6;" xml:space="preserve">
<style type="text/css">
	.st0{fill:#FFFFFF;}
</style>
<g>
	<g>
		<path class="st0" d="M39.1,19c0,8.1-5.5,15.1-16.7,15.1H10.5V3.9h11.9C33.7,3.9,39.1,10.9,39.1,19z M31.5,19
			c0-4.5-2.8-8.1-9.6-8.1h-3.1v16.2h3.1C28.7,27.1,31.5,23.4,31.5,19z"/>
		<path class="st0" d="M47.3,10.9v4.6h12.2v7H47.3V34H39V3.9h21.8v7L47.3,10.9L47.3,10.9z"/>
		<g>
			<path class="st0" d="M66.3,13c0.5,0,0.8,0,1.1,0c3.7,0,7.4,0,11,0c0.8,0,1.2-0.2,1.5-0.9c0.8-1.7,1.7-3.4,2.5-5.1
				c-1.4-0.4-1.6-0.3-2.2,0.9c-0.5,0.9-0.9,1.9-1.5,2.8c-0.2,0.3-0.6,0.6-0.9,0.6c-3.9,0-7.9,0-11.8,0c-0.6,0-0.9-0.2-1.1-0.7
				c-0.4-0.7-0.8-1.4-1.3-2.3c0.5,0,0.8,0,1.2,0c3.7,0,7.4,0,11.1,0c0.7,0,1-0.2,1.3-0.8c0.5-1,1-2.1,1.6-3.1
				C78.9,4.4,79.3,4,79.7,4c4,0,8.1,0,12.1,0c0.1,0,0.3,0.1,0.6,0.1c-2.4,4.8-7.6,15.5-7.6,15.2c-1,1.1-2.5,1-3.7,1.1
				c-3.1,0.2-6.2,0.1-9.3,0.1c-0.5,0-0.9,0-1.2,0.6c-1.4,2.9-2.9,5.9-4.4,8.8c-0.2,0.4-0.3,0.8-0.5,1.1c1.6,0.3,1.6,0.3,2.3-1.1
				c1.1-2.3,2.3-4.6,3.5-6.9c0.1-0.3,0.2-0.5,0.3-0.9c4.5,0,9.2,0,13.6,0c0.5,1,0.9,1.8,1.5,2.8c-0.5,0-0.8,0-1.2,0
				c-3.6,0-7.3,0-10.9,0c-0.8,0-1.2,0.2-1.5,0.9c-0.8,1.7-1.7,3.4-2.5,5.1c1.6,0.3,1.6,0.3,2.3-1.1c0.5-0.9,0.9-1.8,1.4-2.7
				c0.2-0.3,0.6-0.6,0.9-0.6c4,0,8,0,12,0c0.3,0,0.7,0.3,0.9,0.5c0.5,0.7,0.9,1.4,1.4,2.3c-0.5,0-0.9,0.1-1.2,0.1
				c-3.6,0-7.3,0-10.9,0c-0.8,0-1.2,0.3-1.5,0.9c-0.5,1-1,2-1.5,3c-0.2,0.3-0.6,0.6-0.9,0.6c-4,0-8.1,0-12.1,0
				c-0.1,0-0.3-0.1-0.5-0.1c0.1-0.2,0.1-0.4,0.2-0.6c2-4,4-8,6.1-12c0.6-1.1,1.2-2.2,1.8-3.3c0.1-0.2,0.5-0.4,0.7-0.4
				c2.8,0,5.7,0,8.5,0c1.1,0,2.2,0,3.3,0c0.3,0,0.8-0.3,0.9-0.5c1.7-3.2,3.3-6.4,4.9-9.7c0.1-0.1,0.1-0.2,0.1-0.3
				C86.1,6.7,86,6.7,85.3,8c-1.2,2.4-2.4,4.7-3.6,7.1C81.4,15.8,81,16,80.3,16c-3.9,0-7.7,0-11.6,0c-0.3,0-0.8-0.3-1-0.5
				C67.3,14.7,66.9,14,66.3,13z"/>
			<path class="st0" d="M60.7,4.2C61.4,4.1,69.5,4,73.2,4c0.6,0,1.1,0.2,1.4,0.8c0.3,0.7,0.8,1.3,1.2,2.1c-0.5,0-0.8,0.1-1,0.1
				c-3.8,0-7.6,0-11.4,0c-0.6,0-1-0.1-1.3-0.7C61.8,5.5,61.2,5,60.7,4.2z"/>
			<path class="st0" d="M92.4,34c-0.7,0-1.2,0-1.6,0c-3.6,0-7.2,0-10.8,0c-0.7,0-1.1-0.2-1.4-0.8c-0.3-0.7-0.7-1.3-1.2-2.1
				c0.5,0,0.8-0.1,1.1-0.1c3.7,0,7.5,0,11.2,0c0.7,0,1.1,0.2,1.4,0.8C91.5,32.5,91.9,33.2,92.4,34z"/>
		</g>
	</g>
	<g>
		<path class="st0" d="M112.7,34c-4.2,0-8-1.2-10.8-2.8l2.3-4.7c3.1,2,5.1,2.6,8.5,2.6c3,0,5.1-1,5.1-3.8c0-6.3-15.1-1-15.1-13.5
			c0-5.4,4.6-7.9,10.2-7.9c4.1,0,7.5,1,10.2,2.3l-2,4.7c-2-1-4.8-2-8.2-2c-2.4,0-4.3,0.9-4.3,2.9c0,7.1,15.1,1.3,15.1,13.3
			C123.7,31.9,118.8,34,112.7,34z"/>
		<path class="st0" d="M132.4,34c-4.5,0-7.2-2.3-7.2-8V12.7h5.9v13.1c0,2.2,1.1,3.2,2.8,3.2c2.3,0,3.8-2.3,3.8-6.2V12.7h5.9V26
			c0,2.8,0.1,5.1,0.5,7.6h-5.9c-0.3-0.8-0.5-1.5-0.5-2.3C136.5,33,134.6,34,132.4,34z"/>
		<path class="st0" d="M147.9,17.7h-2.4v-5h5.6c2.1,0,2.8,0.3,2.8,2.3v18.6h-5.9V17.7z M148.1,4.3h5.7v5.5h-5.7V4.3z"/>
		<path class="st0" d="M155.7,17.7v-5h2.8V6h5.9v6.7h5.2v5h-5.2v8.2c0,2.3,0.7,3.1,2.2,3.1c0.8,0,1.6-0.3,2.6-0.8l1.2,4.7
			c-1.7,0.7-3.3,1.1-4.9,1.1c-4.4,0-7-2.1-7-7.8v-8.6H155.7z"/>
		<path class="st0" d="M190.6,32c-2.9,1.4-5.7,2.1-8.3,2.1c-7.1,0-11.5-4.1-11.5-10.9c0-6.5,3.5-10.9,10.4-10.9
			c6.5,0,9.8,4.2,9.8,10v3.1h-14.1c0.6,2.3,2.3,3.7,5.5,3.7c1.8,0,3.9-0.5,6.3-1.7L190.6,32z M177,20.5h8c-0.2-2.3-1.7-3.3-3.8-3.3
			C179,17.3,177.6,18.5,177,20.5z"/>
	</g>
</g>
</svg>
