<?xml version="1.0" encoding="utf-8"?>
<!-- Generator: Adobe Illustrator 24.0.3, SVG Export Plug-In . SVG Version: 6.00 Build 0)  -->
<svg version="1.1"
	 id="Layer_1" xmlns:cc="http://creativecommons.org/ns#" xmlns:dc="http://purl.org/dc/elements/1.1/" xmlns:rdf="http://www.w3.org/1999/02/22-rdf-syntax-ns#" xmlns:svg="http://www.w3.org/2000/svg"
	 xmlns="http://www.w3.org/2000/svg" xmlns:xlink="http://www.w3.org/1999/xlink" x="0px" y="0px" viewBox="0 0 40 40"
	 style="enable-background:new 0 0 40 40;" xml:space="preserve">
<style type="text/css">
	.st0{fill:#FFFFFF;}
</style>
<g>
	<g>
		<path class="st0" d="M9.8,14c0.5,0,0.8,0,1.1,0c3.7,0,7.4,0,11,0c0.8,0,1.2-0.2,1.5-0.9c0.8-1.7,1.7-3.4,2.5-5.1
			c-1.4-0.4-1.6-0.3-2.2,0.9c-0.5,0.9-0.9,1.9-1.5,2.8c-0.2,0.3-0.6,0.6-0.9,0.6c-3.9,0-7.9,0-11.8,0c-0.6,0-0.9-0.2-1.1-0.7
			c-0.4-0.7-0.8-1.4-1.3-2.3c0.5,0,0.8,0,1.2,0c3.7,0,7.4,0,11.1,0c0.7,0,1-0.2,1.3-0.8c0.5-1,1-2.1,1.6-3.1c0.1,0,0.5-0.4,0.9-0.4
			c4,0,8.1,0,12.1,0c0.1,0,0.3,0.1,0.6,0.1c-2.4,4.8-7.6,15.5-7.6,15.2c-1,1.1-2.5,1-3.7,1.1c-3.1,0.2-6.2,0.1-9.3,0.1
			c-0.5,0-0.9,0-1.2,0.6c-1.4,2.9-2.9,5.9-4.4,8.8c-0.2,0.4-0.3,0.8-0.5,1.1c1.6,0.3,1.6,0.3,2.3-1.1c1.1-2.3,2.3-4.6,3.5-6.9
			c0.1-0.3,0.2-0.5,0.3-0.9c4.5,0,9.2,0,13.6,0c0.5,1,0.9,1.8,1.5,2.8c-0.5,0-0.8,0-1.2,0c-3.6,0-7.3,0-10.9,0
			c-0.8,0-1.2,0.2-1.5,0.9c-0.8,1.7-1.7,3.4-2.5,5.1c1.6,0.3,1.6,0.3,2.3-1.1c0.5-0.9,0.9-1.8,1.4-2.7c0.2-0.3,0.6-0.6,0.9-0.6
			c4,0,8,0,12,0c0.3,0,0.7,0.3,0.9,0.5c0.5,0.7,0.9,1.4,1.4,2.3c-0.5,0-0.9,0.1-1.2,0.1c-3.6,0-7.3,0-10.9,0c-0.8,0-1.2,0.3-1.5,0.9
			c-0.5,1-1,2-1.5,3c-0.2,0.3-0.6,0.6-0.9,0.6c-4,0-8.1,0-12.1,0c-0.1,0-0.3-0.1-0.5-0.1c0.1-0.2,0.1-0.4,0.2-0.6c2-4,4-8,6.1-12
			c0.6-1.1,1.2-2.2,1.8-3.3c0.1-0.2,0.5-0.4,0.7-0.4c2.8,0,5.7,0,8.5,0c1.1,0,2.2,0,3.3,0c0.3,0,0.8-0.3,0.9-0.5
			c1.7-3.2,3.3-6.4,4.9-9.7c0.1-0.1,0.1-0.2,0.1-0.3c-1.5-0.3-1.6-0.3-2.3,1c-1.2,2.4-2.4,4.7-3.6,7.1c-0.3,0.7-0.7,0.9-1.4,0.9
			c-3.9,0-7.7,0-11.6,0c-0.3,0-0.8-0.3-1-0.5C10.8,15.7,10.4,15,9.8,14z"/>
		<path class="st0" d="M4.1,5.2C4.9,5.1,12.9,5,16.6,5c0.6,0,1.1,0.2,1.4,0.8c0.3,0.7,0.8,1.3,1.2,2.1c-0.5,0-0.8,0.1-1,0.1
			c-3.8,0-7.6,0-11.4,0c-0.6,0-1-0.1-1.3-0.7C5.2,6.5,4.6,6,4.1,5.2z"/>
		<path class="st0" d="M35.8,35c-0.7,0-1.2,0-1.6,0c-3.6,0-7.2,0-10.8,0c-0.7,0-1.1-0.2-1.4-0.8c-0.3-0.7-0.7-1.3-1.2-2.1
			c0.5,0,0.8-0.1,1.1-0.1c3.7,0,7.5,0,11.2,0c0.7,0,1.1,0.2,1.4,0.8C34.9,33.5,35.3,34.2,35.8,35z"/>
	</g>
</g>
</svg>
